<svg width="200" height="132" viewBox="0 0 200 132" fill="none" xmlns="http://www.w3.org/2000/svg">
<rect width="200" height="131" transform="translate(0 0.308167)" fill="white"/>
<g opacity="0.5">
<path d="M20.3333 18.1415V21.8082M27.6667 18.1415V21.8082M15.75 25.4748H32.25M20.3333 29.1415H20.3425M24 29.1415H24.0092M27.6667 29.1415H27.6758M20.3333 32.8082H20.3425M24 32.8082H24.0092M27.6667 32.8082H27.6758M17.5833 19.9748H30.4167C31.4292 19.9748 32.25 20.7956 32.25 21.8082V34.6415C32.25 35.654 31.4292 36.4748 30.4167 36.4748H17.5833C16.5708 36.4748 15.75 35.654 15.75 34.6415V21.8082C15.75 20.7956 16.5708 19.9748 17.5833 19.9748Z" stroke="black" stroke-width="1.83333" stroke-linecap="round" stroke-linejoin="round"/>
<path d="M46.456 32.8082V21.6082H49.992C50.5893 21.6082 51.128 21.6882 51.608 21.8482C52.088 22.0082 52.4987 22.2375 52.84 22.5362C53.1813 22.8348 53.4427 23.2028 53.624 23.6402C53.816 24.0668 53.912 24.5522 53.912 25.0962V25.3362C53.912 25.8802 53.8213 26.3708 53.64 26.8082C53.4587 27.2455 53.1973 27.6188 52.856 27.9282C52.5147 28.2268 52.104 28.4615 51.624 28.6322C51.144 28.7922 50.6107 28.8722 50.024 28.8722H48.152V32.8082H46.456ZM48.12 27.4162H49.896C50.2587 27.4162 50.5787 27.3682 50.856 27.2722C51.144 27.1762 51.384 27.0428 51.576 26.8722C51.7787 26.7015 51.9333 26.4882 52.04 26.2322C52.1467 25.9762 52.2 25.6882 52.2 25.3682V25.1282C52.2 24.8082 52.1467 24.5255 52.04 24.2802C51.9333 24.0242 51.784 23.8162 51.592 23.6562C51.4 23.4855 51.16 23.3575 50.872 23.2722C50.5947 23.1762 50.2747 23.1282 49.912 23.1282H48.12V27.4162ZM55.8105 32.8082V24.4882H57.0265C57.0798 24.6375 57.1278 24.8135 57.1705 25.0162C57.2238 25.2082 57.2612 25.3948 57.2825 25.5762C57.5812 25.2242 57.9385 24.9575 58.3545 24.7762C58.7812 24.5842 59.2505 24.4882 59.7625 24.4882H59.9705V26.0562C59.9065 26.0348 59.8212 26.0242 59.7145 26.0242C59.6078 26.0135 59.5065 26.0082 59.4105 26.0082C59.0692 26.0082 58.7705 26.0562 58.5145 26.1522C58.2692 26.2482 58.0612 26.3975 57.8905 26.6002C57.7198 26.7922 57.5918 27.0375 57.5065 27.3362C57.4318 27.6348 57.3945 27.9815 57.3945 28.3762V32.8082H55.8105ZM65.0146 32.9362C64.428 32.9362 63.8893 32.8348 63.3986 32.6322C62.9186 32.4295 62.5026 32.1522 62.1506 31.8002C61.7986 31.4375 61.5266 31.0055 61.3346 30.5042C61.1426 30.0028 61.0466 29.4588 61.0466 28.8722V28.4242C61.0466 27.8268 61.1426 27.2828 61.3346 26.7922C61.5266 26.2908 61.7986 25.8642 62.1506 25.5122C62.5026 25.1495 62.9186 24.8668 63.3986 24.6642C63.8893 24.4615 64.428 24.3602 65.0146 24.3602H65.1746C65.7613 24.3602 66.2946 24.4615 66.7746 24.6642C67.2653 24.8668 67.6866 25.1495 68.0386 25.5122C68.3906 25.8642 68.6626 26.2908 68.8546 26.7922C69.0466 27.2828 69.1426 27.8268 69.1426 28.4242V28.8722C69.1426 29.4588 69.0466 30.0028 68.8546 30.5042C68.6626 31.0055 68.3906 31.4375 68.0386 31.8002C67.6866 32.1522 67.2653 32.4295 66.7746 32.6322C66.2946 32.8348 65.7613 32.9362 65.1746 32.9362H65.0146ZM65.0306 31.5442H65.1586C65.5106 31.5442 65.8306 31.4802 66.1186 31.3522C66.4066 31.2242 66.652 31.0428 66.8546 30.8082C67.0573 30.5628 67.212 30.2748 67.3186 29.9442C67.4253 29.6028 67.4786 29.2348 67.4786 28.8402V28.4402C67.4786 28.0348 67.42 27.6668 67.3026 27.3362C67.196 27.0055 67.0413 26.7228 66.8386 26.4882C66.636 26.2535 66.3906 26.0722 66.1026 25.9442C65.8146 25.8162 65.5 25.7522 65.1586 25.7522H65.0306C64.6786 25.7522 64.3586 25.8162 64.0706 25.9442C63.7933 26.0722 63.5533 26.2535 63.3506 26.4882C63.148 26.7228 62.988 27.0055 62.8706 27.3362C62.7533 27.6668 62.6946 28.0348 62.6946 28.4402V28.8402C62.6946 29.2348 62.748 29.6028 62.8546 29.9442C62.972 30.2748 63.132 30.5628 63.3346 30.8082C63.5373 31.0428 63.7826 31.2242 64.0706 31.3522C64.3586 31.4802 64.6786 31.5442 65.0306 31.5442ZM74.4209 32.9202C73.8342 32.9202 73.2955 32.8242 72.8049 32.6322C72.3142 32.4295 71.8929 32.1468 71.5409 31.7842C71.1995 31.4215 70.9329 30.9948 70.7409 30.5042C70.5489 30.0028 70.4529 29.4535 70.4529 28.8562V28.4242C70.4529 27.8375 70.5489 27.2935 70.7409 26.7922C70.9435 26.2908 71.2155 25.8642 71.5569 25.5122C71.9089 25.1495 72.3249 24.8722 72.8049 24.6802C73.2849 24.4775 73.8129 24.3762 74.3889 24.3762H74.5169C75.2315 24.3762 75.8822 24.5522 76.4689 24.9042C77.0662 25.2455 77.5515 25.7362 77.9249 26.3762L76.7249 27.1282C76.4795 26.6695 76.1702 26.3282 75.7969 26.1042C75.4342 25.8695 75.0129 25.7522 74.5329 25.7522H74.3889C74.0369 25.7522 73.7169 25.8162 73.4289 25.9442C73.1515 26.0722 72.9115 26.2535 72.7089 26.4882C72.5169 26.7228 72.3675 27.0055 72.2609 27.3362C72.1542 27.6668 72.1009 28.0402 72.1009 28.4562V28.8402C72.1009 29.2455 72.1542 29.6135 72.2609 29.9442C72.3782 30.2748 72.5382 30.5575 72.7409 30.7922C72.9542 31.0268 73.2049 31.2082 73.4929 31.3362C73.7915 31.4642 74.1169 31.5282 74.4689 31.5282H74.6289C75.0662 31.5282 75.4609 31.4162 75.8129 31.1922C76.1755 30.9575 76.4795 30.6215 76.7249 30.1842L77.9409 30.9522C77.5569 31.5922 77.0769 32.0828 76.5009 32.4242C75.9249 32.7548 75.2795 32.9202 74.5649 32.9202H74.4209ZM79.6074 32.8082V21.2882H81.1914V25.5762C81.5434 25.1815 81.9594 24.8775 82.4394 24.6642C82.93 24.4508 83.4634 24.3442 84.0394 24.3442C84.946 24.3442 85.6447 24.6162 86.1354 25.1602C86.626 25.7042 86.8714 26.4775 86.8714 27.4802V32.8082H85.2874V27.7842C85.2874 27.1228 85.138 26.6268 84.8394 26.2962C84.5407 25.9655 84.0927 25.8002 83.4954 25.8002C83.154 25.8002 82.8394 25.8588 82.5514 25.9762C82.2634 26.0828 82.018 26.2375 81.8154 26.4402C81.6127 26.6428 81.458 26.8935 81.3514 27.1922C81.2447 27.4802 81.1914 27.8002 81.1914 28.1522V32.8082H79.6074ZM91.3771 32.9522C90.9718 32.9522 90.5985 32.8935 90.2571 32.7762C89.9265 32.6588 89.6385 32.4935 89.3931 32.2802C89.1585 32.0668 88.9718 31.8108 88.8331 31.5122C88.7051 31.2028 88.6411 30.8615 88.6411 30.4882V30.3602C88.6411 29.4535 89.0251 28.7815 89.7931 28.3442C90.5718 27.8962 91.7611 27.6722 93.3611 27.6722H94.0811V27.2082C94.0811 26.7602 93.9318 26.4082 93.6331 26.1522C93.3451 25.8855 92.9238 25.7522 92.3691 25.7522H92.2731C91.8465 25.7522 91.4091 25.8268 90.9611 25.9762C90.5238 26.1255 90.1185 26.3388 89.7451 26.6162L89.0411 25.4162C89.5531 25.0855 90.0865 24.8242 90.6411 24.6322C91.2065 24.4295 91.7878 24.3282 92.3851 24.3282H92.4971C93.4785 24.3282 94.2411 24.5842 94.7851 25.0962C95.3398 25.5975 95.6171 26.2908 95.6171 27.1762V31.2722C95.6171 31.5282 95.6438 31.7948 95.6971 32.0722C95.7611 32.3388 95.8305 32.5842 95.9051 32.8082H94.3531C94.2998 32.6908 94.2518 32.5415 94.2091 32.3602C94.1771 32.1788 94.1505 31.9975 94.1291 31.8162C93.7451 32.1788 93.3185 32.4615 92.8491 32.6642C92.3905 32.8562 91.8998 32.9522 91.3771 32.9522ZM91.6331 31.5602C92.1238 31.5602 92.5771 31.4588 92.9931 31.2562C93.4198 31.0428 93.7825 30.7602 94.0811 30.4082V28.8722H93.5691C92.3851 28.8722 91.5265 28.9842 90.9931 29.2082C90.4598 29.4322 90.1931 29.7948 90.1931 30.2962V30.3762C90.1931 30.5575 90.2251 30.7228 90.2891 30.8722C90.3638 31.0108 90.4598 31.1335 90.5771 31.2402C90.7051 31.3362 90.8598 31.4162 91.0411 31.4802C91.2225 31.5335 91.4198 31.5602 91.6331 31.5602ZM98.0605 32.8082V24.4882H99.6445V32.8082H98.0605ZM98.8445 23.2562C98.5565 23.2562 98.3218 23.1708 98.1405 23.0002C97.9592 22.8188 97.8685 22.5948 97.8685 22.3282C97.8685 22.0615 97.9592 21.8375 98.1405 21.6562C98.3218 21.4748 98.5565 21.3842 98.8445 21.3842C99.1325 21.3842 99.3725 21.4748 99.5645 21.6562C99.7565 21.8375 99.8525 22.0615 99.8525 22.3282C99.8525 22.5948 99.7565 22.8188 99.5645 23.0002C99.3725 23.1708 99.1325 23.2562 98.8445 23.2562ZM102.123 32.8082V24.4882H103.371C103.424 24.6482 103.472 24.8348 103.515 25.0482C103.558 25.2615 103.59 25.4588 103.611 25.6402C103.952 25.2348 104.363 24.9202 104.843 24.6962C105.334 24.4615 105.867 24.3442 106.443 24.3442H106.539C107.478 24.3442 108.187 24.6162 108.667 25.1602C109.147 25.6935 109.387 26.4668 109.387 27.4802V32.8082H107.803V27.7842C107.803 27.1442 107.67 26.6535 107.403 26.3122C107.136 25.9708 106.704 25.8002 106.107 25.8002H105.995C105.654 25.8002 105.339 25.8588 105.051 25.9762C104.774 26.0828 104.534 26.2428 104.331 26.4562C104.139 26.6588 103.984 26.9042 103.867 27.1922C103.76 27.4802 103.707 27.8108 103.707 28.1842V32.8082H102.123ZM119.468 32.9202C118.881 32.9202 118.342 32.8242 117.852 32.6322C117.361 32.4295 116.94 32.1468 116.588 31.7842C116.246 31.4215 115.98 30.9948 115.788 30.5042C115.596 30.0028 115.5 29.4535 115.5 28.8562V28.4242C115.5 27.8375 115.596 27.2935 115.788 26.7922C115.99 26.2908 116.262 25.8642 116.604 25.5122C116.956 25.1495 117.372 24.8722 117.852 24.6802C118.332 24.4775 118.86 24.3762 119.436 24.3762H119.564C120.278 24.3762 120.929 24.5522 121.516 24.9042C122.113 25.2455 122.598 25.7362 122.972 26.3762L121.772 27.1282C121.526 26.6695 121.217 26.3282 120.844 26.1042C120.481 25.8695 120.06 25.7522 119.58 25.7522H119.436C119.084 25.7522 118.764 25.8162 118.476 25.9442C118.198 26.0722 117.958 26.2535 117.756 26.4882C117.564 26.7228 117.414 27.0055 117.308 27.3362C117.201 27.6668 117.148 28.0402 117.148 28.4562V28.8402C117.148 29.2455 117.201 29.6135 117.308 29.9442C117.425 30.2748 117.585 30.5575 117.788 30.7922C118.001 31.0268 118.252 31.2082 118.54 31.3362C118.838 31.4642 119.164 31.5282 119.516 31.5282H119.676C120.113 31.5282 120.508 31.4162 120.86 31.1922C121.222 30.9575 121.526 30.6215 121.772 30.1842L122.988 30.9522C122.604 31.5922 122.124 32.0828 121.548 32.4242C120.972 32.7548 120.326 32.9202 119.612 32.9202H119.468ZM128.03 32.9362C127.444 32.9362 126.905 32.8348 126.414 32.6322C125.934 32.4295 125.518 32.1522 125.166 31.8002C124.814 31.4375 124.542 31.0055 124.35 30.5042C124.158 30.0028 124.062 29.4588 124.062 28.8722V28.4242C124.062 27.8268 124.158 27.2828 124.35 26.7922C124.542 26.2908 124.814 25.8642 125.166 25.5122C125.518 25.1495 125.934 24.8668 126.414 24.6642C126.905 24.4615 127.444 24.3602 128.03 24.3602H128.19C128.777 24.3602 129.31 24.4615 129.79 24.6642C130.281 24.8668 130.702 25.1495 131.054 25.5122C131.406 25.8642 131.678 26.2908 131.87 26.7922C132.062 27.2828 132.158 27.8268 132.158 28.4242V28.8722C132.158 29.4588 132.062 30.0028 131.87 30.5042C131.678 31.0055 131.406 31.4375 131.054 31.8002C130.702 32.1522 130.281 32.4295 129.79 32.6322C129.31 32.8348 128.777 32.9362 128.19 32.9362H128.03ZM128.046 31.5442H128.174C128.526 31.5442 128.846 31.4802 129.134 31.3522C129.422 31.2242 129.668 31.0428 129.87 30.8082C130.073 30.5628 130.228 30.2748 130.334 29.9442C130.441 29.6028 130.494 29.2348 130.494 28.8402V28.4402C130.494 28.0348 130.436 27.6668 130.318 27.3362C130.212 27.0055 130.057 26.7228 129.854 26.4882C129.652 26.2535 129.406 26.0722 129.118 25.9442C128.83 25.8162 128.516 25.7522 128.174 25.7522H128.046C127.694 25.7522 127.374 25.8162 127.086 25.9442C126.809 26.0722 126.569 26.2535 126.366 26.4882C126.164 26.7228 126.004 27.0055 125.886 27.3362C125.769 27.6668 125.71 28.0348 125.71 28.4402V28.8402C125.71 29.2348 125.764 29.6028 125.87 29.9442C125.988 30.2748 126.148 30.5628 126.35 30.8082C126.553 31.0428 126.798 31.2242 127.086 31.3522C127.374 31.4802 127.694 31.5442 128.046 31.5442ZM136.701 32.9522C135.773 32.9522 135.074 32.6855 134.605 32.1522C134.135 31.6082 133.901 30.8295 133.901 29.8162V24.4882H135.485V29.4962C135.485 30.1468 135.613 30.6428 135.869 30.9842C136.125 31.3255 136.546 31.4962 137.133 31.4962H137.229C137.57 31.4962 137.879 31.4428 138.157 31.3362C138.434 31.2188 138.669 31.0588 138.861 30.8562C139.063 30.6428 139.218 30.3922 139.325 30.1042C139.442 29.8055 139.501 29.4695 139.501 29.0962V24.4882H141.085V32.8082H139.837C139.783 32.6588 139.735 32.4775 139.693 32.2642C139.65 32.0402 139.618 31.8375 139.597 31.6562C139.255 32.0615 138.845 32.3815 138.365 32.6162C137.895 32.8402 137.373 32.9522 136.797 32.9522H136.701ZM143.576 32.8082V24.4882H144.792C144.845 24.6375 144.893 24.8135 144.936 25.0162C144.989 25.2082 145.027 25.3948 145.048 25.5762C145.347 25.2242 145.704 24.9575 146.12 24.7762C146.547 24.5842 147.016 24.4882 147.528 24.4882H147.736V26.0562C147.672 26.0348 147.587 26.0242 147.48 26.0242C147.373 26.0135 147.272 26.0082 147.176 26.0082C146.835 26.0082 146.536 26.0562 146.28 26.1522C146.035 26.2482 145.827 26.3975 145.656 26.6002C145.485 26.7922 145.357 27.0375 145.272 27.3362C145.197 27.6348 145.16 27.9815 145.16 28.3762V32.8082H143.576ZM152.22 32.9522C151.516 32.9522 150.85 32.8455 150.22 32.6322C149.602 32.4188 149.068 32.1148 148.62 31.7202L149.468 30.5522C149.66 30.7228 149.863 30.8668 150.076 30.9842C150.3 31.1015 150.53 31.2082 150.764 31.3042C150.999 31.3895 151.234 31.4535 151.468 31.4962C151.714 31.5388 151.964 31.5602 152.22 31.5602C152.466 31.5602 152.684 31.5388 152.876 31.4962C153.068 31.4428 153.228 31.3735 153.356 31.2882C153.495 31.1922 153.596 31.0802 153.66 30.9522C153.724 30.8242 153.756 30.6695 153.756 30.4882C153.756 30.2642 153.703 30.0882 153.596 29.9602C153.49 29.8215 153.335 29.7042 153.132 29.6082C152.93 29.5122 152.695 29.4322 152.428 29.3682C152.162 29.2935 151.874 29.2082 151.564 29.1122C151.255 29.0375 150.946 28.9522 150.636 28.8562C150.327 28.7495 150.055 28.6108 149.82 28.4402C149.586 28.2588 149.388 28.0348 149.228 27.7682C149.079 27.5015 149.004 27.1708 149.004 26.7762C149.004 26.4135 149.074 26.0828 149.212 25.7842C149.351 25.4855 149.543 25.2295 149.788 25.0162C150.034 24.8028 150.332 24.6375 150.684 24.5202C151.036 24.4028 151.426 24.3442 151.852 24.3442C152.46 24.3442 153.036 24.4402 153.58 24.6322C154.124 24.8135 154.61 25.0535 155.036 25.3522L154.268 26.5522C153.916 26.3068 153.532 26.1095 153.116 25.9602C152.7 25.8108 152.284 25.7362 151.868 25.7362C151.655 25.7362 151.463 25.7575 151.292 25.8002C151.132 25.8428 150.994 25.9068 150.876 25.9922C150.77 26.0775 150.684 26.1788 150.62 26.2962C150.567 26.4135 150.54 26.5522 150.54 26.7122C150.54 26.9042 150.588 27.0642 150.684 27.1922C150.791 27.3202 150.935 27.4268 151.116 27.5122C151.298 27.5975 151.506 27.6722 151.74 27.7362C151.975 27.7895 152.22 27.8428 152.476 27.8962C152.818 27.9815 153.154 28.0775 153.484 28.1842C153.826 28.2802 154.13 28.4242 154.396 28.6162C154.674 28.7975 154.898 29.0322 155.068 29.3202C155.25 29.6082 155.34 29.9708 155.34 30.4082C155.34 30.8028 155.266 31.1602 155.116 31.4802C154.967 31.7895 154.759 32.0562 154.492 32.2802C154.226 32.4935 153.895 32.6588 153.5 32.7762C153.116 32.8935 152.69 32.9522 152.22 32.9522Z" fill="black"/>
</g>
<g clip-path="url(#clip0_110_131)">
<g clip-path="url(#clip1_110_131)">
<rect x="13" y="46.3082" width="7" height="49" rx="3.5" fill="#5CB21F"/>
<rect x="22.4351" y="43.3082" width="3" height="19" transform="rotate(45 22.4351 43.3082)" fill="#3C9000"/>
<rect x="22.4351" y="52.8645" width="3" height="19" transform="rotate(45 22.4351 52.8645)" fill="#3C9000"/>
<rect x="22.4351" y="62.4209" width="3" height="19" transform="rotate(45 22.4351 62.4209)" fill="#3C9000"/>
<rect x="22.4351" y="71.9772" width="3" height="19" transform="rotate(45 22.4351 71.9772)" fill="#3C9000"/>
<rect x="22.4351" y="81.5336" width="3" height="19" transform="rotate(45 22.4351 81.5336)" fill="#3C9000"/>
<rect x="22.4351" y="91.0899" width="3" height="19" transform="rotate(45 22.4351 91.0899)" fill="#3C9000"/>
</g>
<path d="M31.312 51.1082H33.664L38.048 59.0602H38.112V51.1082H40.144V62.3082H38.048L33.456 53.9722H33.36V62.3082H31.312V51.1082ZM45.2448 62.4682C44.3274 62.4682 43.6288 62.1962 43.1488 61.6522C42.6794 61.1082 42.4448 60.3295 42.4448 59.3162V53.9882H44.4288V58.9002C44.4288 59.5082 44.5461 59.9668 44.7808 60.2762C45.0154 60.5855 45.3941 60.7402 45.9168 60.7402H45.9808C46.5888 60.7402 47.0741 60.5428 47.4368 60.1482C47.7994 59.7428 47.9808 59.2042 47.9808 58.5322V53.9882H49.9648V62.3082H48.3968C48.3434 62.1588 48.2901 61.9722 48.2368 61.7482C48.1941 61.5135 48.1674 61.3055 48.1568 61.1242C47.8154 61.5402 47.3994 61.8708 46.9088 62.1162C46.4288 62.3508 45.9008 62.4682 45.3248 62.4682H45.2448ZM52.2141 53.9882H53.7821C53.8248 54.1268 53.8675 54.2975 53.9101 54.5002C53.9528 54.6922 53.9848 54.8788 54.0061 55.0602C54.3261 54.6762 54.7048 54.3775 55.1421 54.1642C55.5795 53.9402 56.0541 53.8282 56.5661 53.8282H56.6461C57.2221 53.8282 57.6968 53.9508 58.0701 54.1962C58.4541 54.4308 58.7475 54.7722 58.9501 55.2202C59.2701 54.7828 59.6595 54.4415 60.1181 54.1962C60.5875 53.9508 61.0995 53.8282 61.6541 53.8282H61.7341C62.5768 53.8282 63.2221 54.0895 63.6701 54.6122C64.1181 55.1348 64.3421 55.8922 64.3421 56.8842V62.3082H62.3581V57.2362C62.3581 56.6495 62.2515 56.2228 62.0381 55.9562C61.8248 55.6895 61.4941 55.5562 61.0461 55.5562H60.9821C60.4595 55.5562 60.0435 55.7268 59.7341 56.0682C59.4248 56.4095 59.2701 56.9108 59.2701 57.5722V62.3082H57.2861V57.2362C57.2861 56.6602 57.1741 56.2388 56.9501 55.9722C56.7368 55.6948 56.4061 55.5562 55.9581 55.5562H55.8941C55.3715 55.5562 54.9555 55.7268 54.6461 56.0682C54.3475 56.4095 54.1981 56.9108 54.1981 57.5722V62.3082H52.2141V53.9882ZM69.9685 62.4522C69.3605 62.4522 68.8058 62.3562 68.3045 62.1642C67.8032 61.9615 67.3712 61.6842 67.0085 61.3322C66.6565 60.9695 66.3792 60.5375 66.1765 60.0362C65.9845 59.5242 65.8885 58.9642 65.8885 58.3562V58.0362C65.8885 57.4175 65.9845 56.8522 66.1765 56.3402C66.3792 55.8175 66.6565 55.3748 67.0085 55.0122C67.3605 54.6388 67.7818 54.3508 68.2725 54.1482C68.7738 53.9455 69.3232 53.8442 69.9205 53.8442H70.0805C70.6352 53.8442 71.1418 53.9402 71.6005 54.1322C72.0592 54.3135 72.4538 54.5748 72.7845 54.9162C73.1152 55.2468 73.3712 55.6522 73.5525 56.1322C73.7338 56.6015 73.8245 57.1188 73.8245 57.6842V58.7562H67.8565V58.7722C67.9098 59.3908 68.1338 59.8815 68.5285 60.2442C68.9338 60.6068 69.4565 60.7882 70.0965 60.7882H70.2565C70.7578 60.7882 71.1898 60.6868 71.5525 60.4842C71.9258 60.2815 72.2352 60.0255 72.4805 59.7162L73.5685 60.9162C73.1738 61.3962 72.6778 61.7748 72.0805 62.0522C71.4832 62.3188 70.8485 62.4522 70.1765 62.4522H69.9685ZM71.9205 57.4282V57.3802C71.8992 56.7722 71.7178 56.2922 71.3765 55.9402C71.0352 55.5775 70.5925 55.3962 70.0485 55.3962H69.9045C69.3605 55.3962 68.9125 55.5775 68.5605 55.9402C68.2085 56.2922 67.9845 56.7882 67.8885 57.4282H71.9205ZM69.1685 53.0442L70.0805 50.5642H71.8885L70.6885 53.0442H69.1685ZM75.4794 53.9882H77.0314C77.0847 54.1375 77.1327 54.3188 77.1754 54.5322C77.2287 54.7348 77.266 54.9268 77.2874 55.1082C77.586 54.7562 77.9434 54.4842 78.3594 54.2922C78.786 54.0895 79.2607 53.9882 79.7834 53.9882H79.9914V55.8922C79.9167 55.8708 79.8207 55.8548 79.7034 55.8442C79.586 55.8335 79.4794 55.8282 79.3834 55.8282C78.1034 55.8282 77.4634 56.5215 77.4634 57.9082V62.3082H75.4794V53.9882ZM82.5023 52.6922C82.1609 52.6922 81.8836 52.5962 81.6703 52.4042C81.4569 52.2015 81.3503 51.9455 81.3503 51.6362C81.3503 51.3162 81.4569 51.0548 81.6703 50.8522C81.8836 50.6495 82.1609 50.5482 82.5023 50.5482C82.8543 50.5482 83.1369 50.6495 83.3503 50.8522C83.5743 51.0548 83.6863 51.3162 83.6863 51.6362C83.6863 51.9455 83.5743 52.2015 83.3503 52.4042C83.1369 52.5962 82.8543 52.6922 82.5023 52.6922ZM81.5263 53.9882H83.5103V62.3082H81.5263V53.9882ZM91.489 61.4922C91.1797 61.8015 90.817 62.0415 90.401 62.2122C89.985 62.3722 89.5263 62.4522 89.025 62.4522H88.881C88.337 62.4522 87.8357 62.3562 87.377 62.1642C86.929 61.9615 86.545 61.6842 86.225 61.3322C85.905 60.9695 85.6543 60.5375 85.473 60.0362C85.2917 59.5348 85.201 58.9855 85.201 58.3882V57.9082C85.201 57.3108 85.2917 56.7615 85.473 56.2602C85.6543 55.7588 85.905 55.3322 86.225 54.9802C86.545 54.6175 86.929 54.3402 87.377 54.1482C87.8357 53.9455 88.337 53.8442 88.881 53.8442H89.025C89.569 53.8442 90.065 53.9455 90.513 54.1482C90.961 54.3402 91.3503 54.6175 91.681 54.9802C91.7023 54.8095 91.729 54.6335 91.761 54.4522C91.8037 54.2602 91.8517 54.1055 91.905 53.9882H93.473V65.5082H91.489V61.4922ZM89.441 60.8682C90.0703 60.8682 90.5663 60.6335 90.929 60.1642C91.3023 59.6948 91.489 59.0762 91.489 58.3082V57.9242C91.489 57.1668 91.3023 56.5642 90.929 56.1162C90.5557 55.6575 90.0597 55.4282 89.441 55.4282H89.313C88.6943 55.4282 88.1983 55.6575 87.825 56.1162C87.4517 56.5642 87.265 57.1668 87.265 57.9242V58.3082C87.265 59.0868 87.4517 59.7108 87.825 60.1802C88.1983 60.6388 88.6943 60.8682 89.313 60.8682H89.441ZM98.3698 62.4682C97.4524 62.4682 96.7538 62.1962 96.2738 61.6522C95.8044 61.1082 95.5698 60.3295 95.5698 59.3162V53.9882H97.5538V58.9002C97.5538 59.5082 97.6711 59.9668 97.9058 60.2762C98.1404 60.5855 98.5191 60.7402 99.0418 60.7402H99.1058C99.7138 60.7402 100.199 60.5428 100.562 60.1482C100.924 59.7428 101.106 59.2042 101.106 58.5322V53.9882H103.09V62.3082H101.522C101.468 62.1588 101.415 61.9722 101.362 61.7482C101.319 61.5135 101.292 61.3055 101.282 61.1242C100.94 61.5402 100.524 61.8708 100.034 62.1162C99.5538 62.3508 99.0258 62.4682 98.4498 62.4682H98.3698ZM108.859 62.4522C108.251 62.4522 107.696 62.3562 107.195 62.1642C106.694 61.9615 106.262 61.6842 105.899 61.3322C105.547 60.9695 105.27 60.5375 105.067 60.0362C104.875 59.5242 104.779 58.9642 104.779 58.3562V58.0362C104.779 57.4175 104.875 56.8522 105.067 56.3402C105.27 55.8175 105.547 55.3748 105.899 55.0122C106.251 54.6388 106.672 54.3508 107.163 54.1482C107.664 53.9455 108.214 53.8442 108.811 53.8442H108.971C109.526 53.8442 110.032 53.9402 110.491 54.1322C110.95 54.3135 111.344 54.5748 111.675 54.9162C112.006 55.2468 112.262 55.6522 112.443 56.1322C112.624 56.6015 112.715 57.1188 112.715 57.6842V58.7562H106.747V58.7722C106.8 59.3908 107.024 59.8815 107.419 60.2442C107.824 60.6068 108.347 60.7882 108.987 60.7882H109.147C109.648 60.7882 110.08 60.6868 110.443 60.4842C110.816 60.2815 111.126 60.0255 111.371 59.7162L112.459 60.9162C112.064 61.3962 111.568 61.7748 110.971 62.0522C110.374 62.3188 109.739 62.4522 109.067 62.4522H108.859ZM110.811 57.4282V57.3802C110.79 56.7722 110.608 56.2922 110.267 55.9402C109.926 55.5775 109.483 55.3962 108.939 55.3962H108.795C108.251 55.3962 107.803 55.5775 107.451 55.9402C107.099 56.2922 106.875 56.7882 106.779 57.4282H110.811ZM122.156 62.4522C121.548 62.4522 120.993 62.3562 120.492 62.1642C119.991 61.9615 119.559 61.6842 119.196 61.3322C118.844 60.9695 118.567 60.5375 118.364 60.0362C118.172 59.5242 118.076 58.9642 118.076 58.3562V58.0362C118.076 57.4175 118.172 56.8522 118.364 56.3402C118.567 55.8175 118.844 55.3748 119.196 55.0122C119.548 54.6388 119.969 54.3508 120.46 54.1482C120.961 53.9455 121.511 53.8442 122.108 53.8442H122.268C122.823 53.8442 123.329 53.9402 123.788 54.1322C124.247 54.3135 124.641 54.5748 124.972 54.9162C125.303 55.2468 125.559 55.6522 125.74 56.1322C125.921 56.6015 126.012 57.1188 126.012 57.6842V58.7562H120.044V58.7722C120.097 59.3908 120.321 59.8815 120.716 60.2442C121.121 60.6068 121.644 60.7882 122.284 60.7882H122.444C122.945 60.7882 123.377 60.6868 123.74 60.4842C124.113 60.2815 124.423 60.0255 124.668 59.7162L125.756 60.9162C125.361 61.3962 124.865 61.7748 124.268 62.0522C123.671 62.3188 123.036 62.4522 122.364 62.4522H122.156ZM124.108 57.4282V57.3802C124.087 56.7722 123.905 56.2922 123.564 55.9402C123.223 55.5775 122.78 55.3962 122.236 55.3962H122.092C121.548 55.3962 121.1 55.5775 120.748 55.9402C120.396 56.2922 120.172 56.7882 120.076 57.4282H124.108ZM130.339 62.3882C129.592 62.3882 129.006 62.1855 128.579 61.7802C128.163 61.3748 127.955 60.7348 127.955 59.8602V55.5882H126.851V54.2442C127.011 54.1908 127.187 54.1428 127.379 54.1002C127.582 54.0575 127.774 54.0255 127.955 54.0042V52.0682L129.923 51.8282V53.9882H132.211V55.5882H129.907V59.4762C129.907 59.9242 129.992 60.2388 130.163 60.4202C130.334 60.5908 130.584 60.6762 130.915 60.6762C131.011 60.6762 131.118 60.6708 131.235 60.6602C131.363 60.6495 131.491 60.6388 131.619 60.6282C131.747 60.6068 131.87 60.5855 131.987 60.5642C132.115 60.5428 132.216 60.5215 132.291 60.5002V62.0682C132.163 62.1215 132.014 62.1695 131.843 62.2122C131.683 62.2548 131.512 62.2868 131.331 62.3082C131.16 62.3402 130.99 62.3615 130.819 62.3722C130.648 62.3828 130.488 62.3882 130.339 62.3882ZM141.673 62.4842C140.884 62.4842 140.11 62.3455 139.353 62.0682C138.606 61.7908 137.956 61.4122 137.401 60.9322L138.569 59.2682C138.996 59.6948 139.502 60.0148 140.089 60.2282C140.676 60.4415 141.241 60.5482 141.785 60.5482C142.382 60.5482 142.836 60.4362 143.145 60.2122C143.454 59.9882 143.609 59.6628 143.609 59.2362C143.609 58.9162 143.518 58.6602 143.337 58.4682C143.166 58.2655 142.926 58.0948 142.617 57.9562C142.318 57.8175 141.956 57.6895 141.529 57.5722C141.113 57.4442 140.654 57.2948 140.153 57.1242C139.822 57.0068 139.508 56.8682 139.209 56.7082C138.921 56.5482 138.665 56.3508 138.441 56.1162C138.217 55.8815 138.041 55.5988 137.913 55.2682C137.785 54.9375 137.721 54.5428 137.721 54.0842C137.721 53.6148 137.812 53.1882 137.993 52.8042C138.174 52.4202 138.425 52.0895 138.745 51.8122C139.076 51.5242 139.465 51.3055 139.913 51.1562C140.361 50.9962 140.852 50.9162 141.385 50.9162C142.142 50.9162 142.846 51.0388 143.497 51.2842C144.148 51.5188 144.75 51.8602 145.305 52.3082L144.169 53.9562C143.785 53.5828 143.337 53.3055 142.825 53.1242C142.313 52.9428 141.833 52.8522 141.385 52.8522C140.862 52.8522 140.462 52.9642 140.185 53.1882C139.918 53.4122 139.785 53.7108 139.785 54.0842C139.785 54.3402 139.854 54.5588 139.993 54.7402C140.132 54.9108 140.318 55.0602 140.553 55.1882C140.798 55.3055 141.081 55.4122 141.401 55.5082C141.732 55.6042 142.089 55.7108 142.473 55.8282C142.868 55.9455 143.257 56.0842 143.641 56.2442C144.036 56.4042 144.382 56.6122 144.681 56.8682C144.99 57.1135 145.241 57.4175 145.433 57.7802C145.625 58.1428 145.721 58.5908 145.721 59.1242C145.721 59.6362 145.625 60.1002 145.433 60.5162C145.252 60.9322 144.985 61.2842 144.633 61.5722C144.281 61.8602 143.854 62.0842 143.353 62.2442C142.862 62.4042 142.302 62.4842 141.673 62.4842ZM150.874 62.4362C150.276 62.4362 149.727 62.3348 149.226 62.1322C148.735 61.9295 148.314 61.6522 147.962 61.3002C147.61 60.9375 147.332 60.5055 147.13 60.0042C146.938 59.5028 146.842 58.9535 146.842 58.3562V57.9082C146.842 57.3108 146.938 56.7668 147.13 56.2762C147.332 55.7855 147.61 55.3588 147.962 54.9962C148.324 54.6335 148.746 54.3562 149.226 54.1642C149.716 53.9615 150.25 53.8602 150.826 53.8602H150.954C151.679 53.8602 152.335 54.0255 152.922 54.3562C153.519 54.6762 154.015 55.1508 154.41 55.7802L152.97 56.7402C152.5 55.8868 151.844 55.4602 151.002 55.4602H150.874C150.266 55.4602 149.786 55.6842 149.434 56.1322C149.082 56.5695 148.906 57.1828 148.906 57.9722V58.3242C148.906 59.0922 149.092 59.7002 149.466 60.1482C149.839 60.5962 150.335 60.8202 150.954 60.8202H151.098C151.887 60.8202 152.522 60.3882 153.002 59.5242L154.442 60.5482C154.036 61.1668 153.546 61.6362 152.97 61.9562C152.404 62.2762 151.754 62.4362 151.018 62.4362H150.874ZM156.877 52.6922C156.536 52.6922 156.259 52.5962 156.045 52.4042C155.832 52.2015 155.725 51.9455 155.725 51.6362C155.725 51.3162 155.832 51.0548 156.045 50.8522C156.259 50.6495 156.536 50.5482 156.877 50.5482C157.229 50.5482 157.512 50.6495 157.725 50.8522C157.949 51.0548 158.061 51.3162 158.061 51.6362C158.061 51.9455 157.949 52.2015 157.725 52.4042C157.512 52.5962 157.229 52.6922 156.877 52.6922ZM155.901 53.9882H157.885V62.3082H155.901V53.9882ZM163.656 62.4522C163.048 62.4522 162.493 62.3562 161.992 62.1642C161.491 61.9615 161.059 61.6842 160.696 61.3322C160.344 60.9695 160.067 60.5375 159.864 60.0362C159.672 59.5242 159.576 58.9642 159.576 58.3562V58.0362C159.576 57.4175 159.672 56.8522 159.864 56.3402C160.067 55.8175 160.344 55.3748 160.696 55.0122C161.048 54.6388 161.469 54.3508 161.96 54.1482C162.461 53.9455 163.011 53.8442 163.608 53.8442H163.768C164.323 53.8442 164.829 53.9402 165.288 54.1322C165.747 54.3135 166.141 54.5748 166.472 54.9162C166.803 55.2468 167.059 55.6522 167.24 56.1322C167.421 56.6015 167.512 57.1188 167.512 57.6842V58.7562H161.544V58.7722C161.597 59.3908 161.821 59.8815 162.216 60.2442C162.621 60.6068 163.144 60.7882 163.784 60.7882H163.944C164.445 60.7882 164.877 60.6868 165.24 60.4842C165.613 60.2815 165.923 60.0255 166.168 59.7162L167.256 60.9162C166.861 61.3962 166.365 61.7748 165.768 62.0522C165.171 62.3188 164.536 62.4522 163.864 62.4522H163.656ZM165.608 57.4282V57.3802C165.587 56.7722 165.405 56.2922 165.064 55.9402C164.723 55.5775 164.28 55.3962 163.736 55.3962H163.592C163.048 55.3962 162.6 55.5775 162.248 55.9402C161.896 56.2922 161.672 56.7882 161.576 57.4282H165.608ZM177.279 62.5002C176.927 62.5002 176.628 62.3882 176.383 62.1642C176.138 61.9295 176.015 61.6468 176.015 61.3162V61.2362C176.015 60.9162 176.138 60.6442 176.383 60.4202C176.628 60.1855 176.927 60.0682 177.279 60.0682C177.631 60.0682 177.93 60.1855 178.175 60.4202C178.431 60.6442 178.559 60.9162 178.559 61.2362V61.3162C178.559 61.6468 178.431 61.9295 178.175 62.1642C177.93 62.3882 177.631 62.5002 177.279 62.5002ZM169.951 62.5002C169.599 62.5002 169.3 62.3882 169.055 62.1642C168.81 61.9295 168.687 61.6468 168.687 61.3162V61.2362C168.687 60.9162 168.81 60.6442 169.055 60.4202C169.3 60.1855 169.599 60.0682 169.951 60.0682C170.303 60.0682 170.602 60.1855 170.847 60.4202C171.103 60.6442 171.231 60.9162 171.231 61.2362V61.3162C171.231 61.6468 171.103 61.9295 170.847 62.1642C170.602 62.3882 170.303 62.5002 169.951 62.5002ZM173.615 62.5002C173.263 62.5002 172.964 62.3882 172.719 62.1642C172.474 61.9295 172.351 61.6468 172.351 61.3162V61.2362C172.351 60.9162 172.474 60.6442 172.719 60.4202C172.964 60.1855 173.263 60.0682 173.615 60.0682C173.967 60.0682 174.266 60.1855 174.511 60.4202C174.767 60.6442 174.895 60.9162 174.895 61.2362V61.3162C174.895 61.6468 174.767 61.9295 174.511 62.1642C174.266 62.3882 173.967 62.5002 173.615 62.5002Z" fill="black"/>
<rect x="30" y="70.3082" width="38" height="20" rx="6" fill="#5CB21F" fill-opacity="0.35"/>
<path d="M36.162 75.5082H37.982V79.4982H41.818V75.5082H43.652V85.3082H41.818V81.1222H37.982V85.3082H36.162V75.5082ZM49.8987 85.4622C49.3107 85.4622 48.7787 85.3455 48.3027 85.1122C47.8267 84.8695 47.4207 84.5288 47.0847 84.0902C46.7487 83.6515 46.4874 83.1242 46.3007 82.5082C46.1234 81.8828 46.0347 81.1828 46.0347 80.4082C46.0347 79.6335 46.1234 78.9382 46.3007 78.3222C46.4874 77.6968 46.7487 77.1648 47.0847 76.7262C47.4207 76.2875 47.8267 75.9515 48.3027 75.7182C48.7787 75.4755 49.3107 75.3542 49.8987 75.3542C50.4867 75.3542 51.0187 75.4755 51.4947 75.7182C51.9707 75.9515 52.3767 76.2875 52.7127 76.7262C53.0487 77.1648 53.3054 77.6968 53.4827 78.3222C53.6694 78.9382 53.7627 79.6335 53.7627 80.4082C53.7627 81.1828 53.6694 81.8828 53.4827 82.5082C53.3054 83.1242 53.0487 83.6515 52.7127 84.0902C52.3767 84.5288 51.9707 84.8695 51.4947 85.1122C51.0187 85.3455 50.4867 85.4622 49.8987 85.4622ZM49.8987 83.8382C50.5614 83.8382 51.0654 83.5442 51.4107 82.9562C51.7654 82.3588 51.9427 81.5095 51.9427 80.4082C51.9427 79.3068 51.7654 78.4622 51.4107 77.8742C51.0654 77.2768 50.5614 76.9782 49.8987 76.9782C49.2361 76.9782 48.7274 77.2768 48.3727 77.8742C48.0181 78.4622 47.8407 79.3068 47.8407 80.4082C47.8407 81.5095 48.0181 82.3588 48.3727 82.9562C48.7274 83.5442 49.2361 83.8382 49.8987 83.8382ZM55.4417 83.9222C55.7124 83.7542 56.0157 83.5488 56.3517 83.3062C56.6877 83.0635 57.0331 82.7975 57.3877 82.5082C57.7424 82.2188 58.0877 81.9108 58.4237 81.5842C58.7691 81.2482 59.0724 80.9028 59.3337 80.5482C59.6044 80.1935 59.8191 79.8388 59.9777 79.4842C60.1457 79.1202 60.2297 78.7655 60.2297 78.4202C60.2297 77.9722 60.0991 77.6175 59.8377 77.3562C59.5857 77.0855 59.2404 76.9502 58.8017 76.9502C58.3537 76.9502 57.9757 77.1042 57.6677 77.4122C57.3691 77.7108 57.1684 78.1822 57.0657 78.8262L55.3577 78.4482C55.4324 77.9628 55.5631 77.5288 55.7497 77.1462C55.9457 76.7635 56.1931 76.4415 56.4917 76.1802C56.7997 75.9095 57.1497 75.7042 57.5417 75.5642C57.9337 75.4148 58.3584 75.3402 58.8157 75.3402C59.2637 75.3402 59.6837 75.4102 60.0757 75.5502C60.4677 75.6902 60.8084 75.8908 61.0977 76.1522C61.3871 76.4042 61.6157 76.7122 61.7837 77.0762C61.9517 77.4402 62.0357 77.8508 62.0357 78.3082C62.0357 78.8682 61.9097 79.4095 61.6577 79.9322C61.4151 80.4548 61.1024 80.9495 60.7197 81.4162C60.3464 81.8735 59.9264 82.2982 59.4597 82.6902C59.0024 83.0822 58.5591 83.4275 58.1297 83.7262H62.2738V85.3082H55.4417V83.9222Z" fill="#3C9000"/>
<rect x="74" y="70.3082" width="114" height="20" rx="6" fill="#5CB21F"/>
<path d="M85.138 85.4342C82.408 85.4342 80.602 83.4742 80.602 80.5342V80.2682C80.602 77.3702 82.478 75.3682 85.096 75.3682H85.222C86.734 75.3682 88.134 76.1662 88.876 77.4682L87.686 78.2662C87.182 77.3282 86.356 76.7402 85.222 76.7402H85.11C83.332 76.7402 82.142 78.1262 82.142 80.2682V80.5482C82.142 82.6762 83.332 84.0622 85.138 84.0622H85.278C86.384 84.0622 87.238 83.4602 87.756 82.5362L88.89 83.3482C88.148 84.6642 86.804 85.4342 85.25 85.4342H85.138ZM90.3615 85.3082V75.2282H91.7475V78.9802C92.3635 78.3082 93.2455 77.9022 94.2395 77.9022C95.8215 77.9022 96.7175 78.8962 96.7175 80.6462V85.3082H95.3315V80.9122C95.3315 79.7502 94.7995 79.1762 93.7635 79.1762C92.5455 79.1762 91.7475 79.9882 91.7475 81.2342V85.3082H90.3615ZM100.66 85.4342C99.2461 85.4342 98.2661 84.5802 98.2661 83.2782V83.1662C98.2661 81.5982 99.6101 80.8142 102.396 80.8142H103.026V80.4082C103.026 79.6242 102.494 79.1342 101.528 79.1342H101.444C100.716 79.1342 99.8901 79.4002 99.2321 79.8902L98.6161 78.8402C99.4981 78.2522 100.492 77.8882 101.542 77.8882H101.64C103.348 77.8882 104.37 78.8402 104.37 80.3802V83.9642C104.37 84.4122 104.496 84.9162 104.622 85.3082H103.264C103.18 85.0982 103.11 84.7482 103.068 84.4402C102.396 85.0842 101.556 85.4342 100.66 85.4342ZM100.884 84.2162C101.738 84.2162 102.508 83.8242 103.026 83.2082V81.8642H102.578C100.506 81.8642 99.6241 82.2422 99.6241 83.1102V83.1802C99.6241 83.8102 100.128 84.2162 100.884 84.2162ZM106.508 85.3082V78.0282H107.6C107.684 78.2942 107.782 78.7142 107.81 79.0362C108.412 78.3362 109.28 77.9022 110.288 77.9022H110.372C111.996 77.9022 112.864 78.8822 112.864 80.6462V85.3082H111.478V80.9122C111.478 79.7922 111.03 79.1762 109.994 79.1762H109.896C108.706 79.1762 107.894 79.9742 107.894 81.2622V85.3082H106.508ZM114.399 80.6462V80.4642C114.399 78.9662 115.617 77.9162 117.367 77.9162H117.647C118.207 77.9162 118.711 78.0422 119.117 78.2522C119.257 77.8462 119.425 77.4962 119.649 77.2162H120.937L120.055 78.9242C120.405 79.3442 120.615 79.8622 120.615 80.4642V80.6462C120.615 82.1442 119.369 83.1942 117.633 83.1942H117.423C117.227 83.1942 117.045 83.1802 116.877 83.1382V83.9782C117.073 83.9642 117.283 83.9502 117.507 83.9502H117.787C119.677 83.9502 120.923 84.7482 120.923 86.0222V86.1342C120.923 87.3942 119.663 88.2062 117.787 88.2062H117.437C115.547 88.2062 114.301 87.4082 114.301 86.1482V85.9942C114.301 85.1822 114.833 84.5382 115.701 84.2022V82.8022C114.889 82.3682 114.399 81.5982 114.399 80.6462ZM115.785 80.4782V80.6882C115.785 81.5282 116.471 82.0882 117.409 82.0882H117.591C118.543 82.0882 119.215 81.5142 119.215 80.6882V80.4782C119.215 79.6522 118.543 79.0782 117.591 79.0782H117.409C116.471 79.0782 115.785 79.6382 115.785 80.4782ZM115.701 86.0222V86.0782C115.701 86.7082 116.331 87.0862 117.479 87.0862H117.745C118.907 87.0862 119.537 86.6942 119.537 86.0782V86.0222C119.537 85.3922 118.893 85.0002 117.745 85.0002H117.479C116.345 85.0002 115.701 85.3922 115.701 86.0222ZM125.39 85.4202C123.304 85.4202 121.904 83.9922 121.904 81.8642V81.5982C121.904 79.4142 123.304 77.9302 125.376 77.9302H125.502C127.406 77.9302 128.694 79.2882 128.694 81.3042V82.1722H123.318C123.416 83.3902 124.242 84.1742 125.474 84.1742H125.614C126.538 84.1742 127.196 83.7262 127.602 83.1522L128.498 83.9502C127.812 84.8742 126.776 85.4202 125.544 85.4202H125.39ZM123.346 81.0942H127.364V81.0802C127.308 79.8902 126.552 79.1202 125.474 79.1202H125.334C124.242 79.1202 123.5 79.8762 123.346 81.0942ZM130.338 85.3082V78.0282H131.43C131.5 78.2522 131.584 78.6022 131.626 78.9102C132.172 78.2802 132.928 77.9022 133.81 77.9022H133.894C134.916 77.9022 135.588 78.3222 135.938 79.1202C136.47 78.3502 137.324 77.9022 138.304 77.9022H138.388C139.872 77.9022 140.656 78.8262 140.656 80.5342V85.3082H139.27V80.7722C139.27 79.7082 138.85 79.1762 137.982 79.1762H137.898C136.876 79.1762 136.19 79.8342 136.19 81.0802V85.3082H134.804V80.7722C134.804 79.7082 134.384 79.1762 133.488 79.1762H133.418C132.396 79.1762 131.724 79.8482 131.724 81.0802V85.3082H130.338ZM145.665 85.4202C143.579 85.4202 142.179 83.9922 142.179 81.8642V81.5982C142.179 79.4142 143.579 77.9302 145.651 77.9302H145.777C147.681 77.9302 148.969 79.2882 148.969 81.3042V82.1722H143.593C143.691 83.3902 144.517 84.1742 145.749 84.1742H145.889C146.813 84.1742 147.471 83.7262 147.877 83.1522L148.773 83.9502C148.087 84.8742 147.051 85.4202 145.819 85.4202H145.665ZM143.621 81.0942H147.639V81.0802C147.583 79.8902 146.827 79.1202 145.749 79.1202H145.609C144.517 79.1202 143.775 79.8762 143.621 81.0942ZM150.613 85.3082V78.0282H151.705C151.789 78.2942 151.887 78.7142 151.915 79.0362C152.517 78.3362 153.385 77.9022 154.393 77.9022H154.477C156.101 77.9022 156.969 78.8822 156.969 80.6462V85.3082H155.583V80.9122C155.583 79.7922 155.135 79.1762 154.099 79.1762H154.001C152.811 79.1762 151.999 79.9742 151.999 81.2622V85.3082H150.613ZM161.151 85.3642C159.863 85.3642 159.177 84.7062 159.177 83.2922V79.2182H158.211V78.2522C158.491 78.1542 158.869 78.0562 159.177 78.0282V76.3482L160.563 76.1662V78.0282H162.635V79.2182H160.549V83.0262C160.549 83.8522 160.885 84.1182 161.501 84.1182C161.823 84.1182 162.453 84.0482 162.747 83.9642V85.1122C162.369 85.2802 161.627 85.3642 161.151 85.3642ZM170.839 85.4482C170.321 85.4482 169.901 85.0562 169.901 84.5662V84.5102C169.901 84.0342 170.321 83.6422 170.839 83.6422C171.343 83.6422 171.777 84.0342 171.777 84.5102V84.5662C171.777 85.0562 171.343 85.4482 170.839 85.4482ZM164.707 85.4482C164.189 85.4482 163.769 85.0562 163.769 84.5662V84.5102C163.769 84.0342 164.189 83.6422 164.707 83.6422C165.211 83.6422 165.645 84.0342 165.645 84.5102V84.5662C165.645 85.0562 165.211 85.4482 164.707 85.4482ZM167.773 85.4482C167.255 85.4482 166.835 85.0562 166.835 84.5662V84.5102C166.835 84.0342 167.255 83.6422 167.773 83.6422C168.277 83.6422 168.711 84.0342 168.711 84.5102V84.5662C168.711 85.0562 168.277 85.4482 167.773 85.4482Z" fill="white"/>
<g clip-path="url(#clip2_110_131)">
<path d="M22 118.808C26.1421 118.808 29.5 115.45 29.5 111.308C29.5 107.166 26.1421 103.808 22 103.808C17.8579 103.808 14.5 107.166 14.5 111.308C14.5 115.45 17.8579 118.808 22 118.808Z" stroke="black" stroke-opacity="0.5" stroke-width="2" stroke-linecap="round" stroke-linejoin="round"/>
<path d="M22 106.808V111.308L19 112.808" stroke="black" stroke-opacity="0.5" stroke-width="2" stroke-linecap="round" stroke-linejoin="round"/>
</g>
<path d="M38.436 113.704C38.772 114.525 39.332 114.936 40.116 114.936C40.788 114.936 41.3153 114.661 41.698 114.11C42.0807 113.559 42.2813 112.789 42.3 111.8C42.3093 111.772 42.314 111.73 42.314 111.674C42.006 112.075 41.6187 112.379 41.152 112.584C40.6853 112.78 40.2093 112.878 39.724 112.878C39.2853 112.878 38.87 112.808 38.478 112.668C38.0953 112.528 37.7547 112.323 37.456 112.052C37.1573 111.781 36.9193 111.455 36.742 111.072C36.574 110.68 36.49 110.232 36.49 109.728C36.49 109.233 36.5787 108.781 36.756 108.37C36.9427 107.95 37.1947 107.591 37.512 107.292C37.8387 106.993 38.226 106.765 38.674 106.606C39.1313 106.438 39.6307 106.354 40.172 106.354C41.4133 106.354 42.37 106.779 43.042 107.628C43.7233 108.477 44.064 109.7 44.064 111.296C44.064 112.099 43.9707 112.822 43.784 113.466C43.6067 114.101 43.35 114.642 43.014 115.09C42.678 115.529 42.2673 115.869 41.782 116.112C41.2967 116.345 40.746 116.462 40.13 116.462C39.3087 116.462 38.604 116.257 38.016 115.846C37.4373 115.435 37.0267 114.861 36.784 114.124L38.436 113.704ZM42.188 109.812C42.0573 109.196 41.824 108.729 41.488 108.412C41.1613 108.095 40.7273 107.936 40.186 107.936C39.6167 107.936 39.15 108.109 38.786 108.454C38.4313 108.799 38.254 109.243 38.254 109.784C38.254 110.316 38.4173 110.736 38.744 111.044C39.08 111.343 39.5093 111.492 40.032 111.492C40.256 111.492 40.48 111.464 40.704 111.408C40.9373 111.343 41.1473 111.254 41.334 111.142C41.53 111.03 41.7027 110.895 41.852 110.736C42.0013 110.568 42.1133 110.377 42.188 110.162C42.1973 110.106 42.1973 110.05 42.188 109.994C42.188 109.929 42.188 109.868 42.188 109.812ZM49.3124 109.028H50.6844C50.7217 109.149 50.759 109.299 50.7964 109.476C50.8337 109.644 50.8617 109.807 50.8804 109.966C51.1604 109.63 51.4917 109.369 51.8744 109.182C52.257 108.986 52.6724 108.888 53.1204 108.888H53.1904C53.6944 108.888 54.1097 108.995 54.4364 109.21C54.7724 109.415 55.029 109.714 55.2064 110.106C55.4864 109.723 55.827 109.425 56.2284 109.21C56.639 108.995 57.087 108.888 57.5724 108.888H57.6424C58.3797 108.888 58.9444 109.117 59.3364 109.574C59.7284 110.031 59.9244 110.694 59.9244 111.562V116.308H58.1884V111.87C58.1884 111.357 58.095 110.983 57.9084 110.75C57.7217 110.517 57.4324 110.4 57.0404 110.4H56.9844C56.527 110.4 56.163 110.549 55.8924 110.848C55.6217 111.147 55.4864 111.585 55.4864 112.164V116.308H53.7504V111.87C53.7504 111.366 53.6524 110.997 53.4564 110.764C53.2697 110.521 52.9804 110.4 52.5884 110.4H52.5324C52.075 110.4 51.711 110.549 51.4404 110.848C51.179 111.147 51.0484 111.585 51.0484 112.164V116.308H49.3124V109.028ZM62.6074 107.894C62.3088 107.894 62.0661 107.81 61.8794 107.642C61.6928 107.465 61.5994 107.241 61.5994 106.97C61.5994 106.69 61.6928 106.461 61.8794 106.284C62.0661 106.107 62.3088 106.018 62.6074 106.018C62.9154 106.018 63.1628 106.107 63.3494 106.284C63.5454 106.461 63.6434 106.69 63.6434 106.97C63.6434 107.241 63.5454 107.465 63.3494 107.642C63.1628 107.81 62.9154 107.894 62.6074 107.894ZM61.7534 109.028H63.4894V116.308H61.7534V109.028ZM65.4588 109.028H66.8308C66.8775 109.168 66.9195 109.336 66.9568 109.532C66.9942 109.728 67.0222 109.905 67.0408 110.064C67.3395 109.7 67.7035 109.415 68.1328 109.21C68.5715 108.995 69.0428 108.888 69.5468 108.888H69.6308C70.4335 108.888 71.0448 109.126 71.4648 109.602C71.8942 110.078 72.1088 110.759 72.1088 111.646V116.308H70.3728V112.01C70.3728 110.937 69.9295 110.4 69.0428 110.4H68.9588C68.4268 110.4 67.9975 110.577 67.6708 110.932C67.3535 111.277 67.1948 111.744 67.1948 112.332V116.308H65.4588V109.028ZM76.2728 116.448C75.4701 116.448 74.8588 116.21 74.4388 115.734C74.0281 115.258 73.8228 114.577 73.8228 113.69V109.028H75.5588V113.326C75.5588 113.858 75.6614 114.259 75.8668 114.53C76.0721 114.801 76.4034 114.936 76.8608 114.936H76.9168C77.4488 114.936 77.8734 114.763 78.1908 114.418C78.5081 114.063 78.6668 113.592 78.6668 113.004V109.028H80.4028V116.308H79.0308C78.9841 116.177 78.9374 116.014 78.8908 115.818C78.8534 115.613 78.8301 115.431 78.8208 115.272C78.5221 115.636 78.1581 115.925 77.7288 116.14C77.3088 116.345 76.8468 116.448 76.3428 116.448H76.2728ZM84.695 116.378C84.0416 116.378 83.5283 116.201 83.155 115.846C82.791 115.491 82.609 114.931 82.609 114.166V110.428H81.643V109.252C81.783 109.205 81.937 109.163 82.105 109.126C82.2823 109.089 82.4503 109.061 82.609 109.042V107.348L84.331 107.138V109.028H86.333V110.428H84.317V113.83C84.317 114.222 84.3916 114.497 84.541 114.656C84.6903 114.805 84.9096 114.88 85.199 114.88C85.283 114.88 85.3763 114.875 85.479 114.866C85.591 114.857 85.703 114.847 85.815 114.838C85.927 114.819 86.0343 114.801 86.137 114.782C86.249 114.763 86.3376 114.745 86.403 114.726V116.098C86.291 116.145 86.1603 116.187 86.011 116.224C85.871 116.261 85.7216 116.289 85.563 116.308C85.4136 116.336 85.2643 116.355 85.115 116.364C84.9656 116.373 84.8256 116.378 84.695 116.378ZM90.7556 116.434C90.2236 116.434 89.7383 116.35 89.2996 116.182C88.861 116.005 88.483 115.762 88.1656 115.454C87.8576 115.137 87.615 114.759 87.4376 114.32C87.2696 113.872 87.1856 113.382 87.1856 112.85V112.57C87.1856 112.029 87.2696 111.534 87.4376 111.086C87.615 110.629 87.8576 110.241 88.1656 109.924C88.4736 109.597 88.8423 109.345 89.2716 109.168C89.7103 108.991 90.191 108.902 90.7136 108.902H90.8536C91.339 108.902 91.7823 108.986 92.1836 109.154C92.585 109.313 92.9303 109.541 93.2196 109.84C93.509 110.129 93.733 110.484 93.8916 110.904C94.0503 111.315 94.1296 111.767 94.1296 112.262V113.2H88.9076V113.214C88.9543 113.755 89.1503 114.185 89.4956 114.502C89.8503 114.819 90.3076 114.978 90.8676 114.978H91.0076C91.4463 114.978 91.8243 114.889 92.1416 114.712C92.4683 114.535 92.739 114.311 92.9536 114.04L93.9056 115.09C93.5603 115.51 93.1263 115.841 92.6036 116.084C92.081 116.317 91.5256 116.434 90.9376 116.434H90.7556ZM92.4636 112.038V111.996C92.445 111.464 92.2863 111.044 91.9876 110.736C91.689 110.419 91.3016 110.26 90.8256 110.26H90.6996C90.2236 110.26 89.8316 110.419 89.5236 110.736C89.2156 111.044 89.0196 111.478 88.9356 112.038H92.4636ZM98.2237 116.448C96.9263 116.448 95.8343 116.098 94.9477 115.398L95.8157 114.152C96.133 114.423 96.5017 114.637 96.9217 114.796C97.3417 114.945 97.7617 115.02 98.1817 115.02C98.947 115.02 99.3297 114.754 99.3297 114.222C99.3297 114.054 99.283 113.919 99.1897 113.816C99.0963 113.713 98.9563 113.629 98.7697 113.564C98.5923 113.489 98.373 113.419 98.1117 113.354C97.8597 113.279 97.5703 113.191 97.2437 113.088C96.9917 113.013 96.7443 112.929 96.5017 112.836C96.259 112.743 96.0443 112.621 95.8577 112.472C95.671 112.323 95.517 112.136 95.3957 111.912C95.2837 111.688 95.2277 111.408 95.2277 111.072C95.2277 110.4 95.461 109.868 95.9277 109.476C96.3943 109.084 97.0383 108.888 97.8597 108.888C98.3823 108.888 98.8863 108.972 99.3717 109.14C99.857 109.299 100.291 109.513 100.674 109.784L99.8477 111.016C99.5677 110.801 99.2457 110.629 98.8817 110.498C98.5177 110.367 98.1583 110.302 97.8037 110.302C97.141 110.302 96.8097 110.54 96.8097 111.016C96.8097 111.165 96.8563 111.291 96.9497 111.394C97.043 111.497 97.1643 111.581 97.3137 111.646C97.4723 111.711 97.6543 111.772 97.8597 111.828C98.065 111.875 98.2797 111.926 98.5037 111.982C98.793 112.047 99.087 112.131 99.3857 112.234C99.6843 112.327 99.9503 112.458 100.184 112.626C100.426 112.785 100.622 112.99 100.772 113.242C100.921 113.494 100.996 113.811 100.996 114.194C100.996 114.894 100.744 115.445 100.24 115.846C99.745 116.247 99.073 116.448 98.2237 116.448Z" fill="black" fill-opacity="0.5"/>
</g>
<defs>
<clipPath id="clip0_110_131">
<rect width="174" height="77" fill="white" transform="translate(13 43.3082)"/>
</clipPath>
<clipPath id="clip1_110_131">
<rect x="13" y="46.3082" width="7" height="49" rx="3.5" fill="white"/>
</clipPath>
<clipPath id="clip2_110_131">
<rect width="18" height="18" fill="white" transform="translate(13 102.308)"/>
</clipPath>
</defs>
</svg>
