<svg width="730" height="133" viewBox="0 0 730 133" fill="none" xmlns="http://www.w3.org/2000/svg">
<path fill-rule="evenodd" clip-rule="evenodd" d="M153.914 9.79138V130.96H229.594L231.634 106.481H181.045V9.79138H153.914ZM261.451 4.07974C258.867 1.35991 255.535 0 251.455 0C247.24 0 243.704 1.35991 240.848 4.07974C238.128 6.66358 236.768 9.92738 236.768 13.8711C236.768 17.9509 238.128 21.3507 240.848 24.0705C243.704 26.6543 247.24 27.9463 251.455 27.9463C255.535 27.9463 258.867 26.6543 261.451 24.0705C264.035 21.3507 265.326 17.9509 265.326 13.8711C265.326 9.92738 264.035 6.66358 261.451 4.07974ZM264.103 130.96V40.5935L237.992 41.8174V130.96H264.103ZM331.756 63.644L333.592 41.2054H307.89V16.9309L281.983 22.4386V41.2054H269.744V63.644H281.983V100.566C281.983 110.901 284.567 118.857 289.735 124.432C294.902 130.008 303.13 132.796 314.417 132.796C322.577 132.796 329.036 131.232 333.796 128.104L332.776 106.073C331.28 107.161 329.444 108.113 327.268 108.929C325.229 109.609 323.053 109.949 320.741 109.949C316.525 109.949 313.329 109.065 311.154 107.297C308.978 105.393 307.89 102.198 307.89 97.7099V63.644H331.756ZM363.722 92.4062H421.246C421.518 90.2304 421.722 87.9185 421.858 85.4706C422.13 82.8868 422.266 80.7109 422.266 78.9431C422.266 70.6476 420.498 63.576 416.962 57.7284C413.562 51.7448 408.735 47.189 402.479 44.0612C396.36 40.9334 389.356 39.3695 381.469 39.3695C372.901 39.3695 365.15 41.3414 358.214 45.2852C351.414 49.0929 346.043 54.4646 342.099 61.4002C338.291 68.1997 336.387 76.2912 336.387 85.6746C336.387 95.194 338.427 103.49 342.507 110.561C346.723 117.633 352.91 123.14 361.07 127.084C369.365 130.892 379.293 132.796 390.852 132.796C396.02 132.796 401.527 132.184 407.375 130.96C413.359 129.6 418.118 127.696 421.654 125.248L420.634 103.014C417.234 105.053 412.883 106.753 407.579 108.113C402.275 109.337 397.312 109.949 392.688 109.949C387.248 109.949 382.488 109.269 378.409 107.909C374.465 106.549 371.201 104.577 368.617 101.994C366.169 99.2738 364.538 96.078 363.722 92.4062ZM368.617 63.44C372.017 59.9042 376.369 58.1364 381.673 58.1364C386.704 58.1364 390.648 59.7003 393.504 62.8281C396.496 65.8199 397.991 69.8316 397.991 74.8633V76.2912V77.5151H362.702C363.382 71.6675 365.354 66.9758 368.617 63.44ZM487.486 65.4799L488.506 40.3895C487.826 39.9815 486.874 39.7095 485.65 39.5735C484.562 39.4375 483.542 39.3695 482.59 39.3695C478.103 39.3695 473.751 40.3215 469.535 42.2254C465.455 44.1292 461.444 47.121 457.5 51.2008V40.5935L431.39 41.8174V130.96H457.5V70.7836C460.356 68.6077 463.484 66.9078 466.883 65.6839C470.419 64.324 474.023 63.644 477.695 63.644C479.463 63.644 481.298 63.848 483.202 64.256C485.242 64.664 486.67 65.0719 487.486 65.4799ZM546.819 130.96H571.502V75.2713C571.502 62.8961 567.83 53.8526 560.486 48.141C553.279 42.2934 542.876 39.3695 529.276 39.3695C523.157 39.3695 517.173 39.9815 511.326 41.2054C505.614 42.2934 500.65 43.8573 496.434 45.8971L497.454 68.7437C500.582 66.8398 504.73 65.2759 509.898 64.052C515.201 62.8281 520.369 62.2161 525.401 62.2161C532.472 62.2161 537.64 63.372 540.904 65.6839C544.303 67.8597 546.003 71.5995 546.003 76.9032V81.7989C543.555 80.7109 540.36 79.827 536.416 79.147C532.472 78.4671 528.528 78.1271 524.585 78.1271C513.705 78.1271 505.07 80.507 498.678 85.2667C492.287 89.8904 489.091 96.7579 489.091 105.869C489.091 114.301 491.675 120.896 496.842 125.656C502.146 130.416 509.762 132.796 519.689 132.796C525.265 132.796 530.364 131.98 534.988 130.348C539.612 128.716 543.555 126.608 546.819 124.024V130.96ZM546.003 97.3019V110.153C544.099 111.649 541.516 112.941 538.252 114.029C534.988 114.981 531.792 115.457 528.664 115.457C524.177 115.457 520.777 114.709 518.465 113.213C516.153 111.581 514.997 108.997 514.997 105.461C514.997 101.654 516.357 98.8658 519.077 97.0979C521.797 95.194 525.741 94.2421 530.908 94.2421C533.492 94.2421 536.144 94.5141 538.864 95.0581C541.72 95.602 544.099 96.35 546.003 97.3019ZM638.956 63.644L640.792 41.2054H615.09V16.9309L589.183 22.4386V41.2054H576.944V63.644H589.183V100.566C589.183 110.901 591.767 118.857 596.935 124.432C602.102 130.008 610.33 132.796 621.617 132.796C629.777 132.796 636.236 131.232 640.996 128.104L639.976 106.073C638.48 107.161 636.644 108.113 634.468 108.929C632.429 109.609 630.253 109.949 627.941 109.949C623.725 109.949 620.529 109.065 618.353 107.297C616.178 105.393 615.09 102.198 615.09 97.7099V63.644H638.956ZM670.922 92.4062H728.446C728.718 90.2304 728.922 87.9185 729.058 85.4706C729.33 82.8868 729.466 80.7109 729.466 78.9431C729.466 70.6476 727.698 63.576 724.162 57.7284C720.763 51.7448 715.935 47.189 709.679 44.0612C703.56 40.9334 696.556 39.3695 688.669 39.3695C680.101 39.3695 672.35 41.3414 665.414 45.2852C658.614 49.0929 653.243 54.4646 649.299 61.4002C645.491 68.1997 643.587 76.2912 643.587 85.6746C643.587 95.194 645.627 103.49 649.707 110.561C653.923 117.633 660.11 123.14 668.27 127.084C676.565 130.892 686.493 132.796 698.052 132.796C703.22 132.796 708.727 132.184 714.575 130.96C720.559 129.6 725.318 127.696 728.854 125.248L727.834 103.014C724.434 105.053 720.083 106.753 714.779 108.113C709.475 109.337 704.512 109.949 699.888 109.949C694.448 109.949 689.688 109.269 685.609 107.909C681.665 106.549 678.401 104.577 675.817 101.994C673.369 99.2738 671.738 96.078 670.922 92.4062ZM675.817 63.44C679.217 59.9042 683.569 58.1364 688.872 58.1364C693.904 58.1364 697.848 59.7003 700.704 62.8281C703.696 65.8199 705.191 69.8316 705.191 74.8633V76.2912V77.5151H669.902C670.582 71.6675 672.554 66.9758 675.817 63.44ZM0 50.8692L78.8522 50.8663V9.9598H0V50.8692ZM119.992 50.8692H78.8522C35.2404 51.2354 0 86.5018 0 129.952H41.1403C41.1403 109.094 57.9621 92.1426 78.8522 91.7788V129.952H119.992V50.8692Z" fill="white"/>
</svg>
