<svg width="94" height="20" viewBox="0 0 94 20" fill="none" xmlns="http://www.w3.org/2000/svg">
<path fill-rule="evenodd" clip-rule="evenodd" d="M4.00987 4.65737C4.11109 5.09271 4.25124 5.54435 4.42931 6.00336C3.97452 6.04814 3.54337 6.11778 3.14245 6.21157C2.40415 6.3843 1.71915 6.65039 1.17518 7.03606C0.626306 7.42521 0.164818 7.98077 0.0351259 8.71648C-0.0945662 9.45219 0.149129 10.1321 0.531841 10.6856C0.911134 11.2341 1.46383 11.7185 2.09855 12.1334C2.21712 12.2109 2.34003 12.2869 2.46704 12.3614C3.70678 13.094 5.34244 13.6754 7.14493 13.9933C9.17774 14.3518 11.1116 14.1599 12.5814 13.7352C12.6618 13.7119 12.7412 13.6879 12.8195 13.663C12.6036 14.574 12.4568 15.4428 12.3877 16.2127C12.3202 16.9646 12.3215 17.678 12.4341 18.2628C12.5192 18.7052 12.7317 19.4007 13.3429 19.7516C13.4245 19.8008 13.5133 19.8438 13.6102 19.8791C14.347 20.1473 15.0232 19.8032 15.4432 19.4943C15.8999 19.1585 16.3399 18.6626 16.7474 18.0962C17.5709 16.9516 18.4021 15.3205 19.0745 13.4728C19.7468 11.6251 20.1582 9.84113 20.263 8.4349C20.3148 7.73899 20.2964 7.07621 20.1623 6.52533C20.0541 6.08049 19.8121 5.48794 19.256 5.16839C19.1709 5.11708 19.0782 5.07224 18.9772 5.03548C18.3175 4.7953 17.6866 5.01508 17.2314 5.29578C16.7666 5.5824 16.3284 6.02124 15.9268 6.53356C15.6452 6.89282 15.364 7.31103 15.0886 7.78158C14.6384 6.63365 13.926 5.34158 12.8735 4.08693C11.7402 2.7359 10.4725 1.64126 9.25985 0.930202C9.08536 0.827106 8.91197 0.731921 8.74026 0.645024C8.06369 0.302642 7.36796 0.0660623 6.70341 0.0117552C6.03287 -0.0430412 5.32234 0.085822 4.75021 0.566023L4.77003 0.589649C4.20619 1.0675 3.94639 1.75777 3.85556 2.42971C3.76318 3.11321 3.82889 3.87906 4.00987 4.65737ZM7.86154 2.45462C7.9855 2.51735 8.11212 2.58653 8.24094 2.66198C9.20773 3.23375 10.2955 4.15683 11.3065 5.36198C11.9457 6.124 12.4342 6.89688 12.798 7.62113C11.6105 6.98613 10.1176 6.48349 8.48833 6.19614C7.8481 6.08322 7.21628 6.00874 6.60425 5.97149C6.30711 5.35395 6.09445 4.75223 5.96654 4.20217C5.82338 3.58646 5.79553 3.07497 5.84636 2.69893C5.8983 2.31465 6.01636 2.16666 6.06968 2.12191C6.12049 2.07927 6.25101 2.00518 6.568 2.03109C6.89098 2.05748 7.32925 2.18525 7.86154 2.45462ZM7.4656 11.9978C5.85827 11.7144 4.4726 11.2074 3.48604 10.6296C3.3958 10.5763 3.30896 10.5223 3.22567 10.4678C2.72631 10.1414 2.39655 9.82566 2.21221 9.55908C2.03128 9.29744 2.03016 9.14733 2.04168 9.08199C2.0532 9.01666 2.10558 8.87598 2.36505 8.69201C2.62943 8.50457 3.04728 8.32066 3.62813 8.18478C4.14196 8.06457 4.74499 7.99089 5.41163 7.97341C5.74202 8.51188 6.12197 9.04323 6.5499 9.55334C7.56395 10.7622 8.76371 11.6091 9.95393 12.1338C9.17637 12.1835 8.33215 12.1507 7.4656 11.9978ZM8.16766 8.19161C9.77505 8.47511 11.1608 8.98211 12.1473 9.55988C12.2375 9.61325 12.3243 9.6672 12.4076 9.72162C12.907 10.048 13.2367 10.3638 13.4211 10.6304C13.4456 10.6658 13.4668 10.6993 13.4851 10.7307C13.3994 10.7495 13.3023 10.7651 13.1928 10.7755C12.7796 10.8148 12.2575 10.7734 11.6729 10.6169C10.5054 10.3044 9.17437 9.55577 8.0888 8.26171C8.06164 8.22933 8.03472 8.19687 8.00804 8.16433C8.0611 8.17311 8.11431 8.1822 8.16766 8.19161ZM17.5359 7.78996C17.8012 7.45151 18.0294 7.22937 18.2057 7.09705C18.2527 7.36285 18.2699 7.75302 18.2314 8.26904C18.1439 9.44445 17.7863 11.0437 17.1586 12.769C16.5308 14.4942 15.777 15.9492 15.0887 16.9059C14.8288 17.2671 14.5973 17.5306 14.406 17.7076C14.3696 17.3901 14.3678 16.9539 14.4167 16.409C14.5295 15.1526 14.8925 13.5157 15.4706 11.8719C15.5008 11.8075 15.5278 11.7397 15.5502 11.6686C15.6008 11.5605 15.636 11.4521 15.661 11.3511C16.2609 9.77193 16.9325 8.55979 17.5359 7.78996Z" fill="#5CE3C2"/>
<path d="M22.4867 16.1584V2.21025H27.9765C29.0704 2.21025 30.0157 2.37443 30.8125 2.70277C31.6228 3.01798 32.2441 3.5302 32.6762 4.23943C33.1219 4.93552 33.3447 5.85489 33.3447 6.99753C33.3447 8.08763 33.1016 9.00043 32.6154 9.73593C32.1293 10.4583 31.4608 11.0033 30.6099 11.3711C29.7726 11.7257 28.8138 11.903 27.7334 11.903H25.2012V16.1584H22.4867ZM25.2012 9.53892H27.6929C28.5842 9.53892 29.3 9.32878 29.8402 8.9085C30.3804 8.48822 30.6505 7.84466 30.6505 6.97783C30.6505 6.20293 30.4209 5.62504 29.9617 5.24416C29.516 4.85015 28.8138 4.65314 27.8549 4.65314H25.2012V9.53892Z" fill="#5CE3C2"/>
<path d="M37.2955 16.2766C36.6472 16.2766 36.0395 16.1715 35.4723 15.9614C34.9186 15.7381 34.4729 15.4032 34.1353 14.9566C33.7976 14.4969 33.6288 13.919 33.6288 13.223C33.6288 12.7107 33.7234 12.2773 33.9124 11.9227C34.115 11.555 34.3784 11.2529 34.7025 11.0165C35.0401 10.7669 35.425 10.5699 35.8572 10.4255C36.2893 10.281 36.735 10.1693 37.1942 10.0905C37.6668 9.9986 38.1935 9.92637 38.7743 9.87383C39.355 9.8213 39.9762 9.7622 40.638 9.69653C40.638 9.30251 40.5569 8.9676 40.3949 8.69179C40.2328 8.40285 40.0032 8.18614 39.7061 8.04167C39.409 7.88406 39.0444 7.80526 38.6122 7.80526C38.153 7.80526 37.7546 7.88406 37.417 8.04167C37.0794 8.18614 36.8228 8.43568 36.6472 8.79029H33.953C34.088 8.00226 34.3851 7.37841 34.8443 6.91872C35.317 6.45904 35.8909 6.1307 36.5662 5.93369C37.2414 5.72355 37.9369 5.61848 38.6527 5.61848C39.7466 5.61848 40.6244 5.80892 41.2862 6.1898C41.9479 6.57068 42.4274 7.12887 42.7245 7.86436C43.0216 8.58672 43.1702 9.47325 43.1702 10.524V16.1584H41.1794L40.6785 14.8975C40.3679 15.2653 40.01 15.5542 39.6048 15.7643C39.2132 15.9614 38.8148 16.0927 38.4096 16.1584C38.018 16.2372 37.6466 16.2766 37.2955 16.2766ZM37.8424 14.1883C38.3556 14.1883 38.8148 14.0964 39.2199 13.9125C39.6386 13.7286 39.9695 13.4659 40.2125 13.1245C40.4691 12.7698 40.6109 12.3496 40.638 11.8636V11.4696C40.3408 11.4959 40.0437 11.5287 39.7466 11.5681C39.4495 11.5944 39.1456 11.6272 38.835 11.6666C38.5379 11.6929 38.2408 11.7323 37.9437 11.7848C37.444 11.8505 37.0389 11.9884 36.7282 12.1985C36.4176 12.4087 36.2623 12.6976 36.2623 13.0653C36.2623 13.3543 36.3433 13.5841 36.5054 13.7549C36.681 13.9125 36.8903 14.0241 37.1334 14.0898C37.3765 14.1555 37.6128 14.1883 37.8424 14.1883Z" fill="#5CE3C2"/>
<path d="M44.4546 20V5.77608H46.5669L47.0678 7.11573C47.5 6.59038 47.9997 6.2095 48.5669 5.97309C49.1341 5.72355 49.7621 5.59878 50.4508 5.59878C51.5042 5.59878 52.3753 5.83519 53.0641 6.308C53.7528 6.78082 54.266 7.42438 54.6036 8.23867C54.9548 9.03984 55.1303 9.9395 55.1303 10.9377C55.1303 11.9621 54.948 12.8815 54.5834 13.6958C54.2323 14.4969 53.6988 15.1339 52.983 15.6067C52.2808 16.0664 51.3962 16.2963 50.3293 16.2963C49.8431 16.2963 49.3975 16.2437 48.9923 16.1387C48.5872 16.0336 48.2225 15.8891 47.8984 15.7052C47.5878 15.5082 47.3244 15.2915 47.1083 15.0551V20H44.4546ZM49.8836 13.9716C50.5454 13.9716 51.0653 13.8271 51.4435 13.5382C51.8216 13.2492 52.0917 12.8815 52.2538 12.4349C52.4158 11.9752 52.4969 11.4959 52.4969 10.9968C52.4969 10.4714 52.4091 9.9789 52.2335 9.51922C52.0715 9.0464 51.7946 8.66552 51.403 8.37658C51.0113 8.08763 50.4914 7.94316 49.8431 7.94316C49.2489 7.94316 48.7425 8.08763 48.3238 8.37658C47.9186 8.65239 47.608 9.02014 47.392 9.47982C47.1894 9.9395 47.0881 10.4386 47.0881 10.9771C47.0881 11.5156 47.1894 12.0146 47.392 12.4743C47.5945 12.9209 47.8984 13.2821 48.3035 13.5579C48.7222 13.8337 49.2489 13.9716 49.8836 13.9716Z" fill="#5CE3C2"/>
<path d="M56.2741 16.1584V5.77608H58.9278V16.1584H56.2741ZM57.6111 4.65314C57.1114 4.65314 56.7062 4.50867 56.3956 4.21973C56.0985 3.91765 55.9499 3.53677 55.9499 3.07708C55.9499 2.60427 56.1053 2.21682 56.4159 1.91474C56.74 1.61266 57.1451 1.46163 57.6313 1.46163C58.077 1.46163 58.4619 1.61266 58.786 1.91474C59.1236 2.20369 59.2924 2.58457 59.2924 3.05738C59.2924 3.5302 59.1304 3.91765 58.8063 4.21973C58.4956 4.50867 58.0972 4.65314 57.6111 4.65314Z" fill="#5CE3C2"/>
<path d="M63.7713 16.2766C62.988 16.2766 62.333 16.1452 61.8063 15.8825C61.2931 15.6067 60.9082 15.1996 60.6516 14.6611C60.4085 14.1226 60.287 13.4528 60.287 12.6516V2.21025H62.9407V12.1394C62.9407 12.494 62.9745 12.8027 63.042 13.0653C63.123 13.328 63.2581 13.5316 63.4471 13.6761C63.6497 13.8205 63.9333 13.8928 64.298 13.8928C64.5681 13.8928 64.8247 13.8534 65.0678 13.7746C65.3108 13.6826 65.5337 13.5579 65.7363 13.4003L66.3568 15.39C66.1403 15.793 65.7227 15.9679 65.2501 16.0993C64.7909 16.2175 64.298 16.2766 63.7713 16.2766Z" fill="#5CE3C2"/>
<path d="M70.1176 16.2766C69.3343 16.2766 68.6793 16.1452 68.1526 15.8825C67.6394 15.6067 67.2545 15.1996 66.9979 14.6611C66.7548 14.1226 66.6333 13.4528 66.6333 12.6516V2.21025H69.287V12.1394C69.287 12.494 69.3208 12.8027 69.3883 13.0653C69.4693 13.328 69.6044 13.5316 69.7935 13.6761C69.996 13.8205 70.2796 13.8928 70.6443 13.8928C70.9144 13.8928 71.171 13.8534 71.4141 13.7746C71.6572 13.6826 71.88 13.5579 72.0826 13.4003L72.9536 15.39C72.5215 15.7315 72.0691 15.9679 71.5964 16.0993C71.1372 16.2175 70.6443 16.2766 70.1176 16.2766Z" fill="#5CE3C2"/>
<path d="M77.8819 16.2963C76.788 16.2963 75.8427 16.0796 75.0459 15.6461C74.2491 15.2127 73.6278 14.602 73.1822 13.814C72.75 13.0128 72.5339 12.0672 72.5339 10.9771C72.5339 9.87383 72.7568 8.92163 73.2024 8.12047C73.6481 7.31931 74.2693 6.70202 75.0661 6.2686C75.8629 5.82205 76.7948 5.59878 77.8617 5.59878C78.9421 5.59878 79.8739 5.82205 80.6572 6.2686C81.454 6.71515 82.0685 7.34557 82.5007 8.15987C82.9328 8.96103 83.1489 9.91323 83.1489 11.0165C83.1489 12.0934 82.9328 13.0325 82.5007 13.8337C82.082 14.6217 81.481 15.2324 80.6977 15.6658C79.9144 16.0861 78.9758 16.2963 77.8819 16.2963ZM77.8414 13.9322C78.4896 13.9322 79.0096 13.7943 79.4012 13.5185C79.8064 13.2427 80.0968 12.8815 80.2723 12.4349C80.4479 11.9884 80.5357 11.509 80.5357 10.9968C80.5357 10.4846 80.4479 9.9986 80.2723 9.53892C80.0968 9.07924 79.8132 8.70492 79.4215 8.41598C79.0299 8.12704 78.5032 7.98256 77.8414 7.98256C77.2067 7.98256 76.6867 8.12704 76.2816 8.41598C75.8899 8.70492 75.5996 9.07924 75.4105 9.53892C75.2349 9.98547 75.1472 10.4714 75.1472 10.9968C75.1472 11.509 75.2349 11.9949 75.4105 12.4546C75.5996 12.9012 75.8899 13.2624 76.2816 13.5382C76.6867 13.8008 77.2067 13.9322 77.8414 13.9322Z" fill="#5CE3C2"/>
<path d="M84.0333 16.1584V5.77608H86.1658L86.6667 7.03693C86.9504 6.66918 87.2812 6.38681 87.6594 6.1898C88.051 5.97966 88.4494 5.82862 88.8546 5.73668C89.2597 5.64475 89.6379 5.59878 89.989 5.59878C91.0019 5.59878 91.7987 5.81549 92.3794 6.2489C92.9601 6.68232 93.372 7.26677 93.6151 8.00226C93.8717 8.72462 94 9.53235 94 10.4255V16.1584H91.3463V10.7998C91.3463 10.4452 91.3192 10.1037 91.2652 9.77533C91.2112 9.43385 91.1099 9.12521 90.9614 8.8494C90.8128 8.57359 90.6035 8.35688 90.3334 8.19927C90.0633 8.02853 89.7054 7.94316 89.2597 7.94316C88.6925 7.94316 88.2131 8.08763 87.8214 8.37658C87.4433 8.65239 87.1597 9.0267 86.9706 9.49952C86.7815 9.97234 86.687 10.5043 86.687 11.0953V16.1584H84.0333Z" fill="#5CE3C2"/>
</svg>
