<svg width="94" height="21" viewBox="0 0 94 21" fill="none" xmlns="http://www.w3.org/2000/svg">
<path fill-rule="evenodd" clip-rule="evenodd" d="M4.00987 5.15737C4.11109 5.59271 4.25124 6.04435 4.42931 6.50336C3.97452 6.54814 3.54337 6.61778 3.14245 6.71157C2.40415 6.8843 1.71915 7.15039 1.17518 7.53606C0.626306 7.92521 0.164818 8.48077 0.0351259 9.21648C-0.0945662 9.95219 0.149129 10.6321 0.531841 11.1856C0.911134 11.7341 1.46383 12.2185 2.09855 12.6334C2.21712 12.7109 2.34003 12.7869 2.46704 12.8614C3.70678 13.594 5.34244 14.1754 7.14493 14.4933C9.17774 14.8518 11.1116 14.6599 12.5814 14.2352C12.6618 14.2119 12.7412 14.1879 12.8195 14.163C12.6036 15.074 12.4568 15.9428 12.3877 16.7127C12.3202 17.4646 12.3215 18.1779 12.4341 18.7628C12.5192 19.2052 12.7317 19.9007 13.3429 20.2516C13.4245 20.3008 13.5133 20.3438 13.6102 20.3791C14.347 20.6473 15.0232 20.3032 15.4432 19.9943C15.8999 19.6585 16.3399 19.1626 16.7474 18.5962C17.5709 17.4516 18.4021 15.8205 19.0745 13.9728C19.7468 12.1251 20.1582 10.3411 20.263 8.9349C20.3148 8.23899 20.2964 7.57621 20.1623 7.02533C20.0541 6.58049 19.8121 5.98794 19.256 5.66839C19.1709 5.61708 19.0782 5.57224 18.9772 5.53548C18.3175 5.2953 17.6866 5.51508 17.2314 5.79578C16.7666 6.0824 16.3284 6.52124 15.9268 7.03356C15.6452 7.39282 15.364 7.81103 15.0886 8.28158C14.6384 7.13365 13.926 5.84158 12.8735 4.58693C11.7402 3.2359 10.4725 2.14126 9.25985 1.4302C9.08536 1.32711 8.91197 1.23192 8.74026 1.14502C8.06369 0.802642 7.36796 0.566062 6.70341 0.511755C6.03287 0.456959 5.32234 0.585822 4.75021 1.06602L4.77003 1.08965C4.20619 1.5675 3.94639 2.25777 3.85556 2.92971C3.76318 3.61321 3.82889 4.37906 4.00987 5.15737ZM7.86154 2.95462C7.9855 3.01735 8.11212 3.08653 8.24094 3.16198C9.20773 3.73375 10.2955 4.65683 11.3065 5.86198C11.9457 6.624 12.4342 7.39688 12.798 8.12113C11.6105 7.48613 10.1176 6.98349 8.48833 6.69614C7.8481 6.58322 7.21628 6.50874 6.60425 6.47149C6.30711 5.85395 6.09445 5.25223 5.96654 4.70217C5.82338 4.08646 5.79553 3.57497 5.84636 3.19893C5.8983 2.81465 6.01636 2.66666 6.06968 2.62191C6.12049 2.57927 6.25101 2.50518 6.568 2.53109C6.89098 2.55748 7.32925 2.68525 7.86154 2.95462ZM7.4656 12.4978C5.85827 12.2144 4.4726 11.7074 3.48604 11.1296C3.3958 11.0763 3.30896 11.0223 3.22567 10.9678C2.72631 10.6414 2.39655 10.3257 2.21221 10.0591C2.03128 9.79744 2.03016 9.64733 2.04168 9.58199C2.0532 9.51665 2.10558 9.37598 2.36505 9.19201C2.62943 9.00457 3.04728 8.82066 3.62813 8.68478C4.14196 8.56457 4.74499 8.49089 5.41163 8.47341C5.74202 9.01188 6.12197 9.54323 6.5499 10.0533C7.56395 11.2622 8.76371 12.1091 9.95393 12.6338C9.17637 12.6835 8.33215 12.6507 7.4656 12.4978ZM8.16766 8.69161C9.77505 8.97511 11.1608 9.48211 12.1473 10.0599C12.2375 10.1132 12.3243 10.1672 12.4076 10.2216C12.907 10.548 13.2367 10.8638 13.4211 11.1304C13.4456 11.1658 13.4668 11.1993 13.4851 11.2307C13.3994 11.2495 13.3023 11.2651 13.1928 11.2755C12.7796 11.3148 12.2575 11.2734 11.6729 11.1169C10.5054 10.8044 9.17437 10.0558 8.0888 8.76171C8.06164 8.72933 8.03472 8.69687 8.00804 8.66433C8.0611 8.67311 8.11431 8.68221 8.16766 8.69161ZM17.5359 8.28996C17.8012 7.95151 18.0294 7.72937 18.2057 7.59705C18.2527 7.86285 18.2699 8.25302 18.2314 8.76904C18.1439 9.94445 17.7863 11.5437 17.1586 13.269C16.5308 14.9942 15.777 16.4492 15.0887 17.4059C14.8288 17.7671 14.5973 18.0306 14.406 18.2076C14.3696 17.8901 14.3678 17.4539 14.4167 16.909C14.5295 15.6526 14.8925 14.0157 15.4706 12.3719C15.5008 12.3075 15.5278 12.2397 15.5502 12.1686C15.6008 12.0605 15.636 11.9521 15.661 11.8511C16.2609 10.2719 16.9325 9.05978 17.5359 8.28996Z" fill="#29947A"/>
<path d="M22.4867 16.6584V2.71025H27.9765C29.0704 2.71025 30.0157 2.87443 30.8125 3.20277C31.6228 3.51798 32.2441 4.0302 32.6762 4.73943C33.1219 5.43552 33.3447 6.35489 33.3447 7.49753C33.3447 8.58763 33.1016 9.50043 32.6154 10.2359C32.1293 10.9583 31.4608 11.5033 30.6099 11.8711C29.7726 12.2257 28.8138 12.403 27.7334 12.403H25.2012V16.6584H22.4867ZM25.2012 10.0389H27.6929C28.5842 10.0389 29.3 9.82878 29.8402 9.4085C30.3804 8.98822 30.6505 8.34466 30.6505 7.47783C30.6505 6.70293 30.4209 6.12504 29.9617 5.74416C29.516 5.35015 28.8138 5.15314 27.8549 5.15314H25.2012V10.0389Z" fill="#29947A"/>
<path d="M37.2955 16.7766C36.6472 16.7766 36.0395 16.6715 35.4723 16.4614C34.9186 16.2381 34.4729 15.9032 34.1353 15.4566C33.7976 14.9969 33.6288 14.419 33.6288 13.723C33.6288 13.2107 33.7234 12.7773 33.9124 12.4227C34.115 12.055 34.3784 11.7529 34.7025 11.5165C35.0401 11.2669 35.425 11.0699 35.8572 10.9255C36.2893 10.781 36.735 10.6693 37.1942 10.5905C37.6668 10.4986 38.1935 10.4264 38.7743 10.3738C39.355 10.3213 39.9762 10.2622 40.638 10.1965C40.638 9.80251 40.5569 9.4676 40.3949 9.19179C40.2328 8.90285 40.0032 8.68614 39.7061 8.54167C39.409 8.38406 39.0444 8.30526 38.6122 8.30526C38.153 8.30526 37.7546 8.38406 37.417 8.54167C37.0794 8.68614 36.8228 8.93568 36.6472 9.29029H33.953C34.088 8.50226 34.3851 7.87841 34.8443 7.41872C35.317 6.95904 35.8909 6.6307 36.5662 6.43369C37.2414 6.22355 37.9369 6.11848 38.6527 6.11848C39.7466 6.11848 40.6245 6.30892 41.2862 6.6898C41.9479 7.07068 42.4274 7.62887 42.7245 8.36436C43.0216 9.08672 43.1702 9.97325 43.1702 11.024V16.6584H41.1794L40.6785 15.3975C40.3679 15.7653 40.01 16.0542 39.6048 16.2643C39.2132 16.4614 38.8148 16.5927 38.4096 16.6584C38.018 16.7372 37.6466 16.7766 37.2955 16.7766ZM37.8424 14.6883C38.3556 14.6883 38.8148 14.5964 39.2199 14.4125C39.6386 14.2286 39.9695 13.9659 40.2125 13.6245C40.4691 13.2698 40.6109 12.8496 40.638 12.3636V11.9696C40.3408 11.9959 40.0437 12.0287 39.7466 12.0681C39.4495 12.0944 39.1456 12.1272 38.835 12.1666C38.5379 12.1929 38.2408 12.2323 37.9437 12.2848C37.444 12.3505 37.0389 12.4884 36.7282 12.6985C36.4176 12.9087 36.2623 13.1976 36.2623 13.5653C36.2623 13.8543 36.3433 14.0841 36.5054 14.2549C36.681 14.4125 36.8903 14.5241 37.1334 14.5898C37.3765 14.6555 37.6128 14.6883 37.8424 14.6883Z" fill="#29947A"/>
<path d="M44.4546 20.5V6.27608H46.5669L47.0678 7.61573C47.5 7.09038 47.9997 6.7095 48.5669 6.47309C49.1341 6.22355 49.7621 6.09878 50.4508 6.09878C51.5042 6.09878 52.3753 6.33519 53.0641 6.808C53.7528 7.28082 54.266 7.92438 54.6036 8.73867C54.9548 9.53983 55.1303 10.4395 55.1303 11.4377C55.1303 12.4621 54.948 13.3815 54.5834 14.1958C54.2323 14.9969 53.6988 15.6339 52.983 16.1067C52.2808 16.5664 51.3962 16.7963 50.3293 16.7963C49.8431 16.7963 49.3975 16.7437 48.9923 16.6387C48.5872 16.5336 48.2225 16.3891 47.8984 16.2052C47.5878 16.0082 47.3244 15.7915 47.1083 15.5551V20.5H44.4546ZM49.8836 14.4716C50.5454 14.4716 51.0653 14.3271 51.4435 14.0382C51.8216 13.7492 52.0917 13.3815 52.2538 12.9349C52.4158 12.4752 52.4969 11.9959 52.4969 11.4968C52.4969 10.9714 52.4091 10.4789 52.2335 10.0192C52.0715 9.5464 51.7946 9.16552 51.403 8.87658C51.0113 8.58763 50.4914 8.44316 49.8431 8.44316C49.2489 8.44316 48.7425 8.58763 48.3238 8.87658C47.9186 9.15239 47.608 9.52013 47.392 9.97982C47.1894 10.4395 47.0881 10.9386 47.0881 11.4771C47.0881 12.0156 47.1894 12.5146 47.392 12.9743C47.5945 13.4209 47.8984 13.7821 48.3035 14.0579C48.7222 14.3337 49.2489 14.4716 49.8836 14.4716Z" fill="#29947A"/>
<path d="M56.2741 16.6584V6.27608H58.9278V16.6584H56.2741ZM57.6111 5.15314C57.1114 5.15314 56.7062 5.00867 56.3956 4.71973C56.0985 4.41765 55.9499 4.03677 55.9499 3.57708C55.9499 3.10427 56.1053 2.71682 56.4159 2.41474C56.74 2.11266 57.1451 1.96163 57.6313 1.96163C58.077 1.96163 58.4619 2.11266 58.786 2.41474C59.1236 2.70369 59.2924 3.08457 59.2924 3.55738C59.2924 4.0302 59.1304 4.41765 58.8063 4.71973C58.4956 5.00867 58.0972 5.15314 57.6111 5.15314Z" fill="#29947A"/>
<path d="M63.7713 16.7766C62.988 16.7766 62.333 16.6452 61.8063 16.3825C61.2931 16.1067 60.9082 15.6996 60.6516 15.1611C60.4085 14.6226 60.287 13.9528 60.287 13.1516V2.71025H62.9407V12.6394C62.9407 12.994 62.9745 13.3027 63.042 13.5653C63.123 13.828 63.2581 14.0316 63.4471 14.1761C63.6497 14.3205 63.9333 14.3928 64.298 14.3928C64.5681 14.3928 64.8247 14.3534 65.0678 14.2746C65.3108 14.1826 65.5337 14.0579 65.7363 13.9003L66.3568 15.89C66.1403 16.293 65.7227 16.4679 65.2501 16.5993C64.7909 16.7175 64.298 16.7766 63.7713 16.7766Z" fill="#29947A"/>
<path d="M70.1176 16.7766C69.3343 16.7766 68.6793 16.6452 68.1526 16.3825C67.6394 16.1067 67.2545 15.6996 66.9979 15.1611C66.7548 14.6226 66.6333 13.9528 66.6333 13.1516V2.71025H69.287V12.6394C69.287 12.994 69.3208 13.3027 69.3883 13.5653C69.4693 13.828 69.6044 14.0316 69.7935 14.1761C69.996 14.3205 70.2796 14.3928 70.6443 14.3928C70.9144 14.3928 71.171 14.3534 71.4141 14.2746C71.6572 14.1826 71.88 14.0579 72.0826 13.9003L72.9536 15.89C72.5215 16.2315 72.0691 16.4679 71.5964 16.5993C71.1372 16.7175 70.6443 16.7766 70.1176 16.7766Z" fill="#29947A"/>
<path d="M77.8819 16.7963C76.788 16.7963 75.8427 16.5796 75.0459 16.1461C74.2491 15.7127 73.6278 15.102 73.1822 14.314C72.75 13.5128 72.5339 12.5672 72.5339 11.4771C72.5339 10.3738 72.7568 9.42163 73.2024 8.62047C73.6481 7.81931 74.2693 7.20202 75.0661 6.7686C75.8629 6.32205 76.7948 6.09878 77.8617 6.09878C78.9421 6.09878 79.8739 6.32205 80.6572 6.7686C81.454 7.21515 82.0685 7.84557 82.5007 8.65987C82.9328 9.46103 83.1489 10.4132 83.1489 11.5165C83.1489 12.5934 82.9328 13.5325 82.5007 14.3337C82.082 15.1217 81.481 15.7324 80.6977 16.1658C79.9144 16.5861 78.9758 16.7963 77.8819 16.7963ZM77.8414 14.4322C78.4896 14.4322 79.0096 14.2943 79.4012 14.0185C79.8064 13.7427 80.0968 13.3815 80.2723 12.9349C80.4479 12.4884 80.5357 12.009 80.5357 11.4968C80.5357 10.9846 80.4479 10.4986 80.2723 10.0389C80.0968 9.57924 79.8131 9.20492 79.4215 8.91598C79.0299 8.62704 78.5032 8.48256 77.8414 8.48256C77.2067 8.48256 76.6867 8.62704 76.2816 8.91598C75.8899 9.20492 75.5996 9.57924 75.4105 10.0389C75.2349 10.4855 75.1472 10.9714 75.1472 11.4968C75.1472 12.009 75.2349 12.4949 75.4105 12.9546C75.5996 13.4012 75.8899 13.7624 76.2816 14.0382C76.6867 14.3008 77.2067 14.4322 77.8414 14.4322Z" fill="#29947A"/>
<path d="M84.0333 16.6584V6.27608H86.1658L86.6667 7.53693C86.9504 7.16918 87.2812 6.88681 87.6594 6.6898C88.051 6.47966 88.4494 6.32862 88.8546 6.23668C89.2597 6.14475 89.6379 6.09878 89.989 6.09878C91.0019 6.09878 91.7987 6.31549 92.3794 6.7489C92.9601 7.18232 93.372 7.76677 93.6151 8.50226C93.8717 9.22462 94 10.0324 94 10.9255V16.6584H91.3463V11.2998C91.3463 10.9452 91.3192 10.6037 91.2652 10.2753C91.2112 9.93385 91.1099 9.62521 90.9614 9.3494C90.8128 9.07359 90.6035 8.85688 90.3334 8.69927C90.0633 8.52853 89.7054 8.44316 89.2597 8.44316C88.6925 8.44316 88.2131 8.58763 87.8214 8.87658C87.4433 9.15239 87.1597 9.5267 86.9706 9.99952C86.7815 10.4723 86.687 11.0043 86.687 11.5953V16.6584H84.0333Z" fill="#29947A"/>
</svg>
