<svg width="618" height="618" viewBox="0 0 618 618" fill="none" xmlns="http://www.w3.org/2000/svg">
<path fill-rule="evenodd" clip-rule="evenodd" d="M103.236 300.27C97.2483 304.514 96.0397 307.759 95.7739 309.267C95.5081 310.774 95.5339 314.237 99.7089 320.273C103.963 326.423 111.572 333.708 123.095 341.238C146.065 356.249 180.721 369.712 221.585 376.917C261.061 383.878 298.528 380.051 326.117 372.079C339.963 368.079 350.544 363.258 357.364 358.853C360.164 357.044 361.959 355.544 363.006 354.507C362.834 352.593 361.951 349.619 359.012 345.37C354.758 339.22 347.149 331.936 335.626 324.405C312.656 309.395 278 295.931 237.136 288.726C196.272 281.52 159.101 282.319 132.382 288.568C118.979 291.703 109.337 295.946 103.236 300.27ZM121.825 243.429C155.988 235.439 199.665 235.047 245.186 243.073C290.706 251.1 331.615 266.407 360.985 285.599C375.631 295.171 388.385 306.346 397.138 319C405.969 331.768 411.593 347.454 408.6 364.426C407.094 372.966 402.615 379.758 398.274 384.652C393.804 389.691 388.309 394.051 382.515 397.794C370.916 405.286 355.892 411.73 338.985 416.615C305.07 426.414 260.444 430.841 213.535 422.57C168.015 414.544 127.106 399.236 97.7363 380.044C83.0897 370.472 70.3357 359.298 61.5832 346.644C52.7518 333.876 47.1284 318.19 50.1211 301.217C53.1139 284.244 63.7631 271.428 76.4288 262.45C88.9814 253.553 104.788 247.414 121.825 243.429Z" fill="#C53424"/>
<path d="M317.966 201.749C339.033 188.813 379.89 89.342 377.3 41.9875C384.894 72.8736 415.805 135.984 440.313 135.984C464.82 135.984 482.904 74.1019 480.314 26.7474C486.191 50.6491 523.3 169.241 554.614 209.936L470.388 229.889L405.486 318.537L369.634 310.8L317.966 201.749Z" fill="#D9D9D9"/>
<path d="M317.966 201.749C339.033 188.813 379.89 89.342 377.3 41.9875C384.894 72.8736 415.805 135.984 440.313 135.984C464.82 135.984 482.904 74.1019 480.314 26.7474C486.191 50.6491 523.3 169.241 554.614 209.936L470.388 229.889L405.486 318.537L369.634 310.8L317.966 201.749Z" fill="url(#paint0_linear_3_35322)"/>
<path d="M360.231 136.188C369.451 112.331 377.207 85.8439 380.149 63.7222C385.014 76.306 391.611 90.2409 399.028 102.648C404.988 112.616 411.582 121.778 418.371 128.5C425.025 135.088 432.522 139.986 440.274 139.986C448.206 139.986 454.976 134.985 460.408 128.019C465.893 120.985 470.55 111.305 474.259 100.378C479.036 86.3047 482.372 69.7707 483.792 53.3261C488.867 69.7527 495.975 91.2572 504.174 113.464C517.046 148.331 532.816 185.53 547.843 207.437L469.504 225.995L468.055 226.338L467.172 227.543L403.82 314.075L372.416 307.298L322.988 202.974C325.276 201.018 327.567 198.463 329.824 195.541C333.105 191.293 336.523 185.988 339.959 179.941C346.833 167.843 353.916 152.527 360.231 136.188Z" stroke="#C12E00" stroke-opacity="0.39" stroke-width="8"/>
<path d="M330.052 222.288C351.544 211.715 384.627 152.193 382.572 114.618C389.893 139.042 417.31 184.719 458.479 162.552C475.233 153.531 489.145 138.629 487.09 101.054C492.755 119.955 506.719 177.712 537.947 209.592L470.267 259.193L407.802 333.873L371.583 328.235L330.052 222.288Z" fill="white" fill-opacity="0.6"/>
<path d="M368.696 180.377C376.456 165.221 382.825 148.073 385.414 132.276C390.156 141.654 396.774 151.462 405.134 159.036C411.976 165.235 420.137 170.073 429.526 171.786C438.978 173.512 449.331 172.004 460.346 166.073C469.149 161.333 477.514 154.875 483.325 144.433C486.339 139.018 488.602 132.649 489.931 125.067C492.424 133.164 495.484 142.394 499.206 151.943C506.838 171.52 517.402 192.875 531.938 209.058L467.926 255.972L467.529 256.263L467.212 256.641L406.213 329.569L374.478 324.629L335.036 224.01C340.234 220.613 345.598 215.213 350.731 208.763C357.018 200.864 363.245 191.023 368.696 180.377Z" stroke="white" stroke-opacity="0.19" stroke-width="8"/>
<path fill-rule="evenodd" clip-rule="evenodd" d="M370.411 357.214L368.023 359.577C366.557 361.027 364.357 362.826 361.233 364.844C353.678 369.724 342.413 374.794 328.097 378.931C299.535 387.184 260.966 391.103 220.347 383.941C178.766 376.609 143.148 362.862 119.194 347.208C107.19 339.364 98.7894 331.481 93.8434 324.33C88.9231 317.216 88.0718 311.876 88.7504 308.028C89.4289 304.18 92.0552 299.453 99.1118 294.452C106.205 289.424 116.796 284.889 130.758 281.624C158.622 275.107 196.794 274.371 238.374 281.702C279.955 289.034 315.573 302.781 339.527 318.435C351.531 326.279 359.932 334.163 364.878 341.313C368.306 346.27 369.797 350.403 370.11 353.867L370.411 357.214ZM363.006 354.507C361.959 355.544 360.164 357.044 357.364 358.853C350.544 363.258 339.963 368.079 326.117 372.079C298.528 380.051 261.061 383.878 221.585 376.917C180.721 369.712 146.065 356.249 123.095 341.238C111.572 333.708 103.963 326.423 99.7089 320.273C95.5339 314.237 95.5081 310.774 95.7739 309.267C96.0397 307.759 97.2483 304.514 103.236 300.27C109.337 295.946 118.979 291.703 132.382 288.568C159.101 282.319 196.272 281.52 237.136 288.726C278 295.931 312.656 309.395 335.626 324.405C347.149 331.936 354.758 339.22 359.012 345.37C361.951 349.619 362.834 352.593 363.006 354.507ZM243.947 250.097C199.143 242.196 156.466 242.651 123.449 250.374C106.971 254.228 92.113 260.075 80.553 268.269C68.9048 276.525 59.7162 287.871 57.1446 302.455C54.573 317.04 59.3268 330.844 67.4487 342.587C75.5091 354.24 87.4716 364.816 101.638 374.074C130.023 392.623 169.97 407.646 214.774 415.547C260.539 423.616 304.064 419.281 337.006 409.763C353.441 405.014 367.781 398.82 378.646 391.803C384.074 388.297 389.019 384.339 392.938 379.92C396.771 375.598 400.38 369.975 401.576 363.188C404.148 348.604 399.394 334.799 391.272 323.057C383.212 311.403 371.249 300.827 357.083 291.57C328.699 273.021 288.751 257.997 243.947 250.097ZM245.186 243.073C199.665 235.047 155.988 235.439 121.825 243.429C104.788 247.414 88.9814 253.553 76.4288 262.45C63.7631 271.428 53.1139 284.244 50.1211 301.217C47.1284 318.19 52.7518 333.875 61.5832 346.644C70.3357 359.298 83.0897 370.472 97.7363 380.044C127.106 399.236 168.015 414.544 213.535 422.57C260.444 430.841 305.07 426.414 338.985 416.615C355.892 411.73 370.916 405.286 382.515 397.794C388.309 394.051 393.804 389.691 398.274 384.652C402.615 379.758 407.094 372.966 408.6 364.426C411.593 347.454 405.969 331.768 397.138 319C388.385 306.346 375.631 295.171 360.985 285.599C331.615 266.407 290.706 251.1 245.186 243.073Z" fill="black" fill-opacity="0.2"/>
<path fill-rule="evenodd" clip-rule="evenodd" d="M197.905 140.614C190.59 140.017 187.578 141.726 186.406 142.71C185.175 143.742 182.451 147.156 181.252 156.021C180.079 164.697 180.722 176.497 184.026 190.701C190.618 219.044 206.968 253.331 232.999 284.354C258.049 314.208 288.764 331.477 315.704 338.687C329.195 342.297 341.243 343.253 350.778 342.346C356.04 341.845 360.071 340.832 363.053 339.686C363.047 338.683 363.01 337.536 362.928 336.241C362.461 328.833 360.66 318.4 356.825 305.829C349.179 280.768 333.972 248.913 307.898 217.84C281.226 186.053 252.239 162.772 227.754 150.385C215.471 144.171 205.358 141.223 197.905 140.614ZM248.682 109.021C279.987 124.859 313.699 152.634 343.41 188.042C373.72 224.165 391.808 261.632 401.164 292.302C405.83 307.595 408.456 321.63 409.194 333.325C409.561 339.149 409.49 344.862 408.774 350.11C408.131 354.822 406.673 361.534 402.577 367.513L400.784 370.13L398.355 372.168C386.407 382.194 370.775 387.01 355.168 388.495C339.277 390.006 321.64 388.263 303.72 383.468C267.836 373.865 228.82 351.493 197.487 314.152C167.134 277.979 147.241 237.179 138.874 201.202C134.698 183.247 133.181 165.579 135.313 149.811C137.419 134.233 143.463 118.228 156.608 107.198C169.81 96.1199 186.206 93.147 201.679 94.4111C217.015 95.664 233.069 101.122 248.682 109.021Z" fill="#C53424"/>
<path fill-rule="evenodd" clip-rule="evenodd" d="M370.214 344.575L365.611 346.343C361.944 347.753 357.268 348.893 351.453 349.446C340.941 350.446 328.033 349.369 313.86 345.576C285.545 337.998 253.552 319.944 227.535 288.938C200.839 257.123 183.944 221.834 177.079 192.316C173.641 177.535 172.864 164.832 174.185 155.066C175.528 145.133 178.777 139.801 181.821 137.246C184.815 134.735 189.865 132.802 198.485 133.506C207.151 134.214 218.179 137.548 230.974 144.021C256.508 156.94 286.222 180.912 313.362 213.256C340.087 245.106 355.737 277.824 363.646 303.748C367.609 316.738 369.537 327.725 370.046 335.793C370.136 337.215 370.178 338.498 370.185 339.644L370.214 344.575ZM393.771 366.705L395.453 365.293L396.694 363.482C399.87 358.847 401.124 353.421 401.708 349.146C402.342 344.493 402.422 339.275 402.076 333.774C401.38 322.738 398.881 309.258 394.343 294.383C385.249 264.576 367.605 227.972 337.947 192.627C308.703 157.775 275.718 130.692 245.462 115.384C230.362 107.745 215.221 102.673 201.099 101.519C186.869 100.357 172.537 103.142 161.192 112.661C149.886 122.148 144.348 136.211 142.381 150.766C140.396 165.443 141.778 182.208 145.82 199.587C153.915 234.389 173.263 274.187 202.95 309.567C233.317 345.757 271.056 367.344 305.564 376.578C322.803 381.192 339.58 382.813 354.492 381.395C369.212 379.995 383.289 375.5 393.771 366.705ZM400.784 370.13L402.577 367.513C406.673 361.534 408.131 354.821 408.774 350.11C409.49 344.862 409.561 339.149 409.194 333.325C408.456 321.63 405.83 307.595 401.164 292.302C391.808 261.632 373.72 224.165 343.41 188.042C313.699 152.634 279.987 124.859 248.682 109.021C233.069 101.122 217.015 95.664 201.679 94.4111C186.206 93.147 169.81 96.1199 156.608 107.198C143.463 118.228 137.419 134.233 135.313 149.811C133.181 165.579 134.698 183.247 138.874 201.202C147.241 237.179 167.134 277.979 197.487 314.152C228.82 351.493 267.836 373.865 303.72 383.468C321.64 388.263 339.277 390.006 355.168 388.495C370.775 387.01 386.407 382.194 398.355 372.168L400.784 370.13ZM363.053 339.686C360.071 340.832 356.04 341.845 350.778 342.346C341.243 343.253 329.195 342.297 315.704 338.687C288.764 331.477 258.049 314.208 232.999 284.354C206.968 253.331 190.618 219.044 184.026 190.701C180.722 176.497 180.079 164.697 181.252 156.021C182.451 147.156 185.175 143.742 186.406 142.71C187.578 141.726 190.59 140.017 197.905 140.614C205.358 141.223 215.471 144.171 227.754 150.385C252.239 162.772 281.226 186.053 307.898 217.84C333.972 248.913 349.179 280.768 356.825 305.829C360.66 318.4 362.461 328.833 362.928 336.241C363.01 337.536 363.047 338.683 363.053 339.686Z" fill="black" fill-opacity="0.2"/>
<path fill-rule="evenodd" clip-rule="evenodd" d="M454.201 281.231C439.434 300.066 422.897 330.379 408.44 370.1C393.996 409.786 384.947 449.735 382.224 480.069C381.05 493.152 381.141 503.518 382.084 510.908C386.599 506.827 392.136 500.594 398.38 491.917C414.263 469.846 431.658 436.279 446.144 396.478C460.631 356.676 468.882 319.782 470.902 292.665C471.826 280.26 471.356 271.007 470.169 264.869C466.034 267.869 460.582 273.092 454.201 281.231ZM447.825 224.073C458.329 217.597 472.888 212.527 488.111 218.067C505.113 224.256 511.965 240.366 514.809 252.056C517.902 264.764 518.327 280.055 517.131 296.109C514.714 328.551 505.22 369.707 489.706 412.333C474.191 454.958 455.009 492.589 436.007 518.994C426.604 532.061 416.45 543.501 405.912 551.249C396.219 558.375 380.615 566.312 363.613 560.124C345.218 553.429 339.324 534.659 337.123 523.221C334.526 509.727 334.496 493.271 336.053 475.925C339.197 440.894 349.323 396.986 364.879 354.245C380.423 311.538 399.034 276.462 417.72 252.628C426.987 240.809 437.1 230.685 447.825 224.073Z" fill="#C53424"/>
<path fill-rule="evenodd" clip-rule="evenodd" d="M376.736 525.354L375.009 511.81C373.98 503.738 373.919 492.821 375.121 479.432C377.908 448.375 387.123 407.816 401.739 367.66C416.363 327.481 433.218 296.435 448.589 276.83C455.234 268.354 461.148 262.602 465.98 259.096L475.044 252.52L477.171 263.514C478.521 270.494 478.965 280.432 478.014 293.195C475.933 321.131 467.491 358.681 452.846 398.917C438.201 439.153 420.531 473.345 404.169 496.082C397.728 505.033 391.863 511.682 386.866 516.199L376.736 525.354ZM381.41 501.558C381.245 495.525 381.482 488.34 382.224 480.069C384.947 449.735 393.996 409.786 408.44 370.1C422.897 330.379 439.434 300.066 454.201 281.231C457.692 276.778 460.905 273.198 463.777 270.377C466.154 268.042 468.296 266.228 470.169 264.869C470.62 267.202 470.968 269.985 471.175 273.22C471.512 278.496 471.475 284.975 470.902 292.665C468.882 319.782 460.631 356.676 446.144 396.478C431.658 436.279 414.263 469.846 398.38 491.917C394.899 496.754 391.639 500.831 388.652 504.199C386.281 506.874 384.082 509.101 382.084 510.908C381.737 508.189 381.506 505.069 381.41 501.558ZM485.672 224.769C473.367 220.29 461.18 224.218 451.568 230.144C441.831 236.147 432.321 245.564 423.333 257.028C405.249 280.093 386.958 314.437 371.581 356.684C356.195 398.955 346.235 442.255 343.156 476.563C341.627 493.598 341.708 509.309 344.126 521.873C346.279 533.062 351.555 548.146 366.052 553.422C379.583 558.347 392.543 552.225 401.687 545.502C411.378 538.378 421.026 527.603 430.219 514.828C448.74 489.09 467.647 452.085 483.004 409.894C498.36 367.702 507.663 327.202 510.019 295.579C511.188 279.884 510.723 265.428 507.879 253.742C505.196 242.714 499.203 229.694 485.672 224.769ZM488.111 218.067C472.888 212.527 458.329 217.597 447.825 224.073C437.1 230.685 426.987 240.809 417.72 252.628C399.034 276.462 380.423 311.538 364.879 354.245C349.323 396.986 339.197 440.895 336.053 475.925C334.496 493.271 334.526 509.727 337.123 523.221C339.324 534.659 345.218 553.429 363.613 560.124C380.615 566.312 396.219 558.375 405.912 551.249C416.45 543.501 426.604 532.061 436.007 518.994C455.009 492.589 474.191 454.958 489.706 412.333C505.22 369.707 514.714 328.551 517.131 296.109C518.327 280.055 517.902 264.764 514.809 252.056C511.965 240.366 505.113 224.256 488.111 218.067Z" fill="black" fill-opacity="0.2"/>
<mask id="mask0_3_35322" style="mask-type:alpha" maskUnits="userSpaceOnUse" x="377" y="205" width="87" height="86">
<path d="M463.126 247.856C463.126 271.489 443.968 290.647 420.335 290.647C396.702 290.647 377.544 271.489 377.544 247.856C377.544 224.223 396.702 205.065 420.335 205.065C443.968 205.065 463.126 224.223 463.126 247.856Z" fill="white"/>
</mask>
<g mask="url(#mask0_3_35322)">
<path d="M463.126 247.856C463.126 271.489 443.968 290.647 420.335 290.647C396.702 290.647 377.544 271.489 377.544 247.856C377.544 224.223 396.702 205.065 420.335 205.065C443.968 205.065 463.126 224.223 463.126 247.856Z" fill="white"/>
<path fill-rule="evenodd" clip-rule="evenodd" d="M420.335 283.515C440.029 283.515 455.994 267.55 455.994 247.856C455.994 228.162 440.029 212.197 420.335 212.197C400.641 212.197 384.676 228.162 384.676 247.856C384.676 267.55 400.641 283.515 420.335 283.515ZM420.335 290.647C443.968 290.647 463.126 271.489 463.126 247.856C463.126 224.223 443.968 205.065 420.335 205.065C396.702 205.065 377.544 224.223 377.544 247.856C377.544 271.489 396.702 290.647 420.335 290.647Z" fill="black" fill-opacity="0.44"/>
<path d="M439.948 247.856C439.948 258.688 431.167 267.469 420.335 267.469C409.503 267.469 400.722 258.688 400.722 247.856C400.722 237.024 409.503 228.243 420.335 228.243C431.167 228.243 439.948 237.024 439.948 247.856Z" fill="#222222"/>
<ellipse cx="424.469" cy="181.154" rx="188.132" ry="48.0591" transform="rotate(30 424.469 181.154)" fill="#670000"/>
<path d="M583.932 273.22C581.737 277.023 576.006 279.815 565.16 280.029C554.599 280.238 540.508 277.945 523.765 273.248C490.337 263.871 447.228 245.169 402.439 219.31C357.65 193.452 319.9 165.468 295.065 141.208C282.626 129.056 273.594 117.999 268.494 108.749C263.257 99.2498 262.81 92.8903 265.005 89.0879C267.201 85.2856 272.932 82.4928 283.777 82.2788C294.338 82.0704 308.429 84.3636 325.173 89.0605C358.6 98.4376 401.709 117.139 446.498 142.998C491.287 168.857 529.038 196.84 553.872 221.1C566.312 233.252 575.343 244.309 580.443 253.559C585.68 263.058 586.127 269.418 583.932 273.22Z" stroke="black" stroke-opacity="0.39" stroke-width="8"/>
</g>
<mask id="mask1_3_35322" style="mask-type:alpha" maskUnits="userSpaceOnUse" x="483" y="205" width="86" height="86">
<path d="M483.107 247.856C483.107 271.489 502.265 290.647 525.898 290.647C549.531 290.647 568.689 271.489 568.689 247.856C568.689 224.223 549.531 205.065 525.898 205.065C502.265 205.065 483.107 224.223 483.107 247.856Z" fill="white"/>
</mask>
<g mask="url(#mask1_3_35322)">
<path d="M483.107 247.856C483.107 271.489 502.265 290.647 525.898 290.647C549.531 290.647 568.689 271.489 568.689 247.856C568.689 224.223 549.531 205.065 525.898 205.065C502.265 205.065 483.107 224.223 483.107 247.856Z" fill="white"/>
<path fill-rule="evenodd" clip-rule="evenodd" d="M525.898 283.515C506.204 283.515 490.239 267.55 490.239 247.856C490.239 228.162 506.204 212.197 525.898 212.197C545.592 212.197 561.558 228.162 561.558 247.856C561.558 267.55 545.592 283.515 525.898 283.515ZM525.898 290.647C502.265 290.647 483.107 271.489 483.107 247.856C483.107 224.223 502.265 205.065 525.898 205.065C549.531 205.065 568.689 224.223 568.689 247.856C568.689 271.489 549.531 290.647 525.898 290.647Z" fill="black" fill-opacity="0.44"/>
<path d="M506.286 247.856C506.286 258.688 515.067 267.469 525.898 267.469C536.73 267.469 545.511 258.688 545.511 247.856C545.511 237.024 536.73 228.243 525.898 228.243C515.067 228.243 506.286 237.024 506.286 247.856Z" fill="#222222"/>
<ellipse cx="188.132" cy="48.0591" rx="188.132" ry="48.0591" transform="matrix(-0.866025 0.5 0.5 0.866025 660.663 45.4675)" fill="#670000"/>
<path d="M362.302 273.22C364.497 277.023 370.228 279.815 381.073 280.029C391.634 280.238 405.725 277.945 422.469 273.248C455.896 263.871 499.006 245.169 543.795 219.31C588.583 193.452 626.334 165.468 651.168 141.208C663.608 129.056 672.639 117.999 677.739 108.749C682.977 99.2498 683.424 92.8903 681.228 89.0879C679.033 85.2856 673.302 82.4928 662.456 82.2788C651.896 82.0704 637.805 84.3636 621.061 89.0605C587.634 98.4376 544.524 117.139 499.735 142.998C454.947 168.857 417.196 196.84 392.362 221.1C379.922 233.252 370.891 244.309 365.791 253.559C360.553 263.058 360.106 269.418 362.302 273.22Z" stroke="black" stroke-opacity="0.39" stroke-width="8"/>
</g>
<defs>
<linearGradient id="paint0_linear_3_35322" x1="423.719" y1="30.4021" x2="442.173" y2="316.168" gradientUnits="userSpaceOnUse">
<stop stop-color="#F67703"/>
<stop offset="1" stop-color="#FFD600"/>
</linearGradient>
</defs>
</svg>
