<svg width="156" height="25" viewBox="0 0 156 25" fill="none" xmlns="http://www.w3.org/2000/svg">
<path d="M12.549 0.982822C12.8483 0.0615112 14.1517 0.0615128 14.4511 0.982823L16.7555 8.07503C16.8893 8.48705 17.2733 8.76601 17.7065 8.76601H25.1637C26.1324 8.76601 26.5352 10.0056 25.7515 10.575L19.7185 14.9582C19.368 15.2129 19.2214 15.6643 19.3552 16.0763L21.6596 23.1685C21.959 24.0898 20.9045 24.8559 20.1208 24.2865L14.0878 19.9033C13.7373 19.6487 13.2627 19.6487 12.9122 19.9033L6.87923 24.2865C6.09552 24.8559 5.04104 24.0898 5.34039 23.1685L7.64479 16.0763C7.77866 15.6643 7.632 15.2129 7.28152 14.9582L1.24853 10.575C0.464814 10.0056 0.867591 8.76601 1.83631 8.76601H9.2935C9.72672 8.76601 10.1107 8.48705 10.2446 8.07503L12.549 0.982822Z" fill="#FFBE31"/>
<path d="M44.8802 0.982822C45.1795 0.0615112 46.4829 0.0615128 46.7823 0.982823L49.0867 8.07503C49.2206 8.48705 49.6045 8.76601 50.0377 8.76601H57.4949C58.4636 8.76601 58.8664 10.0056 58.0827 10.575L52.0497 14.9582C51.6992 15.2129 51.5526 15.6643 51.6864 16.0763L53.9908 23.1685C54.2902 24.0898 53.2357 24.8559 52.452 24.2865L46.419 19.9033C46.0685 19.6487 45.5939 19.6487 45.2434 19.9033L39.2105 24.2865C38.4267 24.8559 37.3723 24.0898 37.6716 23.1685L39.976 16.0763C40.1099 15.6643 39.9632 15.2129 39.6127 14.9582L33.5797 10.575C32.796 10.0056 33.1988 8.76601 34.1675 8.76601H41.6247C42.0579 8.76601 42.4419 8.48705 42.5758 8.07503L44.8802 0.982822Z" fill="#FFBE31"/>
<path d="M77.2114 0.982822C77.5107 0.0615112 78.8141 0.0615128 79.1135 0.982823L81.4179 8.07503C81.5518 8.48705 81.9357 8.76601 82.3689 8.76601H89.8261C90.7949 8.76601 91.1976 10.0056 90.4139 10.575L84.3809 14.9582C84.0304 15.2129 83.8838 15.6643 84.0177 16.0763L86.3221 23.1685C86.6214 24.0898 85.5669 24.8559 84.7832 24.2865L78.7502 19.9033C78.3997 19.6487 77.9251 19.6487 77.5747 19.9033L71.5417 24.2865C70.7579 24.8559 69.7035 24.0898 70.0028 23.1685L72.3072 16.0763C72.4411 15.6643 72.2944 15.2129 71.9439 14.9582L65.911 10.575C65.1272 10.0056 65.53 8.76601 66.4987 8.76601H73.9559C74.3892 8.76601 74.7731 8.48705 74.907 8.07503L77.2114 0.982822Z" fill="#FFBE31"/>
<path d="M109.543 0.982822C109.842 0.0615112 111.145 0.0615128 111.445 0.982823L113.749 8.07503C113.883 8.48705 114.267 8.76601 114.7 8.76601H122.157C123.126 8.76601 123.529 10.0056 122.745 10.575L116.712 14.9582C116.362 15.2129 116.215 15.6643 116.349 16.0763L118.653 23.1685C118.953 24.0898 117.898 24.8559 117.114 24.2865L111.081 19.9033C110.731 19.6487 110.256 19.6487 109.906 19.9033L103.873 24.2865C103.089 24.8559 102.035 24.0898 102.334 23.1685L104.638 16.0763C104.772 15.6643 104.626 15.2129 104.275 14.9582L98.2422 10.575C97.4585 10.0056 97.8613 8.76601 98.83 8.76601H106.287C106.72 8.76601 107.104 8.48705 107.238 8.07503L109.543 0.982822Z" fill="#FFBE31"/>
<path d="M141.715 0.690982C142.014 -0.230328 143.317 -0.230327 143.617 0.690984L145.921 7.78319C146.055 8.19521 146.439 8.47417 146.872 8.47417H154.329C155.298 8.47417 155.701 9.71378 154.917 10.2832L148.884 14.6664C148.534 14.9211 148.387 15.3724 148.521 15.7844L150.825 22.8766C151.125 23.798 150.07 24.5641 149.286 23.9947L143.253 19.6115C142.903 19.3568 142.428 19.3568 142.078 19.6115L136.045 23.9947C135.261 24.5641 134.207 23.798 134.506 22.8766L136.81 15.7844C136.944 15.3724 136.798 14.9211 136.447 14.6664L130.414 10.2832C129.63 9.71378 130.033 8.47417 131.002 8.47417H138.459C138.892 8.47417 139.276 8.19521 139.41 7.78319L141.715 0.690982Z" fill="#FFBE31"/>
</svg>
