<svg width="684" height="652" viewBox="0 0 684 652" fill="none" xmlns="http://www.w3.org/2000/svg">
<mask id="mask0_13_4621" style="mask-type:luminance" maskUnits="userSpaceOnUse" x="119" y="162" width="446" height="328">
<mask id="mask1_13_4621" style="mask-type:alpha" maskUnits="userSpaceOnUse" x="119" y="162" width="446" height="328">
<path d="M317.299 169.783L121.875 466.688C114.855 477.352 124.283 491.167 136.773 488.517L553.113 400.182C564.383 397.791 568.332 383.728 559.955 375.82L339.039 167.249C332.581 161.152 322.183 162.363 317.299 169.783Z" fill="white" stroke="white" stroke-width="0.714286"/>
</mask>
<g mask="url(#mask1_13_4621)">
<path d="M317.299 169.783L121.875 466.688C114.855 477.352 124.283 491.167 136.773 488.517L553.113 400.182C564.383 397.791 568.332 383.728 559.955 375.82L339.039 167.249C332.581 161.152 322.183 162.363 317.299 169.783Z" fill="white" stroke="white" stroke-width="0.714286"/>
<path d="M144.988 262.703L562.751 174.66L217.879 114.626L526.47 412.634L138.126 374.832L445.323 236.857L42.2099 89.8396L528.44 380.446L175.394 350.101L684.65 303.409L268.67 418.572L451.927 128.949" stroke="black" stroke-width="3.57143"/>
</g>
</mask>
<g mask="url(#mask0_13_4621)">
<path d="M317.299 169.783L121.875 466.688C114.855 477.352 124.283 491.167 136.773 488.517L553.113 400.182C564.383 397.791 568.332 383.728 559.955 375.82L339.039 167.249C332.581 161.152 322.183 162.363 317.299 169.783Z" fill="#FCCB37"/>
</g>
</svg>
