<svg width="441" height="433" viewBox="0 0 441 433" fill="none" xmlns="http://www.w3.org/2000/svg">
<mask id="mask0_13_4631" style="mask-type:luminance" maskUnits="userSpaceOnUse" x="183" y="32" width="225" height="368">
<path d="M213.701 37.9987L401.668 218.859C408.413 225.348 408.941 235.966 402.874 243.093L275.054 393.231C265.372 404.604 246.826 399.615 244.155 384.92L184.007 53.9213C180.935 37.0173 201.32 26.0863 213.701 37.9987Z" fill="white"/>
<mask id="mask1_13_4631" style="mask-type:alpha" maskUnits="userSpaceOnUse" x="183" y="32" width="225" height="368">
<path d="M213.701 37.9987L401.668 218.859C408.413 225.348 408.941 235.966 402.874 243.093L275.054 393.231C265.372 404.604 246.826 399.615 244.155 384.92L184.007 53.9213C180.935 37.0173 201.32 26.0863 213.701 37.9987Z" fill="white" stroke="white" stroke-width="0.88519"/>
</mask>
<g mask="url(#mask1_13_4631)">
<g clip-path="url(#clip0_13_4631)">
<path fill-rule="evenodd" clip-rule="evenodd" d="M455.939 174.431C459.219 176.829 463.818 176.114 466.215 172.834C469.811 167.915 476.711 166.842 481.63 170.438L479.46 173.406C476.18 171.009 471.581 171.723 469.184 175.004C465.588 179.922 458.688 180.995 453.769 177.399C450.489 175.002 445.89 175.717 443.492 178.997C439.897 183.915 432.996 184.988 428.077 181.393C424.797 178.995 420.198 179.71 417.801 182.99L414.832 180.82C418.428 175.901 425.328 174.829 430.247 178.424C433.527 180.822 438.126 180.107 440.524 176.827C444.119 171.908 451.02 170.836 455.939 174.431ZM431.207 214.341L409.405 217.73L408.84 214.097L430.642 210.708L431.207 214.341Z" fill="black"/>
</g>
<g clip-path="url(#clip1_13_4631)">
<path fill-rule="evenodd" clip-rule="evenodd" d="M399.523 251.611C402.803 254.009 407.402 253.294 409.8 250.014C413.395 245.095 420.296 244.022 425.215 247.618L423.045 250.586C419.765 248.189 415.166 248.903 412.768 252.184C409.173 257.102 402.272 258.175 397.353 254.58C394.073 252.182 389.475 252.897 387.077 256.177C383.481 261.096 376.581 262.168 371.662 258.573C368.382 256.175 363.783 256.89 361.385 260.17L358.417 258C362.012 253.081 368.913 252.009 373.832 255.604C377.112 258.002 381.711 257.287 384.108 254.007C387.704 249.088 394.605 248.016 399.523 251.611ZM374.791 291.521L352.99 294.91L352.425 291.277L374.227 287.888L374.791 291.521Z" fill="black"/>
</g>
<g clip-path="url(#clip2_13_4631)">
<path fill-rule="evenodd" clip-rule="evenodd" d="M343.108 328.791C346.388 331.189 350.987 330.474 353.384 327.194C356.98 322.275 363.881 321.203 368.799 324.798L366.629 327.766C363.349 325.369 358.751 326.084 356.353 329.364C352.758 334.282 345.857 335.355 340.938 331.76C337.658 329.362 333.059 330.077 330.661 333.357C327.066 338.276 320.165 339.348 315.247 335.753C311.966 333.355 307.368 334.07 304.97 337.35L302.002 335.18C305.597 330.262 312.498 329.189 317.416 332.784C320.697 335.182 325.295 334.467 327.693 331.187C331.288 326.268 338.189 325.196 343.108 328.791ZM318.376 368.701L296.574 372.09L296.01 368.457L317.811 365.068L318.376 368.701Z" fill="black"/>
</g>
<g clip-path="url(#clip3_13_4631)">
<path fill-rule="evenodd" clip-rule="evenodd" d="M286.692 405.971C289.973 408.369 294.571 407.654 296.969 404.374C300.564 399.455 307.465 398.383 312.384 401.978L310.214 404.946C306.934 402.549 302.335 403.264 299.938 406.544C296.342 411.463 289.441 412.535 284.523 408.94C281.242 406.542 276.644 407.257 274.246 410.537C270.651 415.456 263.75 416.528 258.831 412.933C255.551 410.535 250.952 411.25 248.555 414.53L245.586 412.36C249.182 407.442 256.082 406.369 261.001 409.964C264.281 412.362 268.88 411.647 271.278 408.367C274.873 403.448 281.774 402.376 286.692 405.971ZM261.961 445.881L240.159 449.27L239.594 445.637L261.396 442.249L261.961 445.881Z" fill="black"/>
</g>
<g clip-path="url(#clip4_13_4631)">
<path fill-rule="evenodd" clip-rule="evenodd" d="M417.349 146.223C420.629 148.621 425.228 147.906 427.625 144.626C431.221 139.707 438.121 138.635 443.04 142.23L440.87 145.199C437.59 142.801 432.991 143.516 430.594 146.796C426.998 151.715 420.098 152.787 415.179 149.192C411.899 146.794 407.3 147.509 404.902 150.789C401.307 155.708 394.406 156.78 389.487 153.185C386.207 150.787 381.609 151.502 379.211 154.782L376.242 152.612C379.838 147.694 386.739 146.621 391.657 150.216C394.937 152.614 399.536 151.899 401.934 148.619C405.529 143.7 412.43 142.628 417.349 146.223ZM392.617 186.133L370.815 189.522L370.25 185.889L392.052 182.501L392.617 186.133Z" fill="black"/>
</g>
<g clip-path="url(#clip5_13_4631)">
<path fill-rule="evenodd" clip-rule="evenodd" d="M360.933 223.403C364.213 225.801 368.812 225.086 371.21 221.806C374.805 216.887 381.706 215.815 386.625 219.41L384.455 222.379C381.175 219.981 376.576 220.696 374.178 223.976C370.583 228.895 363.682 229.967 358.763 226.372C355.483 223.974 350.885 224.689 348.487 227.969C344.891 232.888 337.991 233.96 333.072 230.365C329.792 227.967 325.193 228.682 322.795 231.962L319.827 229.792C323.422 224.874 330.323 223.801 335.242 227.397C338.522 229.794 343.121 229.079 345.518 225.799C349.114 220.881 356.015 219.808 360.933 223.403ZM336.201 263.313L314.4 266.702L313.835 263.069L335.637 259.681L336.201 263.313Z" fill="black"/>
</g>
<g clip-path="url(#clip6_13_4631)">
<path fill-rule="evenodd" clip-rule="evenodd" d="M304.518 300.583C307.798 302.981 312.397 302.266 314.794 298.986C318.39 294.067 325.291 292.995 330.209 296.59L328.039 299.559C324.759 297.161 320.161 297.876 317.763 301.156C314.167 306.075 307.267 307.147 302.348 303.552C299.068 301.154 294.469 301.869 292.071 305.149C288.476 310.068 281.575 311.14 276.657 307.545C273.376 305.147 268.778 305.862 266.38 309.142L263.411 306.973C267.007 302.054 273.908 300.981 278.826 304.577C282.107 306.974 286.705 306.259 289.103 302.979C292.698 298.061 299.599 296.988 304.518 300.583ZM279.786 340.493L257.984 343.882L257.419 340.249L279.221 336.861L279.786 340.493Z" fill="black"/>
</g>
<g clip-path="url(#clip7_13_4631)">
<path fill-rule="evenodd" clip-rule="evenodd" d="M248.102 377.763C251.383 380.161 255.981 379.446 258.379 376.166C261.974 371.247 268.875 370.175 273.794 373.77L271.624 376.739C268.344 374.341 263.745 375.056 261.347 378.336C257.752 383.255 250.851 384.327 245.933 380.732C242.652 378.334 238.054 379.049 235.656 382.329C232.061 387.248 225.16 388.321 220.241 384.725C216.961 382.327 212.362 383.042 209.965 386.322L206.996 384.153C210.591 379.234 217.492 378.161 222.411 381.757C225.691 384.154 230.29 383.44 232.688 380.159C236.283 375.241 243.184 374.168 248.102 377.763ZM223.37 417.674L201.569 421.062L201.004 417.429L222.806 414.041L223.37 417.674Z" fill="black"/>
</g>
<g clip-path="url(#clip8_13_4631)">
<path fill-rule="evenodd" clip-rule="evenodd" d="M435.174 40.8355C438.454 43.2331 443.053 42.5184 445.451 39.2382C449.046 34.3195 455.947 33.2469 460.866 36.8423L458.696 39.8107C455.416 37.4131 450.817 38.1279 448.419 41.408C444.824 46.3268 437.923 47.3993 433.004 43.8039C429.724 41.4063 425.125 42.1211 422.728 45.4012C419.132 50.32 412.232 51.3925 407.313 47.7971C404.033 45.3995 399.434 46.1143 397.036 49.3944L394.068 47.2246C397.663 42.3059 404.564 41.2333 409.483 44.8287C412.763 47.2263 417.362 46.5116 419.759 43.2314C423.355 38.3127 430.255 37.2401 435.174 40.8355ZM410.442 80.7456L388.64 84.1342L388.076 80.5014L409.878 77.1128L410.442 80.7456Z" fill="black"/>
</g>
<g clip-path="url(#clip9_13_4631)">
<path fill-rule="evenodd" clip-rule="evenodd" d="M378.759 118.016C382.039 120.413 386.638 119.698 389.035 116.418C392.631 111.5 399.531 110.427 404.45 114.022L402.28 116.991C399 114.593 394.401 115.308 392.004 118.588C388.408 123.507 381.508 124.579 376.589 120.984C373.309 118.586 368.71 119.301 366.312 122.581C362.717 127.5 355.816 128.573 350.897 124.977C347.617 122.58 343.018 123.294 340.621 126.575L337.652 124.405C341.248 119.486 348.148 118.413 353.067 122.009C356.347 124.406 360.946 123.692 363.344 120.412C366.939 115.493 373.84 114.42 378.759 118.016ZM354.027 157.926L332.225 161.314L331.66 157.682L353.462 154.293L354.027 157.926Z" fill="black"/>
</g>
<g clip-path="url(#clip10_13_4631)">
<path fill-rule="evenodd" clip-rule="evenodd" d="M322.343 195.196C325.623 197.593 330.222 196.879 332.62 193.598C336.215 188.68 343.116 187.607 348.035 191.203L345.865 194.171C342.585 191.773 337.986 192.488 335.588 195.768C331.993 200.687 325.092 201.76 320.173 198.164C316.893 195.767 312.294 196.481 309.897 199.761C306.301 204.68 299.401 205.753 294.482 202.157C291.202 199.76 286.603 200.475 284.205 203.755L281.237 201.585C284.832 196.666 291.733 195.594 296.652 199.189C299.932 201.587 304.531 200.872 306.928 197.592C310.524 192.673 317.424 191.6 322.343 195.196ZM297.611 235.106L275.81 238.494L275.245 234.862L297.047 231.473L297.611 235.106Z" fill="black"/>
</g>
<g clip-path="url(#clip11_13_4631)">
<path fill-rule="evenodd" clip-rule="evenodd" d="M265.928 272.376C269.208 274.773 273.807 274.059 276.204 270.778C279.8 265.86 286.701 264.787 291.619 268.383L289.449 271.351C286.169 268.953 281.571 269.668 279.173 272.948C275.577 277.867 268.677 278.94 263.758 275.344C260.478 272.947 255.879 273.661 253.481 276.942C249.886 281.86 242.985 282.933 238.067 279.337C234.786 276.94 230.188 277.655 227.79 280.935L224.822 278.765C228.417 273.846 235.318 272.774 240.236 276.369C243.517 278.767 248.115 278.052 250.513 274.772C254.108 269.853 261.009 268.78 265.928 272.376ZM241.196 312.286L219.394 315.674L218.829 312.042L240.631 308.653L241.196 312.286Z" fill="black"/>
</g>
<g clip-path="url(#clip12_13_4631)">
<path fill-rule="evenodd" clip-rule="evenodd" d="M209.512 349.556C212.793 351.954 217.391 351.239 219.789 347.959C223.384 343.04 230.285 341.967 235.204 345.563L233.034 348.531C229.754 346.133 225.155 346.848 222.757 350.128C219.162 355.047 212.261 356.12 207.343 352.524C204.062 350.127 199.464 350.841 197.066 354.122C193.471 359.04 186.57 360.113 181.651 356.518C178.371 354.12 173.772 354.835 171.375 358.115L168.406 355.945C172.001 351.026 178.902 349.954 183.821 353.549C187.101 355.947 191.7 355.232 194.098 351.952C197.693 347.033 204.594 345.96 209.512 349.556ZM184.78 389.466L162.979 392.855L162.414 389.222L184.216 385.833L184.78 389.466Z" fill="black"/>
</g>
<g clip-path="url(#clip13_13_4631)">
<path fill-rule="evenodd" clip-rule="evenodd" d="M396.584 12.6278C399.864 15.0255 404.463 14.3107 406.861 11.0306C410.456 6.11182 417.357 5.03924 422.276 8.63464L420.106 11.6031C416.826 9.20545 412.227 9.92023 409.829 13.2004C406.234 18.1191 399.333 19.1917 394.414 15.5963C391.134 13.1986 386.535 13.9134 384.138 17.1936C380.542 22.1123 373.642 23.1849 368.723 19.5895C365.443 17.1918 360.844 17.9066 358.446 21.1868L355.478 19.017C359.073 14.0982 365.974 13.0256 370.893 16.621C374.173 19.0187 378.772 18.3039 381.169 15.0238C384.765 10.105 391.665 9.03244 396.584 12.6278ZM371.852 52.5379L350.05 55.9265L349.486 52.2938L371.288 48.9051L371.852 52.5379Z" fill="black"/>
</g>
<g clip-path="url(#clip14_13_4631)">
<path fill-rule="evenodd" clip-rule="evenodd" d="M340.169 89.8078C343.449 92.2055 348.048 91.4907 350.445 88.2106C354.041 83.2918 360.941 82.2192 365.86 85.8146L363.69 88.7831C360.41 86.3854 355.811 87.1002 353.414 90.3804C349.818 95.2991 342.918 96.3717 337.999 92.7763C334.719 90.3786 330.12 91.0934 327.722 94.3736C324.127 99.2923 317.226 100.365 312.307 96.7695C309.027 94.3718 304.428 95.0866 302.031 98.3668L299.062 96.197C302.658 91.2782 309.558 90.2056 314.477 93.801C317.757 96.1987 322.356 95.4839 324.754 92.2038C328.349 87.285 335.25 86.2124 340.169 89.8078ZM315.437 129.718L293.635 133.107L293.07 129.474L314.872 126.085L315.437 129.718Z" fill="black"/>
</g>
<g clip-path="url(#clip15_13_4631)">
<path fill-rule="evenodd" clip-rule="evenodd" d="M283.753 166.988C287.033 169.386 291.632 168.671 294.03 165.391C297.625 160.472 304.526 159.399 309.445 162.995L307.275 165.963C303.995 163.566 299.396 164.28 296.998 167.56C293.403 172.479 286.502 173.552 281.583 169.956C278.303 167.559 273.704 168.274 271.307 171.554C267.711 176.472 260.811 177.545 255.892 173.95C252.612 171.552 248.013 172.267 245.615 175.547L242.647 173.377C246.242 168.458 253.143 167.386 258.062 170.981C261.342 173.379 265.941 172.664 268.338 169.384C271.934 164.465 278.834 163.393 283.753 166.988ZM259.021 206.898L237.22 210.287L236.655 206.654L258.457 203.265L259.021 206.898Z" fill="black"/>
</g>
<g clip-path="url(#clip16_13_4631)">
<path fill-rule="evenodd" clip-rule="evenodd" d="M227.338 244.168C230.618 246.566 235.217 245.851 237.614 242.571C241.21 237.652 248.11 236.579 253.029 240.175L250.859 243.143C247.579 240.746 242.98 241.46 240.583 244.741C236.987 249.659 230.087 250.732 225.168 247.136C221.888 244.739 217.289 245.454 214.891 248.734C211.296 253.652 204.395 254.725 199.477 251.13C196.196 248.732 191.598 249.447 189.2 252.727L186.231 250.557C189.827 245.638 196.728 244.566 201.646 248.161C204.926 250.559 209.525 249.844 211.923 246.564C215.518 241.645 222.419 240.573 227.338 244.168ZM202.606 284.078L180.804 287.467L180.239 283.834L202.041 280.445L202.606 284.078Z" fill="black"/>
</g>
<g clip-path="url(#clip17_13_4631)">
<path fill-rule="evenodd" clip-rule="evenodd" d="M170.922 321.348C174.202 323.746 178.801 323.031 181.199 319.751C184.794 314.832 191.695 313.76 196.614 317.355L194.444 320.323C191.164 317.926 186.565 318.641 184.167 321.921C180.572 326.839 173.671 327.912 168.752 324.317C165.472 321.919 160.874 322.634 158.476 325.914C154.88 330.833 147.98 331.905 143.061 328.31C139.781 325.912 135.182 326.627 132.784 329.907L129.816 327.737C133.411 322.818 140.312 321.746 145.231 325.341C148.511 327.739 153.11 327.024 155.507 323.744C159.103 318.825 166.004 317.753 170.922 321.348ZM146.19 361.258L124.389 364.647L123.824 361.014L145.626 357.625L146.19 361.258Z" fill="black"/>
</g>
<g clip-path="url(#clip18_13_4631)">
<path fill-rule="evenodd" clip-rule="evenodd" d="M357.994 -15.58C361.274 -13.1824 365.873 -13.8972 368.271 -17.1773C371.866 -22.0961 378.767 -23.1686 383.685 -19.5732L381.516 -16.6048C378.236 -19.0024 373.637 -18.2877 371.239 -15.0075C367.644 -10.0888 360.743 -9.01618 355.824 -12.6116C352.544 -15.0092 347.945 -14.2945 345.548 -11.0143C341.952 -6.09556 335.052 -5.02298 330.133 -8.61838C326.853 -11.016 322.254 -10.3013 319.856 -7.0211L316.888 -9.19093C320.483 -14.1097 327.384 -15.1822 332.303 -11.5868C335.583 -9.18919 340.182 -9.90397 342.579 -13.1841C346.175 -18.1029 353.075 -19.1754 357.994 -15.58ZM333.262 24.33L311.46 27.7187L310.896 24.0859L332.697 20.6973L333.262 24.33Z" fill="black"/>
</g>
<g clip-path="url(#clip19_13_4631)">
<path fill-rule="evenodd" clip-rule="evenodd" d="M301.579 61.6C304.859 63.9977 309.457 63.2829 311.855 60.0027C315.451 55.084 322.351 54.0114 327.27 57.6068L325.1 60.5753C321.82 58.1776 317.221 58.8924 314.824 62.1726C311.228 67.0913 304.327 68.1639 299.409 64.5685C296.129 62.1708 291.53 62.8856 289.132 66.1658C285.537 71.0845 278.636 72.1571 273.717 68.5617C270.437 66.164 265.838 66.8788 263.441 70.159L260.472 67.9891C264.068 63.0704 270.968 61.9978 275.887 65.5932C279.167 67.9909 283.766 67.2761 286.164 63.9959C289.759 59.0772 296.66 58.0046 301.579 61.6ZM276.847 101.51L255.045 104.899L254.48 101.266L276.282 97.8773L276.847 101.51Z" fill="black"/>
</g>
<g clip-path="url(#clip20_13_4631)">
<path fill-rule="evenodd" clip-rule="evenodd" d="M245.163 138.78C248.443 141.178 253.042 140.463 255.44 137.183C259.035 132.264 265.936 131.192 270.855 134.787L268.685 137.755C265.405 135.358 260.806 136.073 258.408 139.353C254.813 144.271 247.912 145.344 242.993 141.749C239.713 139.351 235.114 140.066 232.717 143.346C229.121 148.265 222.221 149.337 217.302 145.742C214.022 143.344 209.423 144.059 207.025 147.339L204.057 145.169C207.652 140.25 214.553 139.178 219.472 142.773C222.752 145.171 227.351 144.456 229.748 141.176C233.344 136.257 240.244 135.185 245.163 138.78ZM220.431 178.69L198.629 182.079L198.065 178.446L219.867 175.057L220.431 178.69Z" fill="black"/>
</g>
<g clip-path="url(#clip21_13_4631)">
<path fill-rule="evenodd" clip-rule="evenodd" d="M188.748 215.96C192.028 218.358 196.627 217.643 199.024 214.363C202.62 209.444 209.52 208.372 214.439 211.967L212.269 214.935C208.989 212.538 204.39 213.253 201.993 216.533C198.397 221.451 191.497 222.524 186.578 218.929C183.298 216.531 178.699 217.246 176.301 220.526C172.706 225.445 165.805 226.517 160.886 222.922C157.606 220.524 153.008 221.239 150.61 224.519L147.641 222.349C151.237 217.431 158.138 216.358 163.056 219.953C166.336 222.351 170.935 221.636 173.333 218.356C176.928 213.437 183.829 212.365 188.748 215.96ZM164.016 255.87L142.214 259.259L141.649 255.626L163.451 252.237L164.016 255.87Z" fill="black"/>
</g>
<g clip-path="url(#clip22_13_4631)">
<path fill-rule="evenodd" clip-rule="evenodd" d="M262.988 33.3925C266.269 35.7901 270.867 35.0754 273.265 31.7952C276.86 26.8765 283.761 25.8039 288.68 29.3993L286.51 32.3678C283.23 29.9701 278.631 30.6849 276.234 33.965C272.638 38.8838 265.737 39.9564 260.819 36.361C257.539 33.9633 252.94 34.6781 250.542 37.9582C246.947 42.877 240.046 43.9496 235.127 40.3542C231.847 37.9565 227.248 38.6713 224.851 41.9514L221.882 39.7816C225.478 34.8629 232.378 33.7903 237.297 37.3857C240.577 39.7833 245.176 39.0686 247.574 35.7884C251.169 30.8697 258.07 29.7971 262.988 33.3925ZM238.257 73.3026L216.455 76.6912L215.89 73.0584L237.692 69.6698L238.257 73.3026Z" fill="black"/>
</g>
<g clip-path="url(#clip23_13_4631)">
<path fill-rule="evenodd" clip-rule="evenodd" d="M206.573 110.573C209.853 112.97 214.452 112.255 216.85 108.975C220.445 104.057 227.346 102.984 232.264 106.579L230.095 109.548C226.815 107.15 222.216 107.865 219.818 111.145C216.223 116.064 209.322 117.136 204.403 113.541C201.123 111.143 196.524 111.858 194.127 115.138C190.531 120.057 183.631 121.13 178.712 117.534C175.432 115.137 170.833 115.851 168.435 119.131L165.467 116.962C169.062 112.043 175.963 110.97 180.882 114.566C184.162 116.963 188.761 116.249 191.158 112.968C194.754 108.05 201.654 106.977 206.573 110.573ZM181.841 150.483L160.039 153.871L159.475 150.238L181.276 146.85L181.841 150.483Z" fill="black"/>
</g>
<g clip-path="url(#clip24_13_4631)">
<path fill-rule="evenodd" clip-rule="evenodd" d="M224.399 5.1846C227.679 7.58226 232.277 6.86748 234.675 3.58733C238.271 -1.33142 245.171 -2.40399 250.09 1.19141L247.92 4.15987C244.64 1.76221 240.041 2.477 237.644 5.75715C234.048 10.6759 227.147 11.7485 222.229 8.15307C218.949 5.75541 214.35 6.47019 211.952 9.75035C208.357 14.6691 201.456 15.7417 196.537 12.1463C193.257 9.74861 188.658 10.4634 186.261 13.7435L183.292 11.5737C186.888 6.65498 193.788 5.5824 198.707 9.1778C201.987 11.5755 206.586 10.8607 208.984 7.58052C212.579 2.66178 219.48 1.5892 224.399 5.1846ZM199.667 45.0947L177.865 48.4833L177.3 44.8505L199.102 41.4619L199.667 45.0947Z" fill="black"/>
</g>
<g clip-path="url(#clip25_13_4631)">
<path fill-rule="evenodd" clip-rule="evenodd" d="M167.983 82.3648C171.263 84.7624 175.862 84.0477 178.26 80.7675C181.855 75.8488 188.756 74.7762 193.675 78.3716L191.505 81.34C188.225 78.9424 183.626 79.6572 181.228 82.9373C177.633 87.8561 170.732 88.9286 165.813 85.3332C162.533 82.9356 157.934 83.6504 155.537 86.9305C151.941 91.8493 145.041 92.9218 140.122 89.3264C136.842 86.9288 132.243 87.6436 129.845 90.9237L126.877 88.7539C130.472 83.8352 137.373 82.7626 142.292 86.358C145.572 88.7556 150.171 88.0409 152.568 84.7607C156.164 79.842 163.064 78.7694 167.983 82.3648ZM143.251 122.275L121.449 125.663L120.885 122.031L142.686 118.642L143.251 122.275Z" fill="black"/>
</g>
<g clip-path="url(#clip26_13_4631)">
<path fill-rule="evenodd" clip-rule="evenodd" d="M185.808 -23.023C189.089 -20.6254 193.687 -21.3402 196.085 -24.6203C199.68 -29.5391 206.581 -30.6116 211.5 -27.0162L209.33 -24.0478C206.05 -26.4454 201.451 -25.7306 199.054 -22.4505C195.458 -17.5317 188.557 -16.4592 183.639 -20.0546C180.359 -22.4522 175.76 -21.7374 173.362 -18.4573C169.767 -13.5385 162.866 -12.466 157.947 -16.0614C154.667 -18.459 150.068 -17.7442 147.671 -14.4641L144.702 -16.6339C148.298 -21.5527 155.198 -22.6252 160.117 -19.0298C163.397 -16.6322 167.996 -17.347 170.394 -20.6271C173.989 -25.5459 180.89 -26.6184 185.808 -23.023ZM161.077 16.887L139.275 20.2757L138.71 16.6429L160.512 13.2543L161.077 16.887Z" fill="black"/>
</g>
</g>
</mask>
<g mask="url(#mask0_13_4631)">
<path d="M213.701 37.9987L401.668 218.859C408.413 225.348 408.941 235.966 402.874 243.093L275.054 393.231C265.372 404.604 246.826 399.615 244.155 384.92L184.007 53.9213C180.935 37.0173 201.32 26.0863 213.701 37.9987Z" fill="#FC7537"/>
</g>
<defs>
<clipPath id="clip0_13_4631">
<rect width="95.6006" height="47.8003" fill="white" transform="translate(481.63 170.438) rotate(126.165)"/>
</clipPath>
<clipPath id="clip1_13_4631">
<rect width="95.6006" height="47.8003" fill="white" transform="translate(425.215 247.618) rotate(126.165)"/>
</clipPath>
<clipPath id="clip2_13_4631">
<rect width="95.6006" height="47.8003" fill="white" transform="translate(368.799 324.798) rotate(126.165)"/>
</clipPath>
<clipPath id="clip3_13_4631">
<rect width="95.6006" height="47.8003" fill="white" transform="translate(312.384 401.978) rotate(126.165)"/>
</clipPath>
<clipPath id="clip4_13_4631">
<rect width="95.6006" height="47.8003" fill="white" transform="translate(443.04 142.23) rotate(126.165)"/>
</clipPath>
<clipPath id="clip5_13_4631">
<rect width="95.6006" height="47.8003" fill="white" transform="translate(386.625 219.41) rotate(126.165)"/>
</clipPath>
<clipPath id="clip6_13_4631">
<rect width="95.6006" height="47.8003" fill="white" transform="translate(330.209 296.59) rotate(126.165)"/>
</clipPath>
<clipPath id="clip7_13_4631">
<rect width="95.6006" height="47.8003" fill="white" transform="translate(273.794 373.77) rotate(126.165)"/>
</clipPath>
<clipPath id="clip8_13_4631">
<rect width="95.6006" height="47.8003" fill="white" transform="translate(460.866 36.8423) rotate(126.165)"/>
</clipPath>
<clipPath id="clip9_13_4631">
<rect width="95.6006" height="47.8003" fill="white" transform="translate(404.45 114.022) rotate(126.165)"/>
</clipPath>
<clipPath id="clip10_13_4631">
<rect width="95.6006" height="47.8003" fill="white" transform="translate(348.035 191.203) rotate(126.165)"/>
</clipPath>
<clipPath id="clip11_13_4631">
<rect width="95.6006" height="47.8003" fill="white" transform="translate(291.619 268.383) rotate(126.165)"/>
</clipPath>
<clipPath id="clip12_13_4631">
<rect width="95.6006" height="47.8003" fill="white" transform="translate(235.204 345.563) rotate(126.165)"/>
</clipPath>
<clipPath id="clip13_13_4631">
<rect width="95.6006" height="47.8003" fill="white" transform="translate(422.276 8.63464) rotate(126.165)"/>
</clipPath>
<clipPath id="clip14_13_4631">
<rect width="95.6006" height="47.8003" fill="white" transform="translate(365.86 85.8146) rotate(126.165)"/>
</clipPath>
<clipPath id="clip15_13_4631">
<rect width="95.6006" height="47.8003" fill="white" transform="translate(309.445 162.995) rotate(126.165)"/>
</clipPath>
<clipPath id="clip16_13_4631">
<rect width="95.6006" height="47.8003" fill="white" transform="translate(253.029 240.175) rotate(126.165)"/>
</clipPath>
<clipPath id="clip17_13_4631">
<rect width="95.6006" height="47.8003" fill="white" transform="translate(196.614 317.355) rotate(126.165)"/>
</clipPath>
<clipPath id="clip18_13_4631">
<rect width="95.6006" height="47.8003" fill="white" transform="translate(383.685 -19.5732) rotate(126.165)"/>
</clipPath>
<clipPath id="clip19_13_4631">
<rect width="95.6006" height="47.8003" fill="white" transform="translate(327.27 57.6068) rotate(126.165)"/>
</clipPath>
<clipPath id="clip20_13_4631">
<rect width="95.6006" height="47.8003" fill="white" transform="translate(270.855 134.787) rotate(126.165)"/>
</clipPath>
<clipPath id="clip21_13_4631">
<rect width="95.6006" height="47.8003" fill="white" transform="translate(214.439 211.967) rotate(126.165)"/>
</clipPath>
<clipPath id="clip22_13_4631">
<rect width="95.6006" height="47.8003" fill="white" transform="translate(288.68 29.3993) rotate(126.165)"/>
</clipPath>
<clipPath id="clip23_13_4631">
<rect width="95.6006" height="47.8003" fill="white" transform="translate(232.264 106.579) rotate(126.165)"/>
</clipPath>
<clipPath id="clip24_13_4631">
<rect width="95.6006" height="47.8003" fill="white" transform="translate(250.09 1.19141) rotate(126.165)"/>
</clipPath>
<clipPath id="clip25_13_4631">
<rect width="95.6006" height="47.8003" fill="white" transform="translate(193.675 78.3716) rotate(126.165)"/>
</clipPath>
<clipPath id="clip26_13_4631">
<rect width="95.6006" height="47.8003" fill="white" transform="translate(211.5 -27.0162) rotate(126.165)"/>
</clipPath>
</defs>
</svg>
