<svg width="1021" height="552" viewBox="0 0 1021 552" fill="none" xmlns="http://www.w3.org/2000/svg">
<g clip-path="url(#clip0_371_1755)">
<path fill-rule="evenodd" clip-rule="evenodd" d="M386.356 272.182C383.585 274.146 383.026 275.647 382.903 276.345C382.78 277.042 382.792 278.644 384.724 281.437C386.692 284.283 390.213 287.654 395.545 291.138C406.173 298.084 422.209 304.313 441.117 307.647C459.383 310.868 476.72 309.097 489.486 305.409C495.892 303.558 500.788 301.327 503.944 299.289C505.24 298.452 506.07 297.758 506.555 297.278C506.475 296.392 506.066 295.016 504.706 293.05C502.738 290.205 499.217 286.834 493.885 283.35C483.257 276.404 467.221 270.174 448.313 266.84C429.404 263.506 412.205 263.876 399.842 266.767C393.64 268.218 389.179 270.181 386.356 272.182ZM394.957 245.881C410.765 242.184 430.975 242.002 452.038 245.716C473.1 249.43 492.03 256.513 505.619 265.394C512.396 269.822 518.298 274.993 522.348 280.848C526.434 286.756 529.036 294.014 527.651 301.868C526.955 305.819 524.882 308.962 522.873 311.226C520.805 313.558 518.263 315.576 515.582 317.307C510.214 320.774 503.263 323.756 495.44 326.016C479.747 330.55 459.098 332.599 437.393 328.772C416.33 325.058 397.401 317.975 383.811 309.094C377.034 304.665 371.132 299.495 367.083 293.639C362.996 287.731 360.394 280.473 361.779 272.62C363.164 264.766 368.091 258.836 373.952 254.682C379.76 250.565 387.074 247.725 394.957 245.881Z" fill="#C53424"/>
<path d="M485.714 226.595C495.461 220.609 514.366 174.583 513.168 152.671C516.682 166.963 530.985 196.165 542.325 196.165C553.665 196.165 562.032 167.531 560.834 145.62C563.553 156.679 580.724 211.553 595.214 230.383L556.241 239.616L526.21 280.634L509.621 277.054L485.714 226.595Z" fill="#D9D9D9"/>
<path d="M485.714 226.595C495.461 220.609 514.366 174.583 513.168 152.671C516.682 166.963 530.985 196.165 542.325 196.165C553.665 196.165 562.032 167.531 560.834 145.62C563.553 156.679 580.724 211.553 595.214 230.383L556.241 239.616L526.21 280.634L509.621 277.054L485.714 226.595Z" fill="url(#paint0_linear_371_1755)"/>
<path d="M555.832 237.814L555.161 237.972L554.753 238.53L525.439 278.57L510.908 275.434L488.037 227.162C489.096 226.256 490.156 225.075 491.2 223.722C492.719 221.757 494.3 219.302 495.89 216.504C499.071 210.906 502.348 203.819 505.27 196.259C509.536 185.22 513.125 172.964 514.487 162.728C516.738 168.551 519.79 174.999 523.222 180.74C525.98 185.352 529.031 189.591 532.172 192.702C535.251 195.75 538.72 198.017 542.307 198.016C545.977 198.017 549.11 195.702 551.623 192.479C554.161 189.225 556.316 184.745 558.032 179.689C560.242 173.177 561.786 165.527 562.443 157.918C564.792 165.519 568.081 175.469 571.874 185.744C577.83 201.878 585.127 219.09 592.081 229.227L555.832 237.814Z" stroke="#C12E00" stroke-opacity="0.39" stroke-width="3.7017"/>
<path d="M491.307 236.098C501.251 231.206 516.559 203.665 515.608 186.278C518.996 197.58 531.682 218.715 550.732 208.458C558.484 204.284 564.921 197.389 563.97 180.002C566.592 188.748 573.053 215.473 587.502 230.224L556.186 253.175L527.283 287.73L510.524 285.121L491.307 236.098Z" fill="white" fill-opacity="0.6"/>
<path d="M555.103 251.684L554.919 251.819L554.773 251.994L526.547 285.739L511.863 283.453L493.613 236.895C496.018 235.323 498.5 232.825 500.875 229.84C503.784 226.185 506.666 221.632 509.188 216.706C512.778 209.693 515.725 201.759 516.923 194.449C519.118 198.788 522.18 203.327 526.048 206.831C529.214 209.699 532.99 211.938 537.335 212.731C541.708 213.529 546.499 212.831 551.595 210.087C555.669 207.894 559.539 204.906 562.228 200.074C563.623 197.569 564.67 194.621 565.285 191.113C566.438 194.86 567.854 199.131 569.577 203.549C573.108 212.608 577.996 222.489 584.722 229.977L555.103 251.684Z" stroke="white" stroke-opacity="0.19" stroke-width="3.7017"/>
<path fill-rule="evenodd" clip-rule="evenodd" d="M509.981 298.53L508.876 299.624C508.197 300.295 507.18 301.127 505.734 302.061C502.238 304.319 497.026 306.665 490.402 308.579C477.186 312.398 459.339 314.211 440.544 310.897C421.304 307.505 404.824 301.144 393.74 293.901C388.185 290.271 384.298 286.623 382.01 283.315C379.733 280.023 379.339 277.552 379.653 275.772C379.967 273.991 381.182 271.804 384.447 269.49C387.73 267.163 392.63 265.065 399.091 263.554C411.984 260.538 429.646 260.198 448.886 263.59C468.126 266.983 484.606 273.344 495.691 280.587C501.245 284.217 505.132 287.864 507.421 291.173C509.007 293.467 509.697 295.379 509.841 296.982L509.981 298.53ZM506.555 297.278C506.07 297.758 505.24 298.452 503.944 299.289C500.788 301.327 495.892 303.558 489.486 305.409C476.72 309.097 459.383 310.868 441.117 307.647C422.209 304.313 406.173 298.084 395.545 291.138C390.213 287.654 386.692 284.283 384.724 281.437C382.792 278.644 382.78 277.042 382.903 276.345C383.026 275.647 383.585 274.146 386.356 272.182C389.179 270.181 393.64 268.218 399.842 266.767C412.205 263.876 429.404 263.506 448.313 266.84C467.221 270.174 483.257 276.404 493.885 283.35C499.217 286.834 502.738 290.205 504.706 293.05C506.066 295.016 506.475 296.392 506.555 297.278ZM451.465 248.966C430.733 245.31 410.986 245.521 395.709 249.094C388.084 250.877 381.209 253.583 375.86 257.374C370.47 261.195 366.219 266.445 365.029 273.193C363.839 279.941 366.038 286.329 369.797 291.762C373.526 297.154 379.061 302.048 385.616 306.332C398.75 314.914 417.234 321.866 437.966 325.522C459.142 329.256 479.281 327.25 494.524 322.846C502.129 320.648 508.764 317.782 513.791 314.535C516.303 312.913 518.591 311.082 520.404 309.037C522.178 307.037 523.848 304.435 524.402 301.295C525.591 294.546 523.392 288.159 519.634 282.725C515.904 277.333 510.369 272.439 503.814 268.156C490.68 259.573 472.196 252.621 451.465 248.966ZM452.038 245.716C430.975 242.002 410.765 242.184 394.957 245.881C387.074 247.725 379.76 250.565 373.952 254.682C368.091 258.836 363.164 264.766 361.779 272.62C360.394 280.473 362.996 287.731 367.083 293.639C371.132 299.495 377.034 304.665 383.811 309.094C397.401 317.975 416.33 325.058 437.393 328.772C459.098 332.599 479.747 330.55 495.44 326.016C503.263 323.756 510.214 320.774 515.582 317.307C518.263 315.576 520.805 313.558 522.873 311.226C524.882 308.962 526.955 305.819 527.651 301.868C529.036 294.014 526.434 286.756 522.348 280.848C518.298 274.993 512.396 269.822 505.619 265.394C492.03 256.513 473.1 249.43 452.038 245.716Z" fill="black" fill-opacity="0.2"/>
<path fill-rule="evenodd" clip-rule="evenodd" d="M430.16 198.307C426.776 198.031 425.382 198.821 424.839 199.277C424.27 199.754 423.01 201.334 422.455 205.436C421.912 209.45 422.21 214.91 423.738 221.483C426.789 234.597 434.354 250.463 446.399 264.817C457.99 278.631 472.202 286.622 484.667 289.958C490.91 291.628 496.485 292.07 500.897 291.651C503.331 291.419 505.197 290.95 506.576 290.42C506.574 289.956 506.556 289.425 506.519 288.826C506.303 285.398 505.469 280.571 503.694 274.754C500.157 263.158 493.12 248.418 481.056 234.04C468.714 219.332 455.301 208.56 443.972 202.828C438.289 199.953 433.609 198.589 430.16 198.307ZM453.655 183.688C468.141 191.017 483.74 203.869 497.487 220.253C511.512 236.967 519.881 254.303 524.211 268.495C526.37 275.571 527.585 282.065 527.926 287.477C528.096 290.172 528.063 292.815 527.732 295.243C527.435 297.423 526.76 300.53 524.865 303.296L524.035 304.507L522.911 305.45C517.383 310.089 510.149 312.317 502.928 313.004C495.575 313.704 487.414 312.897 479.122 310.678C462.518 306.235 444.465 295.883 429.967 278.605C415.922 261.867 406.718 242.989 402.846 226.342C400.914 218.034 400.212 209.858 401.198 202.562C402.173 195.354 404.97 187.949 411.052 182.845C417.161 177.719 424.747 176.343 431.907 176.928C439.003 177.508 446.431 180.033 453.655 183.688Z" fill="#C53424"/>
<path fill-rule="evenodd" clip-rule="evenodd" d="M509.89 292.682L507.76 293.5C506.063 294.153 503.899 294.68 501.209 294.936C496.345 295.399 490.372 294.9 483.814 293.145C470.712 289.639 455.909 281.285 443.871 266.938C431.518 252.217 423.701 235.888 420.524 222.23C418.933 215.391 418.574 209.513 419.185 204.994C419.806 200.398 421.31 197.931 422.718 196.749C424.103 195.586 426.44 194.692 430.429 195.018C434.439 195.346 439.541 196.888 445.462 199.884C457.277 205.861 471.026 216.953 483.584 231.919C495.95 246.656 503.191 261.796 506.851 273.791C508.685 279.802 509.577 284.885 509.812 288.618C509.854 289.277 509.873 289.87 509.876 290.401L509.89 292.682ZM520.79 302.922L521.568 302.269L522.142 301.431C523.612 299.286 524.192 296.775 524.462 294.797C524.756 292.644 524.793 290.23 524.633 287.684C524.311 282.578 523.154 276.34 521.055 269.458C516.847 255.666 508.683 238.729 494.959 222.374C481.428 206.248 466.166 193.716 452.166 186.633C445.179 183.098 438.173 180.751 431.638 180.217C425.054 179.679 418.422 180.968 413.173 185.373C407.941 189.763 405.379 196.27 404.469 203.004C403.55 209.796 404.19 217.553 406.06 225.594C409.805 241.698 418.758 260.113 432.495 276.484C446.546 293.229 464.008 303.218 479.975 307.491C487.952 309.625 495.715 310.376 502.615 309.719C509.426 309.071 515.94 306.991 520.79 302.922ZM524.035 304.507L524.865 303.296C526.76 300.53 527.435 297.423 527.732 295.243C528.063 292.815 528.096 290.172 527.926 287.477C527.585 282.065 526.37 275.571 524.211 268.495C519.881 254.303 511.512 236.967 497.487 220.253C483.74 203.869 468.141 191.017 453.655 183.688C446.431 180.033 439.003 177.508 431.907 176.928C424.747 176.343 417.161 177.719 411.052 182.845C404.97 187.949 402.173 195.354 401.198 202.562C400.212 209.858 400.914 218.034 402.846 226.342C406.718 242.989 415.922 261.867 429.967 278.605C444.465 295.883 462.518 306.235 479.122 310.678C487.414 312.897 495.575 313.704 502.928 313.004C510.149 312.317 517.383 310.089 522.911 305.45L524.035 304.507ZM506.576 290.42C505.197 290.95 503.331 291.419 500.897 291.651C496.485 292.07 490.91 291.628 484.667 289.958C472.202 286.622 457.99 278.631 446.399 264.817C434.354 250.463 426.789 234.597 423.738 221.483C422.21 214.91 421.912 209.45 422.455 205.436C423.01 201.334 424.27 199.754 424.839 199.277C425.382 198.821 426.776 198.031 430.16 198.307C433.609 198.589 438.289 199.953 443.972 202.828C455.301 208.56 468.714 219.332 481.056 234.04C493.12 248.418 500.157 263.158 503.694 274.754C505.469 280.571 506.303 285.398 506.519 288.826C506.556 289.425 506.574 289.956 506.576 290.42Z" fill="black" fill-opacity="0.2"/>
<path fill-rule="evenodd" clip-rule="evenodd" d="M548.752 263.372C541.919 272.087 534.267 286.114 527.578 304.493C520.894 322.856 516.707 341.341 515.447 355.377C514.904 361.431 514.946 366.227 515.382 369.646C517.472 367.758 520.033 364.874 522.923 360.859C530.272 350.646 538.321 335.115 545.024 316.698C551.727 298.282 555.545 281.21 556.479 268.663C556.907 262.923 556.69 258.642 556.14 255.801C554.227 257.189 551.704 259.606 548.752 263.372ZM545.802 236.924C550.662 233.928 557.398 231.582 564.443 234.146C572.309 237.009 575.48 244.463 576.796 249.872C578.227 255.753 578.424 262.828 577.87 270.256C576.752 285.268 572.359 304.311 565.18 324.035C558.001 343.758 549.126 361.17 540.333 373.388C535.982 379.434 531.284 384.728 526.408 388.312C521.923 391.61 514.703 395.283 506.836 392.419C498.324 389.321 495.597 380.636 494.578 375.344C493.377 369.1 493.363 361.486 494.083 353.459C495.538 337.25 500.223 316.933 507.421 297.156C514.614 277.395 523.225 261.165 531.872 250.137C536.159 244.668 540.839 239.984 545.802 236.924Z" fill="#C53424"/>
<path fill-rule="evenodd" clip-rule="evenodd" d="M512.908 376.331L512.109 370.064C511.632 366.329 511.604 361.277 512.16 355.082C513.45 340.712 517.714 321.945 524.477 303.364C531.244 284.772 539.043 270.407 546.155 261.336C549.23 257.414 551.966 254.752 554.202 253.13L558.396 250.087L559.38 255.174C560.005 258.404 560.21 263.002 559.77 268.908C558.807 281.834 554.901 299.209 548.125 317.827C541.348 336.445 533.172 352.265 525.601 362.786C522.621 366.928 519.907 370.005 517.595 372.094L512.908 376.331ZM515.07 365.32C514.994 362.528 515.104 359.204 515.447 355.377C516.707 341.341 520.894 322.856 527.578 304.493C534.267 286.114 541.919 272.087 548.752 263.372C550.367 261.312 551.854 259.655 553.183 258.35C554.282 257.269 555.274 256.43 556.14 255.801C556.349 256.881 556.51 258.168 556.606 259.665C556.762 262.107 556.745 265.104 556.479 268.663C555.545 281.21 551.727 298.282 545.024 316.698C538.321 335.115 530.272 350.646 522.923 360.859C521.312 363.097 519.803 364.984 518.421 366.542C517.324 367.78 516.307 368.811 515.382 369.646C515.222 368.389 515.115 366.944 515.07 365.32ZM563.314 237.247C557.62 235.174 551.981 236.991 547.533 239.733C543.028 242.511 538.628 246.869 534.469 252.173C526.101 262.846 517.637 278.737 510.522 298.285C503.403 317.845 498.795 337.88 497.37 353.754C496.662 361.637 496.7 368.906 497.819 374.72C498.815 379.898 501.256 386.877 507.964 389.318C514.225 391.597 520.222 388.765 524.453 385.654C528.937 382.357 533.401 377.371 537.655 371.46C546.225 359.551 554.974 342.428 562.079 322.906C569.185 303.384 573.489 284.643 574.579 270.011C575.12 262.749 574.905 256.06 573.589 250.653C572.348 245.55 569.575 239.525 563.314 237.247ZM564.443 234.146C557.398 231.582 550.662 233.928 545.802 236.924C540.839 239.984 536.159 244.668 531.872 250.137C523.225 261.165 514.614 277.395 507.421 297.156C500.223 316.933 495.538 337.25 494.083 353.459C493.363 361.486 493.377 369.1 494.578 375.344C495.597 380.636 498.324 389.321 506.836 392.419C514.703 395.283 521.923 391.61 526.408 388.312C531.284 384.728 535.982 379.434 540.333 373.388C549.126 361.17 558.001 343.758 565.18 324.035C572.359 304.311 576.752 285.268 577.87 270.256C578.424 262.828 578.227 255.753 576.796 249.872C575.48 244.463 572.309 237.009 564.443 234.146Z" fill="black" fill-opacity="0.2"/>
<mask id="mask0_371_1755" style="mask-type:alpha" maskUnits="userSpaceOnUse" x="513" y="228" width="40" height="40">
<path d="M552.881 247.929C552.881 258.864 544.016 267.729 533.081 267.729C522.146 267.729 513.281 258.864 513.281 247.929C513.281 236.994 522.146 228.129 533.081 228.129C544.016 228.129 552.881 236.994 552.881 247.929Z" fill="white"/>
</mask>
<g mask="url(#mask0_371_1755)">
<path d="M552.881 247.929C552.881 258.864 544.016 267.729 533.081 267.729C522.146 267.729 513.281 258.864 513.281 247.929C513.281 236.994 522.146 228.129 533.081 228.129C544.016 228.129 552.881 236.994 552.881 247.929Z" fill="white"/>
<path fill-rule="evenodd" clip-rule="evenodd" d="M533.081 264.429C542.194 264.429 549.581 257.042 549.581 247.929C549.581 238.816 542.194 231.429 533.081 231.429C523.969 231.429 516.581 238.816 516.581 247.929C516.581 257.042 523.969 264.429 533.081 264.429ZM533.081 267.729C544.016 267.729 552.881 258.864 552.881 247.929C552.881 236.994 544.016 228.129 533.081 228.129C522.146 228.129 513.281 236.994 513.281 247.929C513.281 258.864 522.146 267.729 533.081 267.729Z" fill="black" fill-opacity="0.44"/>
<path d="M542.156 247.929C542.156 252.941 538.093 257.004 533.081 257.004C528.069 257.004 524.006 252.941 524.006 247.929C524.006 242.917 528.069 238.854 533.081 238.854C538.093 238.854 542.156 242.917 542.156 247.929Z" fill="#222222"/>
<ellipse cx="534.994" cy="217.065" rx="87.0511" ry="22.2375" transform="rotate(30 534.994 217.065)" fill="#670000"/>
<path d="M608.78 259.666C607.764 261.425 605.112 262.717 600.094 262.816C595.207 262.913 588.687 261.852 580.94 259.678C565.473 255.339 545.525 246.686 524.801 234.721C504.077 222.756 486.609 209.807 475.118 198.582C469.362 192.959 465.183 187.843 462.823 183.563C460.4 179.167 460.193 176.225 461.209 174.465C462.225 172.706 464.876 171.414 469.895 171.315C474.781 171.218 481.301 172.279 489.049 174.453C504.516 178.792 524.463 187.445 545.188 199.41C565.912 211.375 583.38 224.323 594.871 235.549C600.627 241.172 604.806 246.288 607.165 250.568C609.589 254.964 609.796 257.906 608.78 259.666Z" stroke="black" stroke-opacity="0.39" stroke-width="3.7017"/>
</g>
<mask id="mask1_371_1755" style="mask-type:alpha" maskUnits="userSpaceOnUse" x="562" y="228" width="40" height="40">
<path d="M562.127 247.929C562.127 258.864 570.992 267.729 581.927 267.729C592.862 267.729 601.727 258.864 601.727 247.929C601.727 236.994 592.862 228.129 581.927 228.129C570.992 228.129 562.127 236.994 562.127 247.929Z" fill="white"/>
</mask>
<g mask="url(#mask1_371_1755)">
<path d="M562.127 247.929C562.127 258.864 570.992 267.729 581.927 267.729C592.862 267.729 601.727 258.864 601.727 247.929C601.727 236.994 592.862 228.129 581.927 228.129C570.992 228.129 562.127 236.994 562.127 247.929Z" fill="white"/>
<path fill-rule="evenodd" clip-rule="evenodd" d="M581.927 264.429C572.814 264.429 565.427 257.042 565.427 247.929C565.427 238.816 572.814 231.429 581.927 231.429C591.04 231.429 598.427 238.816 598.427 247.929C598.427 257.042 591.04 264.429 581.927 264.429ZM581.927 267.729C570.992 267.729 562.127 258.864 562.127 247.929C562.127 236.994 570.992 228.129 581.927 228.129C592.862 228.129 601.727 236.994 601.727 247.929C601.727 258.864 592.862 267.729 581.927 267.729Z" fill="black" fill-opacity="0.44"/>
<path d="M572.852 247.929C572.852 252.941 576.915 257.004 581.927 257.004C586.939 257.004 591.002 252.941 591.002 247.929C591.002 242.917 586.939 238.854 581.927 238.854C576.915 238.854 572.852 242.917 572.852 247.929Z" fill="#222222"/>
<ellipse cx="87.0511" cy="22.2375" rx="87.0511" ry="22.2375" transform="matrix(-0.866025 0.5 0.5 0.866025 644.284 154.282)" fill="#670000"/>
<path d="M506.229 259.666C507.245 261.425 509.896 262.717 514.915 262.816C519.801 262.913 526.322 261.852 534.069 259.678C549.536 255.339 569.484 246.686 590.208 234.721C610.932 222.756 628.4 209.807 639.891 198.582C645.647 192.959 649.826 187.843 652.186 183.563C654.609 179.167 654.816 176.225 653.8 174.465C652.784 172.706 650.133 171.414 645.114 171.315C640.228 171.218 633.707 172.279 625.96 174.453C610.493 178.792 590.545 187.445 569.821 199.41C549.097 211.375 531.629 224.323 520.138 235.549C514.382 241.172 510.203 246.288 507.843 250.568C505.42 254.964 505.213 257.906 506.229 259.666Z" stroke="black" stroke-opacity="0.39" stroke-width="3.7017"/>
</g>
<path fill-rule="evenodd" clip-rule="evenodd" d="M90.5241 207.415C86.1452 210.519 85.2613 212.892 85.0669 213.995C84.8725 215.097 84.8914 217.63 87.9447 222.044C91.0557 226.542 96.6207 231.869 105.048 237.376C121.847 248.354 147.191 258.2 177.076 263.47C205.946 268.56 233.347 265.761 253.524 259.931C263.65 257.006 271.388 253.48 276.375 250.259C278.423 248.936 279.736 247.839 280.502 247.081C280.376 245.681 279.73 243.506 277.581 240.398C274.47 235.901 268.905 230.573 260.478 225.066C243.679 214.088 218.334 204.242 188.449 198.973C158.564 193.703 131.38 194.287 111.84 198.857C102.037 201.15 94.9858 204.253 90.5241 207.415ZM104.119 165.846C129.103 160.002 161.046 159.715 194.336 165.585C227.627 171.455 257.545 182.65 279.023 196.686C289.735 203.686 299.062 211.858 305.463 221.113C311.922 230.45 316.035 241.922 313.846 254.335C312.745 260.58 309.469 265.547 306.294 269.126C303.025 272.812 299.007 276 294.769 278.737C286.286 284.216 275.299 288.929 262.935 292.501C238.132 299.668 205.495 302.906 171.189 296.857C137.899 290.987 107.981 279.792 86.5021 265.756C75.7906 258.756 66.4632 250.584 60.0623 241.329C53.6036 231.992 49.491 220.52 51.6797 208.108C53.8684 195.695 61.6565 186.322 70.9193 179.756C80.0994 173.249 91.6594 168.76 104.119 165.846Z" fill="#62C524"/>
<path fill-rule="evenodd" clip-rule="evenodd" d="M285.917 249.06L284.17 250.788C283.098 251.849 281.49 253.164 279.205 254.64C273.68 258.209 265.442 261.917 254.972 264.942C234.083 270.978 205.877 273.844 176.171 268.606C145.762 263.244 119.713 253.19 102.195 241.742C93.4161 236.006 87.2722 230.24 83.6551 225.011C80.0567 219.809 79.4342 215.903 79.9304 213.089C80.4266 210.275 82.3473 206.818 87.508 203.16C92.6956 199.483 100.441 196.167 110.652 193.779C131.03 189.013 158.946 188.474 189.355 193.836C219.764 199.198 245.812 209.252 263.331 220.7C272.109 226.437 278.253 232.202 281.87 237.431C284.378 241.056 285.468 244.079 285.697 246.612L285.917 249.06ZM280.502 247.081C279.736 247.839 278.423 248.936 276.375 250.259C271.388 253.48 263.65 257.006 253.524 259.931C233.347 265.761 205.946 268.56 177.076 263.47C147.191 258.2 121.847 248.354 105.048 237.376C96.6207 231.869 91.0557 226.542 87.9447 222.044C84.8914 217.63 84.8725 215.097 85.0669 213.995C85.2613 212.892 86.1452 210.519 90.5241 207.415C94.9858 204.253 102.037 201.15 111.84 198.857C131.38 194.287 158.564 193.703 188.449 198.973C218.334 204.242 243.679 214.088 260.478 225.066C268.905 230.573 274.47 235.901 277.581 240.398C279.73 243.506 280.376 245.681 280.502 247.081ZM193.43 170.722C160.664 164.944 129.453 165.277 105.307 170.924C93.256 173.743 82.3896 178.019 73.9354 184.012C65.4167 190.05 58.6969 198.347 56.8162 209.013C54.9355 219.679 58.4121 229.775 64.3519 238.362C70.2467 246.885 78.9952 254.62 89.3553 261.39C110.114 274.955 139.328 285.943 172.095 291.72C205.564 297.622 237.396 294.452 261.487 287.491C273.507 284.018 283.994 279.488 291.94 274.356C295.909 271.792 299.525 268.897 302.392 265.665C305.195 262.505 307.834 258.393 308.709 253.429C310.59 242.763 307.113 232.667 301.174 224.08C295.279 215.557 286.53 207.822 276.17 201.052C255.412 187.487 226.197 176.5 193.43 170.722ZM194.336 165.585C161.046 159.715 129.103 160.002 104.119 165.846C91.6594 168.76 80.0994 173.249 70.9193 179.756C61.6565 186.322 53.8684 195.695 51.6797 208.108C49.491 220.52 53.6036 231.992 60.0623 241.329C66.4632 250.584 75.7906 258.756 86.5021 265.756C107.981 279.792 137.899 290.987 171.189 296.857C205.495 302.906 238.132 299.668 262.935 292.501C275.299 288.929 286.286 284.216 294.769 278.737C299.007 276 303.025 272.812 306.294 269.126C309.469 265.547 312.745 260.58 313.846 254.335C316.035 241.922 311.922 230.45 305.463 221.113C299.062 211.858 289.735 203.686 279.023 196.686C257.545 182.65 227.627 171.455 194.336 165.585Z" fill="black" fill-opacity="0.2"/>
<path fill-rule="evenodd" clip-rule="evenodd" d="M159.757 90.6542C154.408 90.2171 152.205 91.467 151.348 92.1865C150.448 92.9415 148.455 95.4383 147.579 101.922C146.721 108.266 147.191 116.896 149.607 127.284C154.428 148.012 166.385 173.087 185.422 195.775C203.742 217.608 226.206 230.238 245.907 235.51C255.774 238.151 264.585 238.85 271.558 238.186C275.406 237.82 278.354 237.079 280.535 236.241C280.531 235.508 280.504 234.669 280.444 233.722C280.102 228.304 278.785 220.674 275.98 211.48C270.389 193.153 259.267 169.856 240.199 147.132C220.693 123.885 199.493 106.859 181.587 97.7998C172.604 93.2552 165.208 91.0995 159.757 90.6542ZM196.892 67.5488C219.787 79.1319 244.441 99.4444 266.17 125.34C288.336 151.757 301.564 179.158 308.407 201.588C311.819 212.772 313.74 223.036 314.279 231.589C314.547 235.849 314.496 240.026 313.972 243.865C313.502 247.31 312.436 252.22 309.44 256.592L308.129 258.505L306.352 259.996C297.615 267.328 286.182 270.851 274.768 271.936C263.147 273.042 250.249 271.767 237.143 268.26C210.9 261.237 182.367 244.876 159.452 217.567C137.254 191.113 122.706 161.274 116.586 134.964C113.532 121.832 112.423 108.911 113.982 97.3797C115.523 85.987 119.943 74.2822 129.556 66.2159C139.211 58.1141 151.202 55.94 162.518 56.8645C173.733 57.7807 185.474 61.7722 196.892 67.5488Z" fill="#62C524"/>
<path fill-rule="evenodd" clip-rule="evenodd" d="M285.772 239.816L282.406 241.11C279.724 242.141 276.304 242.974 272.052 243.379C264.364 244.11 254.924 243.322 244.559 240.549C223.851 235.007 200.454 221.803 181.427 199.128C161.903 175.86 149.548 150.052 144.527 128.465C142.013 117.655 141.445 108.365 142.41 101.223C143.392 93.959 145.769 90.0592 147.995 88.191C150.184 86.3542 153.877 84.9407 160.182 85.4557C166.52 85.9735 174.584 88.4117 183.942 93.1458C202.615 102.593 224.346 120.125 244.194 143.779C263.739 167.072 275.185 191 280.969 209.958C283.867 219.458 285.277 227.493 285.649 233.394C285.715 234.434 285.746 235.372 285.751 236.211L285.772 239.816ZM305.951 259.518L303 256.001L304.23 254.969L305.137 253.644C307.46 250.254 308.378 246.286 308.804 243.16C309.268 239.757 309.327 235.941 309.074 231.917C308.565 223.846 306.737 213.988 303.418 203.11C296.768 181.311 283.864 154.541 262.174 128.692C240.787 103.204 216.665 83.3976 194.537 72.2028C183.494 66.6158 172.421 62.9067 162.093 62.0629C151.686 61.2126 141.205 63.2496 132.908 70.2114C124.64 77.1495 120.59 87.4338 119.151 98.0785C117.7 108.812 118.71 121.073 121.666 133.782C127.586 159.234 141.736 188.34 163.447 214.214C185.655 240.681 213.255 256.468 238.492 263.222C251.099 266.596 263.368 267.781 274.274 266.744C285.04 265.72 295.335 262.433 303 256.001L305.951 259.518ZM308.129 258.505L309.44 256.592C312.436 252.22 313.502 247.31 313.972 243.865C314.496 240.026 314.547 235.849 314.279 231.589C313.74 223.036 311.819 212.772 308.407 201.588C301.564 179.158 288.336 151.757 266.17 125.34C244.441 99.4444 219.787 79.1319 196.892 67.5488C185.474 61.7722 173.733 57.7807 162.518 56.8645C151.202 55.94 139.211 58.1141 129.556 66.2159C119.943 74.2822 115.523 85.987 113.982 97.3797C112.423 108.911 113.532 121.832 116.586 134.964C122.706 161.274 137.254 191.113 159.452 217.567C182.367 244.876 210.9 261.237 237.143 268.26C250.249 271.767 263.147 273.042 274.768 271.936C286.182 270.851 297.615 267.328 306.352 259.996L308.129 258.505ZM280.535 236.241C278.354 237.079 275.406 237.82 271.558 238.186C264.585 238.85 255.774 238.151 245.907 235.51C226.206 230.238 203.742 217.608 185.422 195.775C166.385 173.087 154.428 148.012 149.607 127.284C147.191 116.896 146.721 108.266 147.579 101.922C148.455 95.4383 150.448 92.9415 151.348 92.1865C152.205 91.467 154.408 90.2171 159.757 90.6542C165.208 91.0995 172.604 93.2552 181.587 97.7998C199.493 106.859 220.693 123.885 240.199 147.132C259.267 169.856 270.389 193.153 275.98 211.48C278.785 220.674 280.102 228.304 280.444 233.722C280.504 234.669 280.531 235.508 280.535 236.241Z" fill="black" fill-opacity="0.2"/>
<path fill-rule="evenodd" clip-rule="evenodd" d="M347.196 193.491C336.396 207.266 324.302 229.435 313.729 258.484C303.166 287.507 296.548 316.723 294.556 338.908C293.698 348.476 293.765 356.056 294.454 361.461C297.756 358.476 301.805 353.918 306.372 347.572C317.987 331.431 330.709 306.883 341.303 277.775C351.898 248.667 357.932 221.685 359.409 201.854C360.085 192.781 359.742 186.015 358.873 181.525C355.849 183.72 351.862 187.539 347.196 193.491ZM342.533 151.69C350.214 146.954 360.862 143.246 371.995 147.298C384.429 151.824 389.44 163.606 391.52 172.155C393.781 181.449 394.092 192.631 393.218 204.372C391.45 228.098 384.507 258.197 373.161 289.37C361.815 320.543 347.786 348.063 333.89 367.374C327.013 376.931 319.587 385.297 311.88 390.963C304.791 396.175 293.38 401.98 280.946 397.454C267.493 392.558 263.182 378.83 261.573 370.466C259.674 360.598 259.651 348.562 260.79 335.877C263.089 310.258 270.495 278.146 281.872 246.888C293.239 215.656 306.85 190.003 320.516 172.573C327.293 163.93 334.689 156.526 342.533 151.69Z" fill="#62C524"/>
<path fill-rule="evenodd" clip-rule="evenodd" d="M290.543 372.026L289.28 362.12C288.527 356.217 288.483 348.233 289.362 338.441C291.4 315.729 298.139 286.067 308.828 256.7C319.523 227.315 331.85 204.61 343.091 190.273C347.951 184.074 352.276 179.868 355.81 177.304L362.438 172.494L363.994 180.535C364.981 185.639 365.306 192.907 364.61 202.241C363.088 222.671 356.914 250.133 346.204 279.559C335.494 308.984 322.572 333.99 310.606 350.618C305.895 357.164 301.606 362.027 297.951 365.33L290.543 372.026ZM293.961 354.623C293.841 350.211 294.014 344.956 294.556 338.908C296.548 316.723 303.166 287.507 313.729 258.484C324.302 229.435 336.396 207.266 347.196 193.491C349.749 190.235 352.099 187.616 354.199 185.553C355.937 183.846 357.504 182.519 358.873 181.525C359.203 183.232 359.457 185.267 359.609 187.633C359.855 191.491 359.828 196.229 359.409 201.854C357.932 221.685 351.898 248.667 341.303 277.775C330.709 306.883 317.987 331.431 306.372 347.572C303.826 351.109 301.442 354.091 299.257 356.555C297.523 358.511 295.915 360.14 294.454 361.461C294.2 359.473 294.031 357.19 293.961 354.623ZM370.211 152.199C361.212 148.924 352.299 151.796 345.27 156.13C338.149 160.52 331.194 167.407 324.62 175.791C311.395 192.659 298.018 217.776 286.773 248.672C275.521 279.587 268.237 311.253 265.985 336.343C264.867 348.802 264.926 360.291 266.694 369.48C268.269 377.663 272.127 388.694 282.73 392.553C292.625 396.154 302.103 391.678 308.791 386.761C315.877 381.551 322.933 373.67 329.656 364.328C343.202 345.505 357.029 318.442 368.26 287.586C379.49 256.731 386.294 227.111 388.016 203.985C388.871 192.507 388.532 181.934 386.452 173.388C384.489 165.323 380.106 155.801 370.211 152.199ZM371.995 147.298C360.862 143.246 350.214 146.954 342.533 151.69C334.689 156.526 327.293 163.93 320.516 172.573C306.85 190.003 293.239 215.656 281.872 246.888C270.495 278.146 263.089 310.258 260.79 335.877C259.651 348.562 259.674 360.598 261.573 370.466C263.182 378.83 267.493 392.558 280.946 397.454C293.38 401.98 304.791 396.175 311.88 390.963C319.587 385.297 327.013 376.931 333.89 367.374C347.786 348.063 361.815 320.543 373.161 289.37C384.507 258.197 391.45 228.098 393.218 204.372C394.092 192.631 393.781 181.449 391.52 172.155C389.44 163.606 384.429 151.824 371.995 147.298Z" fill="black" fill-opacity="0.2"/>
<path d="M436.429 149.337C436.429 166.621 422.418 180.632 405.134 180.632C387.851 180.632 373.84 166.621 373.84 149.337C373.84 132.054 387.851 118.043 405.134 118.043C422.418 118.043 436.429 132.054 436.429 149.337Z" fill="white"/>
<path fill-rule="evenodd" clip-rule="evenodd" d="M405.134 175.416C419.537 175.416 431.213 163.74 431.213 149.337C431.213 134.935 419.537 123.259 405.134 123.259C390.731 123.259 379.056 134.935 379.056 149.337C379.056 163.74 390.731 175.416 405.134 175.416ZM405.134 180.632C422.418 180.632 436.429 166.621 436.429 149.337C436.429 132.054 422.418 118.043 405.134 118.043C387.851 118.043 373.84 132.054 373.84 149.337C373.84 166.621 387.851 180.632 405.134 180.632Z" fill="black" fill-opacity="0.44"/>
<path d="M419.478 149.338C419.478 157.259 413.056 163.681 405.135 163.681C397.213 163.681 390.792 157.259 390.792 149.338C390.792 141.416 397.213 134.994 405.135 134.994C413.056 134.994 419.478 141.416 419.478 149.338Z" fill="#222222"/>
<path fill-rule="evenodd" clip-rule="evenodd" d="M405.135 158.465C410.176 158.465 414.262 154.379 414.262 149.338C414.262 144.297 410.176 140.21 405.135 140.21C400.094 140.21 396.007 144.297 396.007 149.338C396.007 154.379 400.094 158.465 405.135 158.465ZM405.135 163.681C413.056 163.681 419.478 157.259 419.478 149.338C419.478 141.416 413.056 134.994 405.135 134.994C397.213 134.994 390.792 141.416 390.792 149.338C390.792 157.259 397.213 163.681 405.135 163.681Z" fill="black" fill-opacity="0.44"/>
<path d="M347.761 149.337C347.761 166.621 333.75 180.632 316.466 180.632C299.183 180.632 285.172 166.621 285.172 149.337C285.172 132.054 299.183 118.043 316.466 118.043C333.75 118.043 347.761 132.054 347.761 149.337Z" fill="white"/>
<path fill-rule="evenodd" clip-rule="evenodd" d="M316.466 175.416C330.869 175.416 342.545 163.74 342.545 149.337C342.545 134.935 330.869 123.259 316.466 123.259C302.063 123.259 290.388 134.935 290.388 149.337C290.388 163.74 302.063 175.416 316.466 175.416ZM316.466 180.632C333.75 180.632 347.761 166.621 347.761 149.337C347.761 132.054 333.75 118.043 316.466 118.043C299.183 118.043 285.172 132.054 285.172 149.337C285.172 166.621 299.183 180.632 316.466 180.632Z" fill="black" fill-opacity="0.44"/>
<path d="M330.81 149.338C330.81 157.259 324.388 163.681 316.466 163.681C308.545 163.681 302.123 157.259 302.123 149.338C302.123 141.416 308.545 134.994 316.466 134.994C324.388 134.994 330.81 141.416 330.81 149.338Z" fill="#222222"/>
<path fill-rule="evenodd" clip-rule="evenodd" d="M316.466 158.465C321.507 158.465 325.594 154.379 325.594 149.338C325.594 144.297 321.507 140.21 316.466 140.21C311.425 140.21 307.339 144.297 307.339 149.338C307.339 154.379 311.425 158.465 316.466 158.465ZM316.466 163.681C324.388 163.681 330.81 157.259 330.81 149.338C330.81 141.416 324.388 134.994 316.466 134.994C308.545 134.994 302.123 141.416 302.123 149.338C302.123 157.259 308.545 163.681 316.466 163.681Z" fill="black" fill-opacity="0.44"/>
<path fill-rule="evenodd" clip-rule="evenodd" d="M932.394 177.418C937.45 181.002 938.471 183.742 938.695 185.015C938.92 186.288 938.898 189.212 935.373 194.308C931.781 199.501 925.355 205.652 915.626 212.011C896.23 224.685 866.968 236.054 832.463 242.138C799.131 248.015 767.494 244.784 744.198 238.053C732.508 234.675 723.573 230.604 717.815 226.885C715.45 225.357 713.935 224.091 713.05 223.215C713.196 221.599 713.941 219.088 716.423 215.5C720.015 210.307 726.44 204.156 736.17 197.798C755.565 185.123 784.828 173.755 819.332 167.671C853.837 161.587 885.223 162.261 907.784 167.538C919.102 170.185 927.243 173.767 932.394 177.418ZM916.698 129.423C887.852 122.677 850.972 122.345 812.535 129.123C774.099 135.9 739.556 148.825 714.757 165.031C702.39 173.113 691.621 182.549 684.23 193.233C676.773 204.014 672.025 217.259 674.552 231.591C675.823 238.801 679.606 244.536 683.271 248.669C687.045 252.924 691.685 256.605 696.577 259.765C706.372 266.091 719.058 271.532 733.333 275.657C761.97 283.931 799.651 287.67 839.26 280.686C877.696 273.908 912.239 260.983 937.038 244.778C949.405 236.696 960.175 227.26 967.565 216.575C975.022 205.794 979.77 192.549 977.243 178.218C974.716 163.887 965.724 153.065 955.03 145.484C944.431 137.971 931.084 132.788 916.698 129.423Z" fill="#24B5C5"/>
<path fill-rule="evenodd" clip-rule="evenodd" d="M706.798 225.5L708.815 227.496C710.052 228.72 711.91 230.239 714.547 231.943C720.927 236.064 730.438 240.345 742.527 243.838C766.644 250.806 799.211 254.116 833.509 248.068C868.618 241.877 898.693 230.27 918.92 217.052C929.055 210.428 936.149 203.772 940.325 197.734C944.48 191.727 945.199 187.219 944.626 183.969C944.053 180.72 941.835 176.729 935.877 172.505C929.887 168.26 920.945 164.431 909.155 161.674C885.628 156.171 853.396 155.55 818.287 161.74C783.177 167.931 753.102 179.539 732.876 192.757C722.74 199.38 715.646 206.036 711.47 212.074C708.575 216.26 707.316 219.75 707.053 222.675L706.798 225.5ZM713.05 223.215C713.935 224.091 715.45 225.357 717.815 226.885C723.573 230.604 732.508 234.675 744.198 238.053C767.494 244.784 799.131 248.015 832.463 242.138C866.968 236.054 896.23 224.685 915.626 212.011C925.355 205.652 931.781 199.501 935.373 194.308C938.898 189.212 938.92 186.288 938.695 185.015C938.471 183.742 937.45 181.002 932.394 177.418C927.243 173.767 919.102 170.185 907.784 167.538C885.223 162.261 853.837 161.587 819.332 167.671C784.828 173.755 755.565 185.123 736.17 197.798C726.44 204.156 720.015 210.307 716.423 215.5C713.941 219.088 713.196 221.599 713.05 223.215ZM813.581 135.053C851.413 128.382 887.448 128.767 915.327 135.287C929.24 138.541 941.786 143.478 951.547 150.397C961.383 157.369 969.141 166.949 971.313 179.264C973.484 191.578 969.47 203.235 962.612 213.149C955.806 222.989 945.705 231.92 933.744 239.736C909.776 255.399 876.046 268.085 838.214 274.755C799.571 281.569 762.82 277.909 735.005 269.872C721.127 265.862 709.018 260.632 699.845 254.707C695.262 251.746 691.086 248.404 687.777 244.673C684.54 241.024 681.493 236.276 680.483 230.545C678.311 218.23 682.325 206.574 689.183 196.659C695.989 186.819 706.09 177.889 718.052 170.072C742.019 154.41 775.749 141.724 813.581 135.053ZM812.535 129.123C850.972 122.345 887.852 122.677 916.698 129.423C931.084 132.788 944.431 137.971 955.03 145.484C965.724 153.065 974.716 163.887 977.243 178.218C979.77 192.549 975.022 205.794 967.565 216.575C960.175 227.26 949.405 236.696 937.038 244.778C912.239 260.983 877.696 273.908 839.26 280.686C799.651 287.67 761.97 283.931 733.333 275.657C719.058 271.532 706.372 266.091 696.577 259.765C691.685 256.605 687.045 252.924 683.271 248.669C679.606 244.536 675.823 238.801 674.552 231.591C672.025 217.259 676.773 204.014 684.23 193.233C691.621 182.548 702.39 173.113 714.757 165.031C739.556 148.825 774.099 135.9 812.535 129.123Z" fill="black" fill-opacity="0.2"/>
<path fill-rule="evenodd" clip-rule="evenodd" d="M852.459 42.6088C858.635 42.1041 861.178 43.5473 862.168 44.378C863.207 45.2497 865.508 48.1324 866.52 55.6182C867.51 62.9433 866.967 72.9069 864.178 84.9006C858.612 108.833 844.806 137.784 822.826 163.979C801.674 189.187 775.739 203.769 752.992 209.856C741.6 212.905 731.427 213.712 723.376 212.946C718.933 212.524 715.529 211.668 713.011 210.7C713.016 209.854 713.048 208.885 713.117 207.792C713.511 201.536 715.032 192.727 718.27 182.112C724.726 160.952 737.567 134.054 759.582 107.816C782.104 80.9765 806.58 61.3186 827.254 50.859C837.626 45.6118 846.165 43.1229 852.459 42.6088ZM809.584 15.9318C783.15 29.3054 754.685 52.7577 729.597 82.6559C704.004 113.157 688.732 144.793 680.831 170.69C676.891 183.604 674.674 195.454 674.051 205.329C673.741 210.247 673.801 215.07 674.406 219.502C674.948 223.48 676.179 229.149 679.638 234.197L681.152 236.406L683.203 238.127C693.292 246.593 706.491 250.66 719.67 251.913C733.087 253.189 747.979 251.718 763.111 247.669C793.41 239.56 826.354 220.67 852.811 189.14C878.44 158.596 895.238 124.145 902.303 93.7679C905.829 78.6066 907.11 63.6882 905.31 50.3739C903.531 37.2202 898.428 23.706 887.329 14.3929C876.181 5.03872 862.336 2.52852 849.271 3.59593C836.323 4.65381 822.767 9.2623 809.584 15.9318Z" fill="#24B5C5"/>
<path fill-rule="evenodd" clip-rule="evenodd" d="M706.965 214.828L710.851 216.322C713.948 217.512 717.896 218.474 722.806 218.941C731.682 219.785 742.581 218.876 754.548 215.674C778.458 209.275 805.471 194.03 827.439 167.85C849.981 140.986 864.246 111.189 870.043 86.2648C872.946 73.7837 873.602 63.0578 872.487 54.8114C871.353 46.4245 868.61 41.9218 866.039 39.7649C863.512 37.6441 859.247 36.0121 851.968 36.6068C844.651 37.2046 835.34 40.0196 824.536 45.4856C802.976 56.3935 777.886 76.6351 754.969 103.946C732.403 130.839 719.188 158.466 712.51 180.355C709.164 191.323 707.536 200.6 707.107 207.413C707.031 208.614 706.995 209.697 706.989 210.665L706.965 214.828ZM683.666 237.575L687.074 233.514L685.654 232.323L684.606 230.793C681.924 226.879 680.865 222.297 680.372 218.688C679.836 214.759 679.769 210.353 680.061 205.708C680.649 196.39 682.759 185.007 686.591 172.447C694.269 147.279 709.168 116.372 734.21 86.5268C758.903 57.099 786.755 34.2305 812.302 21.3052C825.053 14.8546 837.837 10.5721 849.762 9.5979C861.777 8.61624 873.879 10.9681 883.458 19.006C893.005 27.0166 897.68 38.8906 899.342 51.1807C901.017 63.5736 899.851 77.7296 896.438 92.4037C889.603 121.79 873.266 155.394 848.198 185.269C822.557 215.826 790.692 234.054 761.554 241.851C746.998 245.747 732.832 247.116 720.24 245.918C707.81 244.736 695.924 240.94 687.074 233.514L683.666 237.575ZM681.152 236.406L679.638 234.197C676.179 229.149 674.948 223.48 674.406 219.502C673.801 215.07 673.741 210.247 674.051 205.329C674.674 195.454 676.891 183.604 680.831 170.69C688.732 144.793 704.004 113.157 729.597 82.6559C754.685 52.7577 783.15 29.3054 809.584 15.9318C822.767 9.2623 836.323 4.65381 849.271 3.59593C862.336 2.52852 876.181 5.03872 887.329 14.3929C898.428 23.706 903.531 37.2202 905.31 50.3739C907.11 63.6882 905.829 78.6066 902.303 93.7679C895.238 124.145 878.44 158.596 852.811 189.14C826.354 220.67 793.41 239.56 763.111 247.669C747.979 251.718 733.087 253.189 719.67 251.913C706.491 250.66 693.292 246.593 683.203 238.127L681.152 236.406ZM713.011 210.7C715.529 211.668 718.933 212.524 723.376 212.946C731.427 213.712 741.6 212.905 752.992 209.856C775.739 203.769 801.674 189.187 822.826 163.979C844.806 137.784 858.612 108.833 864.178 84.9006C866.967 72.9069 867.51 62.9433 866.52 55.6182C865.508 48.1324 863.207 45.2497 862.168 44.378C861.178 43.5473 858.635 42.1041 852.459 42.6088C846.165 43.1229 837.626 45.6118 827.254 50.859C806.58 61.3186 782.104 80.9765 759.582 107.816C737.567 134.054 724.726 160.952 718.27 182.112C715.032 192.727 713.511 201.536 713.117 207.792C713.048 208.885 713.016 209.854 713.011 210.7Z" fill="black" fill-opacity="0.2"/>
<path fill-rule="evenodd" clip-rule="evenodd" d="M636.048 161.342C648.517 177.246 662.48 202.842 674.687 236.381C686.883 269.891 694.524 303.623 696.823 329.237C697.815 340.284 697.738 349.036 696.942 355.276C693.129 351.83 688.454 346.568 683.182 339.24C669.771 320.604 655.083 292.262 642.851 258.654C630.619 225.046 623.652 193.894 621.946 170.997C621.166 160.522 621.562 152.71 622.565 147.526C626.057 150.06 630.66 154.47 636.048 161.342ZM641.431 113.079C632.562 107.611 620.269 103.33 607.415 108.009C593.059 113.234 587.274 126.837 584.872 136.707C582.261 147.438 581.902 160.349 582.911 173.905C584.952 201.298 592.969 236.05 606.069 272.042C619.169 308.034 635.366 339.808 651.41 362.104C659.35 373.137 667.924 382.797 676.822 389.339C685.007 395.356 698.182 402.058 712.538 396.833C728.07 391.18 733.048 375.331 734.906 365.673C737.099 354.279 737.124 340.384 735.81 325.737C733.155 296.158 724.605 259.083 711.469 222.993C698.344 186.933 682.63 157.315 666.851 137.191C659.027 127.211 650.487 118.662 641.431 113.079Z" fill="#24B5C5"/>
<path fill-rule="evenodd" clip-rule="evenodd" d="M701.457 367.474L702.915 356.038C703.785 349.222 703.836 340.004 702.821 328.698C700.468 302.475 692.687 268.228 680.346 234.321C667.997 200.395 653.765 174.18 640.787 157.626C635.175 150.469 630.182 145.613 626.102 142.652L618.449 137.1L616.653 146.383C615.512 152.276 615.138 160.667 615.941 171.445C617.698 195.033 624.826 226.739 637.192 260.714C649.558 294.688 664.478 323.559 678.294 342.758C683.732 350.316 688.685 355.93 692.904 359.743L701.457 367.474ZM697.511 347.381C697.65 342.287 697.45 336.22 696.823 329.237C694.524 303.623 686.883 269.891 674.687 236.381C662.48 202.842 648.517 177.246 636.048 161.342C633.1 157.582 630.387 154.559 627.962 152.177C625.955 150.206 624.146 148.674 622.565 147.526C622.184 149.497 621.89 151.846 621.716 154.578C621.431 159.033 621.462 164.504 621.946 170.997C623.652 193.894 630.619 225.046 642.851 258.654C655.083 292.262 669.771 320.604 683.182 339.24C686.121 343.325 688.874 346.767 691.396 349.612C693.398 351.87 695.254 353.751 696.942 355.276C697.235 352.981 697.43 350.346 697.511 347.381ZM609.474 113.667C619.864 109.886 630.155 113.201 638.271 118.205C646.493 123.274 654.523 131.226 662.112 140.906C677.382 160.381 692.827 189.38 705.81 225.053C718.801 260.746 727.212 297.307 729.812 326.276C731.103 340.66 731.034 353.926 728.993 364.535C727.174 373.983 722.72 386.719 710.479 391.174C699.054 395.333 688.11 390.164 680.389 384.487C672.207 378.471 664.06 369.373 656.298 358.586C640.659 336.853 624.694 305.607 611.727 269.982C598.761 234.357 590.906 200.159 588.917 173.458C587.929 160.205 588.322 147.999 590.723 138.131C592.989 128.819 598.05 117.826 609.474 113.667ZM607.415 108.009C620.269 103.33 632.562 107.611 641.431 113.079C650.487 118.662 659.027 127.211 666.851 137.191C682.63 157.315 698.344 186.933 711.469 222.993C724.605 259.083 733.155 296.158 735.81 325.737C737.124 340.384 737.099 354.279 734.906 365.673C733.048 375.331 728.07 391.18 712.538 396.833C698.182 402.058 685.007 395.356 676.822 389.339C667.924 382.797 659.35 373.137 651.41 362.104C635.366 339.808 619.169 308.034 606.069 272.042C592.969 236.05 584.952 201.298 582.911 173.905C581.902 160.349 582.261 147.438 584.872 136.707C587.274 126.837 593.059 113.234 607.415 108.009Z" fill="black" fill-opacity="0.2"/>
<mask id="mask2_371_1755" style="mask-type:alpha" maskUnits="userSpaceOnUse" x="635" y="74" width="73" height="73">
<path d="M635.394 110.363C635.394 130.318 651.571 146.495 671.526 146.495C691.481 146.495 707.658 130.318 707.658 110.363C707.658 90.4081 691.481 74.2313 671.526 74.2313C651.571 74.2313 635.394 90.4081 635.394 110.363Z" fill="white"/>
</mask>
<g mask="url(#mask2_371_1755)">
<path d="M635.394 110.363C635.394 130.318 651.571 146.495 671.526 146.495C691.481 146.495 707.658 130.318 707.658 110.363C707.658 90.4081 691.481 74.2313 671.526 74.2313C651.571 74.2313 635.394 90.4081 635.394 110.363Z" fill="white"/>
<path fill-rule="evenodd" clip-rule="evenodd" d="M671.526 140.473C654.897 140.473 641.416 126.992 641.416 110.363C641.416 93.7339 654.897 80.2533 671.526 80.2533C688.155 80.2533 701.636 93.7339 701.636 110.363C701.636 126.992 688.155 140.473 671.526 140.473ZM671.526 146.495C651.571 146.495 635.394 130.318 635.394 110.363C635.394 90.4081 651.571 74.2313 671.526 74.2313C691.481 74.2313 707.658 90.4081 707.658 110.363C707.658 130.318 691.481 146.495 671.526 146.495Z" fill="black" fill-opacity="0.44"/>
<path d="M654.966 110.363C654.966 119.509 662.38 126.924 671.526 126.924C680.672 126.924 688.086 119.509 688.086 110.363C688.086 101.217 680.672 93.8029 671.526 93.8029C662.38 93.8029 654.966 101.217 654.966 110.363Z" fill="#222222"/>
<ellipse cx="158.855" cy="40.58" rx="158.855" ry="40.58" transform="matrix(-0.866025 -0.5 -0.5 0.866025 829.389 105.585)" fill="#14717B"/>
<path d="M536.657 -16.5661C534.732 -13.2307 535.17 -7.74883 539.601 0.287781C543.924 8.12966 551.57 17.4859 562.082 27.7548C583.071 48.2584 614.966 71.8992 652.797 93.7412C690.629 115.583 727.049 131.384 755.301 139.309C769.45 143.279 781.375 145.222 790.328 145.045C799.504 144.864 804.47 142.503 806.396 139.168C808.322 135.832 807.883 130.35 803.452 122.314C799.129 114.472 791.483 105.116 780.971 94.8467C759.982 74.3431 728.088 50.7023 690.256 28.8603C652.425 7.01821 616.004 -8.78285 587.753 -16.7079C573.604 -20.6771 561.678 -22.6204 552.725 -22.4438C543.55 -22.2627 538.583 -19.9014 536.657 -16.5661Z" stroke="black" stroke-opacity="0.39" stroke-width="6.24188"/>
</g>
<mask id="mask3_371_1755" style="mask-type:alpha" maskUnits="userSpaceOnUse" x="533" y="74" width="73" height="73">
<path d="M533.021 110.363C533.021 130.318 549.197 146.495 569.152 146.495C589.107 146.495 605.284 130.318 605.284 110.363C605.284 90.4081 589.107 74.2313 569.152 74.2313C549.197 74.2313 533.021 90.4081 533.021 110.363Z" fill="white"/>
</mask>
<g mask="url(#mask3_371_1755)">
<path d="M533.021 110.363C533.021 130.318 549.197 146.495 569.152 146.495C589.107 146.495 605.284 130.318 605.284 110.363C605.284 90.4081 589.107 74.2313 569.152 74.2313C549.197 74.2313 533.021 90.4081 533.021 110.363Z" fill="white"/>
<path fill-rule="evenodd" clip-rule="evenodd" d="M569.152 140.473C552.523 140.473 539.043 126.992 539.043 110.363C539.043 93.7339 552.523 80.2533 569.152 80.2533C585.782 80.2533 599.262 93.7339 599.262 110.363C599.262 126.992 585.782 140.473 569.152 140.473ZM569.152 146.495C549.197 146.495 533.021 130.318 533.021 110.363C533.021 90.4081 549.197 74.2313 569.152 74.2313C589.107 74.2313 605.284 90.4081 605.284 110.363C605.284 130.318 589.107 146.495 569.152 146.495Z" fill="black" fill-opacity="0.44"/>
<path d="M552.592 110.363C552.592 119.509 560.006 126.924 569.152 126.924C578.299 126.924 585.713 119.509 585.713 110.363C585.713 101.217 578.299 93.8029 569.152 93.8029C560.006 93.8029 552.592 101.217 552.592 110.363Z" fill="#222222"/>
<ellipse cx="158.855" cy="40.58" rx="158.855" ry="40.58" transform="matrix(-0.866025 0.5 0.5 0.866025 686.435 -53.2699)" fill="#14717B"/>
<path d="M434.284 139.167C436.209 142.503 441.176 144.864 450.351 145.045C459.304 145.222 471.23 143.279 485.379 139.309C513.63 131.384 550.051 115.583 587.883 93.7412C625.714 71.8991 657.609 48.2583 678.597 27.7547C689.109 17.4858 696.755 8.12961 701.079 0.287713C705.51 -7.74888 705.948 -13.2308 704.022 -16.5661C702.097 -19.9014 697.13 -22.2628 687.955 -22.4438C679.002 -22.6205 667.076 -20.6771 652.927 -16.708C624.676 -8.78292 588.255 7.01815 550.423 28.8602C512.592 50.7022 480.697 74.343 459.709 94.8467C449.197 105.116 441.551 114.472 437.227 122.314C432.796 130.35 432.358 135.832 434.284 139.167Z" stroke="black" stroke-opacity="0.39" stroke-width="6.24188"/>
</g>
<rect x="-4.26328" y="1.14234" width="48.6727" height="13.9018" rx="6.95091" transform="matrix(-0.866025 -0.5 -0.5 0.866025 711.091 59.4004)" fill="#222222" stroke="#131313" stroke-width="6.24188"/>
<rect x="536.478" y="62.5214" width="48.6727" height="13.9018" rx="6.95091" transform="rotate(-30 536.478 62.5214)" fill="#222222" stroke="#131313" stroke-width="6.24188"/>
<path d="M493.037 551.638C955.028 551.638 1165.07 429.011 914.318 281.92C833.123 234.291 742.442 248.596 679.857 265.258C617.272 281.92 555.621 307.955 471.552 307.955C387.482 307.955 144.617 161.704 45.5995 295.458C-74.2022 457.288 31.0453 551.638 493.037 551.638Z" fill="#F0F0F0"/>
<mask id="mask4_371_1755" style="mask-type:alpha" maskUnits="userSpaceOnUse" x="0" y="239" width="1022" height="313">
<path d="M493.037 551.638C955.028 551.638 1165.07 429.011 914.318 281.92C833.123 234.291 742.442 248.596 679.857 265.258C617.272 281.92 555.621 307.955 471.552 307.955C387.482 307.955 144.617 161.704 45.5995 295.458C-74.2022 457.288 31.0453 551.638 493.037 551.638Z" fill="#F0F0F0"/>
<path d="M911.708 286.368C974.229 323.043 1006.46 357.374 1014.25 387.413C1018.08 402.167 1016.09 416.115 1008.55 429.348C1000.93 442.719 987.524 455.569 968.233 467.558C929.611 491.56 868.649 511.344 788.158 525.096C707.775 538.83 608.325 546.481 493.037 546.481C377.686 546.481 284.773 540.59 212.169 529.272C139.473 517.939 87.5687 501.228 53.9078 479.879C20.4672 458.67 5.38187 433.165 5.15969 403.719C4.93382 373.784 20.034 338.66 49.7445 298.526C97.1439 234.499 179.386 236.723 262.99 256.566C298.107 264.902 332.884 276.202 364.704 286.542C370.532 288.436 376.262 290.297 381.875 292.102C399.952 297.916 416.861 303.151 431.917 306.933C446.919 310.702 460.4 313.112 471.552 313.112C537.335 313.112 589.836 297.286 638.897 282.497C653.204 278.184 667.218 273.959 681.184 270.241C743.497 253.651 832.396 239.843 911.708 286.368Z" stroke="black" stroke-opacity="0.2" stroke-width="10.3144"/>
</mask>
<g mask="url(#mask4_371_1755)">
</g>
<mask id="mask5_371_1755" style="mask-type:alpha" maskUnits="userSpaceOnUse" x="0" y="239" width="1022" height="313">
<path d="M493.037 551.638C955.028 551.638 1165.07 429.011 914.318 281.92C833.123 234.291 742.442 248.596 679.857 265.258C617.272 281.92 555.621 307.955 471.552 307.955C387.482 307.955 144.617 161.704 45.5995 295.458C-74.2022 457.288 31.0453 551.638 493.037 551.638Z" fill="#F0F0F0"/>
<path d="M911.708 286.368C974.229 323.043 1006.46 357.374 1014.25 387.413C1018.08 402.167 1016.09 416.115 1008.55 429.348C1000.93 442.719 987.524 455.569 968.233 467.558C929.611 491.56 868.649 511.344 788.158 525.096C707.775 538.83 608.325 546.481 493.037 546.481C377.686 546.481 284.773 540.59 212.169 529.272C139.473 517.939 87.5687 501.228 53.9078 479.879C20.4672 458.67 5.38187 433.165 5.15969 403.719C4.93382 373.784 20.034 338.66 49.7445 298.526C97.1439 234.499 179.386 236.723 262.99 256.566C298.107 264.902 332.884 276.202 364.704 286.542C370.532 288.436 376.262 290.297 381.875 292.102C399.952 297.916 416.861 303.151 431.917 306.933C446.919 310.702 460.4 313.112 471.552 313.112C537.335 313.112 589.836 297.286 638.897 282.497C653.204 278.184 667.218 273.959 681.184 270.241C743.497 253.651 832.396 239.843 911.708 286.368Z" stroke="black" stroke-opacity="0.2" stroke-width="10.3144"/>
</mask>
<g mask="url(#mask5_371_1755)">
<path d="M492.664 733.642C1321.73 733.642 1698.66 610.365 1248.68 462.496C1102.97 414.615 940.236 428.995 827.923 445.746C715.611 462.496 604.975 488.668 454.108 488.668C303.24 488.668 -132.596 341.645 -310.287 476.106C-525.278 638.792 -336.406 733.642 492.664 733.642Z" fill="#CDCDCD"/>
<path d="M1247.28 466.733C1303.39 485.171 1346.42 503.164 1377.2 520.488C1408.16 537.91 1426.05 554.276 1432.93 569.12C1436.3 576.394 1437.01 583.254 1435.38 589.841C1433.75 596.499 1429.63 603.267 1422.69 610.09C1408.72 623.828 1384.07 637.046 1348.85 649.308C1208.03 698.335 907.226 729.182 492.664 729.182C285.467 729.182 118.353 723.256 -12.4063 711.837C-143.239 700.412 -237.399 683.509 -298.841 661.679C-329.571 650.761 -351.806 638.716 -366.342 625.756C-380.791 612.873 -387.461 599.265 -387.654 584.919C-387.85 570.408 -381.434 554.316 -367.965 536.577C-354.514 518.863 -334.299 499.868 -307.596 479.662C-264.152 446.787 -204.582 430.885 -136.769 425.79C-69.011 420.698 6.49225 426.427 81.3814 436.385C144.685 444.802 207.385 456.215 264.481 466.609C274.925 468.51 285.182 470.377 295.221 472.186C359.952 483.846 415.909 493.128 454.108 493.128C571.069 493.128 664.076 477.427 751.983 462.587C777.796 458.23 803.17 453.946 828.581 450.156C940.776 433.424 1102.62 419.196 1247.28 466.733Z" stroke="black" stroke-opacity="0.2" stroke-width="8.91886"/>
</g>
<path fill-rule="evenodd" clip-rule="evenodd" d="M1009.26 388.709C1002.02 360.812 971.452 327.393 909.099 290.817C831.668 245.395 744.553 258.707 682.511 275.225C668.811 278.872 654.969 283.046 640.77 287.328C591.611 302.153 538.172 318.269 471.552 318.269C459.757 318.269 445.785 315.734 430.66 311.935C415.428 308.109 398.381 302.828 380.297 297.012C374.655 295.198 368.906 293.33 363.066 291.432C331.242 281.092 296.694 269.867 261.799 261.584C178.194 241.74 99.1798 240.416 53.8894 301.595C24.4189 341.404 10.1034 375.413 10.3167 403.68C10.5226 430.97 24.3315 455.014 56.67 475.524C89.449 496.314 140.534 512.885 212.964 524.176C285.209 535.438 377.834 541.324 493.037 541.324C608.116 541.324 707.264 533.685 787.289 520.013C867.532 506.303 927.725 486.661 965.511 463.178C984.365 451.461 997.018 439.169 1004.07 426.795C1010.96 414.696 1012.74 402.126 1009.26 388.709ZM914.318 281.92C1165.07 429.011 955.028 551.638 493.037 551.638C31.0453 551.638 -74.2022 457.288 45.5995 295.458C116.036 200.311 259.264 246.855 366.342 281.651C409.79 295.77 447.286 307.955 471.552 307.955C536.499 307.955 588.066 292.416 637.021 277.665C651.435 273.322 665.622 269.048 679.857 265.258C742.442 248.596 833.123 234.291 914.318 281.92Z" fill="black" fill-opacity="0.2"/>
<ellipse cx="841.924" cy="328.623" rx="31.5233" ry="27.4577" transform="rotate(-9.83732 841.924 328.623)" fill="#5A6D0D"/>
<ellipse cx="841.447" cy="325.872" rx="31.5233" ry="24.6657" transform="rotate(-9.83732 841.447 325.872)" fill="#BBE415"/>
<path d="M868.113 321.249C869.856 331.301 860.692 343.043 844.9 345.782C829.108 348.52 816.525 340.549 814.781 330.496C813.038 320.443 822.203 308.702 837.995 305.963C853.787 303.225 866.37 311.196 868.113 321.249Z" stroke="black" stroke-opacity="0.16" stroke-width="8.91886"/>
<ellipse cx="901.847" cy="373.967" rx="31.5233" ry="27.4577" transform="rotate(-9.83732 901.847 373.967)" fill="#6D690D"/>
<ellipse cx="901.37" cy="371.217" rx="31.5233" ry="24.6657" transform="rotate(-9.83732 901.37 371.217)" fill="#E4DD15"/>
<path d="M928.036 366.593C929.779 376.645 920.614 388.387 904.822 391.126C889.03 393.864 876.447 385.893 874.704 375.84C872.961 365.788 882.125 354.046 897.917 351.307C913.709 348.569 926.292 356.54 928.036 366.593Z" stroke="black" stroke-opacity="0.16" stroke-width="8.91886"/>
<ellipse cx="812.778" cy="389.412" rx="31.5233" ry="27.4577" transform="rotate(-9.83732 812.778 389.412)" fill="#0D636D"/>
<ellipse cx="812.301" cy="386.661" rx="31.5233" ry="24.6657" transform="rotate(-9.83732 812.301 386.661)" fill="#15D0E4"/>
<path d="M838.967 382.037C840.71 392.09 831.545 403.832 815.753 406.57C799.961 409.308 787.378 401.338 785.635 391.285C783.892 381.232 793.057 369.49 808.849 366.752C824.641 364.013 837.224 371.984 838.967 382.037Z" stroke="black" stroke-opacity="0.16" stroke-width="8.91886"/>
<ellipse cx="149.658" cy="316.47" rx="31.5233" ry="27.4577" transform="rotate(13.1725 149.658 316.47)" fill="#6D170D"/>
<ellipse cx="150.295" cy="313.752" rx="31.5233" ry="24.6657" transform="rotate(13.1725 150.295 313.752)" fill="#E42A15"/>
<path d="M176.646 319.919C174.321 329.854 161.296 337.079 145.69 333.426C130.084 329.774 121.618 317.519 123.943 307.584C126.268 297.65 139.293 290.425 154.899 294.077C170.505 297.73 178.972 309.985 176.646 319.919Z" stroke="black" stroke-opacity="0.16" stroke-width="8.91886"/>
<ellipse cx="503.385" cy="359.018" rx="20.8941" ry="18.1993" fill="#6D1A0D"/>
<ellipse cx="503.385" cy="357.167" rx="20.8941" ry="16.3487" fill="#E43115"/>
<path d="M519.819 357.167C519.819 362.777 513.542 369.056 503.385 369.056C493.228 369.056 486.95 362.777 486.95 357.167C486.95 351.558 493.228 345.278 503.385 345.278C513.542 345.278 519.819 351.558 519.819 357.167Z" stroke="black" stroke-opacity="0.16" stroke-width="8.91886"/>
<ellipse cx="89.1282" cy="358.703" rx="31.5233" ry="27.4577" transform="rotate(13.1725 89.1282 358.703)" fill="#006570"/>
<ellipse cx="89.7644" cy="355.985" rx="31.5233" ry="24.6657" transform="rotate(13.1725 89.7644 355.985)" fill="#00D8EF"/>
<path d="M116.116 362.152C113.791 372.086 100.766 379.312 85.1597 375.659C69.5538 372.007 61.0876 359.752 63.4126 349.817C65.7377 339.883 78.7632 332.658 94.3691 336.31C109.975 339.962 118.441 352.218 116.116 362.152Z" stroke="black" stroke-opacity="0.16" stroke-width="8.91886"/>
<ellipse cx="163.03" cy="376.719" rx="31.5233" ry="27.4577" transform="rotate(13.1725 163.03 376.719)" fill="#700063"/>
<ellipse cx="163.666" cy="374" rx="31.5233" ry="24.6657" transform="rotate(13.1725 163.666 374)" fill="#EF00D4"/>
<path d="M190.018 380.167C187.692 390.102 174.667 397.327 159.061 393.675C143.455 390.022 134.989 377.767 137.314 367.833C139.639 357.898 152.665 350.673 168.27 354.325C183.876 357.978 192.343 370.233 190.018 380.167Z" stroke="black" stroke-opacity="0.16" stroke-width="8.91886"/>
<ellipse cx="454.459" cy="359.018" rx="20.8941" ry="18.1993" fill="#6D1A0D"/>
<ellipse cx="454.459" cy="357.167" rx="20.8941" ry="16.3487" fill="#E43115"/>
<path d="M470.893 357.167C470.893 362.777 464.616 369.056 454.459 369.056C444.301 369.056 438.024 362.777 438.024 357.167C438.024 351.558 444.301 345.278 454.459 345.278C464.616 345.278 470.893 351.558 470.893 357.167Z" stroke="black" stroke-opacity="0.16" stroke-width="8.91886"/>
<ellipse cx="504.508" cy="428.936" rx="38.5448" ry="33.5736" fill="#6D0D4A"/>
<ellipse cx="504.508" cy="425.522" rx="38.5448" ry="30.1597" fill="#E41599"/>
<path d="M538.594 425.522C538.594 438.76 524.414 451.223 504.508 451.223C484.603 451.223 470.423 438.76 470.423 425.522C470.423 412.285 484.603 399.822 504.508 399.822C524.414 399.822 538.594 412.285 538.594 425.522Z" stroke="black" stroke-opacity="0.16" stroke-width="8.91886"/>
<ellipse cx="274.351" cy="397.275" rx="28.1859" ry="24.5507" transform="rotate(18.9353 274.351 397.275)" fill="#6D420D"/>
<ellipse cx="275.161" cy="394.914" rx="28.1859" ry="22.0543" transform="rotate(18.9353 275.161 394.914)" fill="#E48715"/>
<path d="M297.604 402.613C294.761 410.9 282.869 416.16 269.452 411.557C256.035 406.954 249.876 395.501 252.719 387.215C255.562 378.928 267.454 373.668 280.871 378.271C294.288 382.874 300.447 394.327 297.604 402.613Z" stroke="black" stroke-opacity="0.16" stroke-width="8.91886"/>
<ellipse cx="335.738" cy="415.539" rx="28.1859" ry="24.5507" transform="rotate(18.9353 335.738 415.539)" fill="#6D420D"/>
<ellipse cx="336.548" cy="413.178" rx="28.1859" ry="22.0543" transform="rotate(18.9353 336.548 413.178)" fill="#E48715"/>
<path d="M358.991 420.877C356.148 429.164 344.255 434.424 330.838 429.821C317.422 425.218 311.263 413.765 314.105 405.479C316.948 397.192 328.841 391.932 342.258 396.535C355.674 401.138 361.833 412.591 358.991 420.877Z" stroke="black" stroke-opacity="0.16" stroke-width="8.91886"/>
<ellipse cx="552.312" cy="359.018" rx="20.8941" ry="18.1993" fill="#6D1A0D"/>
<ellipse cx="552.312" cy="357.167" rx="20.8941" ry="16.3487" fill="#E43115"/>
<path d="M568.746 357.167C568.746 362.777 562.469 369.056 552.312 369.056C542.154 369.056 535.877 362.777 535.877 357.167C535.877 351.558 542.154 345.278 552.312 345.278C562.469 345.278 568.746 351.558 568.746 357.167Z" stroke="black" stroke-opacity="0.16" stroke-width="8.91886"/>
<ellipse cx="331.657" cy="336.622" rx="67.1144" ry="40.8433" transform="rotate(15 331.657 336.622)" fill="#1F6515"/>
<ellipse cx="332.732" cy="332.61" rx="67.1144" ry="36.6902" transform="rotate(15 332.732 332.61)" fill="#3CD524"/>
<path d="M393.252 348.827C391.249 356.303 383.581 362.513 370.804 365.62C358.211 368.682 341.712 368.384 324.39 363.743C307.069 359.102 292.632 351.11 283.256 342.162C273.744 333.083 270.209 323.87 272.212 316.394C274.215 308.918 281.883 302.707 294.661 299.601C307.254 296.539 323.753 296.837 341.074 301.478C358.396 306.119 372.833 314.111 382.208 323.059C391.72 332.138 395.256 341.35 393.252 348.827Z" stroke="black" stroke-opacity="0.16" stroke-width="8.91886"/>
<ellipse cx="67.1144" cy="28.3931" rx="67.1144" ry="28.3931" transform="matrix(-0.965926 0.258819 0.258819 0.965926 754.199 370.07)" fill="#653615"/>
<ellipse cx="67.1144" cy="25.506" rx="67.1144" ry="25.506" transform="matrix(-0.965926 0.258819 0.258819 0.965926 754.199 370.07)" fill="#D56E24"/>
<path d="M635.453 428.294C635.922 430.044 637.419 431.964 640.83 433.697C644.238 435.429 649.104 436.719 655.252 437.345C667.514 438.592 683.904 437.1 701.42 432.407C718.936 427.713 733.876 420.81 743.871 413.599C748.883 409.984 752.452 406.433 754.538 403.229C756.625 400.023 756.962 397.611 756.493 395.861C756.024 394.111 754.526 392.191 751.116 390.458C747.707 388.726 742.841 387.436 736.693 386.81C724.431 385.563 708.042 387.055 690.525 391.748C673.009 396.441 658.069 403.344 648.074 410.556C643.063 414.171 639.493 417.721 637.408 420.926C635.321 424.132 634.984 426.544 635.453 428.294Z" stroke="black" stroke-opacity="0.16" stroke-width="8.91886"/>
<ellipse cx="30.9681" cy="40.8433" rx="30.9681" ry="40.8433" transform="matrix(-0.965926 0.258819 0.258819 0.965926 664.907 292.251)" fill="#0D3F6D"/>
<ellipse cx="30.9681" cy="36.6902" rx="30.9681" ry="36.6902" transform="matrix(-0.965926 0.258819 0.258819 0.965926 664.907 292.251)" fill="#1581E4"/>
<path d="M618.885 342.567C623.683 360.475 639.346 370.453 652.832 366.839C666.318 363.226 674.894 346.753 670.095 328.846C665.297 310.938 649.634 300.96 636.148 304.574C622.662 308.187 614.086 324.66 618.885 342.567Z" stroke="black" stroke-opacity="0.16" stroke-width="8.91886"/>
<ellipse cx="30.9681" cy="40.8433" rx="30.9681" ry="40.8433" transform="matrix(-0.965926 0.258819 0.258819 0.965926 735.392 276.221)" fill="#0D3F6D"/>
<ellipse cx="30.9681" cy="36.6902" rx="30.9681" ry="36.6902" transform="matrix(-0.965926 0.258819 0.258819 0.965926 735.392 276.221)" fill="#1581E4"/>
<path d="M689.369 326.537C694.168 344.445 709.831 354.422 723.317 350.809C736.803 347.195 745.379 330.723 740.58 312.815C735.782 294.908 720.119 284.93 706.633 288.544C693.147 292.157 684.571 308.63 689.369 326.537Z" stroke="black" stroke-opacity="0.16" stroke-width="8.91886"/>
</g>
<defs>
<linearGradient id="paint0_linear_371_1755" x1="534.647" y1="147.311" x2="543.186" y2="279.538" gradientUnits="userSpaceOnUse">
<stop stop-color="#F67703"/>
<stop offset="1" stop-color="#FFD600"/>
</linearGradient>
<clipPath id="clip0_371_1755">
<rect width="1021" height="552" fill="white"/>
</clipPath>
</defs>
</svg>
